<svg width="72" height="72" viewBox="0 0 72 72" fill="none" xmlns="http://www.w3.org/2000/svg">
<rect width="72" height="72" rx="36" fill="#122066" fill-opacity="0.1"/>
<path d="M22.8 32.7C21.9248 32.7 21.0854 32.3523 20.4665 31.7335C19.8477 31.1146 19.5 30.2752 19.5 29.4V22.8C19.5 21.9248 19.8477 21.0854 20.4665 20.4665C21.0854 19.8477 21.9248 19.5 22.8 19.5H29.4C30.2752 19.5 31.1146 19.8477 31.7335 20.4665C32.3523 21.0854 32.7 21.9248 32.7 22.8M39.3 49.2C39.3 50.0752 39.6477 50.9146 40.2665 51.5335C40.8854 52.1523 41.7248 52.5 42.6 52.5H49.2C50.0752 52.5 50.9146 52.1523 51.5335 51.5335C52.1523 50.9146 52.5 50.0752 52.5 49.2V42.6C52.5 41.7248 52.1523 40.8854 51.5335 40.2665C50.9146 39.6477 50.0752 39.3 49.2 39.3M32.7 29.4H39.3C41.1225 29.4 42.6 30.8775 42.6 32.7V39.3C42.6 41.1225 41.1225 42.6 39.3 42.6H32.7C30.8775 42.6 29.4 41.1225 29.4 39.3V32.7C29.4 30.8775 30.8775 29.4 32.7 29.4Z" stroke="#122066" stroke-width="3" stroke-linecap="round" stroke-linejoin="round"/>
</svg>
