<svg width="36" height="36" viewBox="0 0 36 36" fill="none" xmlns="http://www.w3.org/2000/svg">
<rect width="36" height="36" rx="18" fill="#122066" fill-opacity="0.1"/>
<path d="M10.8 16.2C10.3226 16.2 9.86477 16.0104 9.52721 15.6728C9.18964 15.3352 9 14.8774 9 14.4V10.8C9 10.3226 9.18964 9.86477 9.52721 9.52721C9.86477 9.18964 10.3226 9 10.8 9H14.4C14.8774 9 15.3352 9.18964 15.6728 9.52721C16.0104 9.86477 16.2 10.3226 16.2 10.8M19.8 25.2C19.8 25.6774 19.9896 26.1352 20.3272 26.4728C20.6648 26.8104 21.1226 27 21.6 27H25.2C25.6774 27 26.1352 26.8104 26.4728 26.4728C26.8104 26.1352 27 25.6774 27 25.2V21.6C27 21.1226 26.8104 20.6648 26.4728 20.3272C26.1352 19.9896 25.6774 19.8 25.2 19.8M16.2 14.4H19.8C20.7941 14.4 21.6 15.2059 21.6 16.2V19.8C21.6 20.7941 20.7941 21.6 19.8 21.6H16.2C15.2059 21.6 14.4 20.7941 14.4 19.8V16.2C14.4 15.2059 15.2059 14.4 16.2 14.4Z" stroke="#122066" stroke-width="1.5" stroke-linecap="round" stroke-linejoin="round"/>
</svg>
