<svg width="40" height="40" viewBox="0 0 40 40" fill="none" xmlns="http://www.w3.org/2000/svg">
<path d="M11.2 17.8C10.6165 17.8 10.0569 17.5682 9.64436 17.1556C9.23178 16.7431 9 16.1835 9 15.6V11.2C9 10.6165 9.23178 10.0569 9.64436 9.64436C10.0569 9.23178 10.6165 9 11.2 9H15.6C16.1835 9 16.7431 9.23178 17.1556 9.64436C17.5682 10.0569 17.8 10.6165 17.8 11.2M22.2 28.8C22.2 29.3835 22.4318 29.9431 22.8444 30.3556C23.2569 30.7682 23.8165 31 24.4 31H28.8C29.3835 31 29.9431 30.7682 30.3556 30.3556C30.7682 29.9431 31 29.3835 31 28.8V24.4C31 23.8165 30.7682 23.2569 30.3556 22.8444C29.9431 22.4318 29.3835 22.2 28.8 22.2M17.8 15.6H22.2C23.415 15.6 24.4 16.585 24.4 17.8V22.2C24.4 23.415 23.415 24.4 22.2 24.4H17.8C16.585 24.4 15.6 23.415 15.6 22.2V17.8C15.6 16.585 16.585 15.6 17.8 15.6Z" stroke="#122066" stroke-width="1.5" stroke-linecap="round" stroke-linejoin="round"/>
</svg>
