<svg width="40" height="40" viewBox="0 0 40 40" fill="none" xmlns="http://www.w3.org/2000/svg">
<path d="M24.24 15.76L22.436 21.171C22.3378 21.4656 22.1724 21.7333 21.9528 21.9528C21.7333 22.1724 21.4656 22.3378 21.171 22.436L15.76 24.24L17.564 18.829C17.6622 18.5344 17.8276 18.2667 18.0472 18.0472C18.2667 17.8276 18.5344 17.6622 18.829 17.564L24.24 15.76Z" stroke="#122066" stroke-width="1.5" stroke-linecap="round" stroke-linejoin="round"/>
<path d="M20 30C25.5228 30 30 25.5228 30 20C30 14.4772 25.5228 10 20 10C14.4772 10 10 14.4772 10 20C10 25.5228 14.4772 30 20 30Z" stroke="#122066" stroke-width="1.5" stroke-linecap="round" stroke-linejoin="round"/>
</svg>
