<svg width="36" height="36" viewBox="0 0 36 36" fill="none" xmlns="http://www.w3.org/2000/svg">
<rect width="36" height="36" rx="18" fill="#122066" fill-opacity="0.1"/>
<path d="M21.816 14.184L20.1924 19.0539C20.104 19.319 19.9552 19.5599 19.7575 19.7575C19.5599 19.9552 19.319 20.104 19.0539 20.1924L14.184 21.816L15.8076 16.9461C15.896 16.681 16.0448 16.4401 16.2425 16.2425C16.4401 16.0448 16.681 15.896 16.9461 15.8076L21.816 14.184Z" stroke="#122066" stroke-width="1.5" stroke-linecap="round" stroke-linejoin="round"/>
<path d="M18 27C22.9706 27 27 22.9706 27 18C27 13.0294 22.9706 9 18 9C13.0294 9 9 13.0294 9 18C9 22.9706 13.0294 27 18 27Z" stroke="#122066" stroke-width="1.5" stroke-linecap="round" stroke-linejoin="round"/>
</svg>
