<svg width="72" height="72" viewBox="0 0 72 72" fill="none" xmlns="http://www.w3.org/2000/svg">
<rect width="72" height="72" rx="36" fill="#122066" fill-opacity="0.1"/>
<path d="M43.632 28.368L40.3848 38.1078C40.2081 38.638 39.9103 39.1199 39.5151 39.5151C39.1199 39.9103 38.638 40.2081 38.1078 40.3848L28.368 43.632L31.6152 33.8922C31.7919 33.362 32.0897 32.8801 32.4849 32.4849C32.8801 32.0897 33.362 31.7919 33.8922 31.6152L43.632 28.368Z" stroke="#122066" stroke-width="3" stroke-linecap="round" stroke-linejoin="round"/>
<path d="M36 54C45.9411 54 54 45.9411 54 36C54 26.0589 45.9411 18 36 18C26.0589 18 18 26.0589 18 36C18 45.9411 26.0589 54 36 54Z" stroke="#122066" stroke-width="3" stroke-linecap="round" stroke-linejoin="round"/>
</svg>
