<svg width="45" height="45" viewBox="0 0 45 45" fill="none" xmlns="http://www.w3.org/2000/svg">
<circle cx="22.5" cy="22.5" r="22.5" fill="#122066"/>
<g clip-path="url(#clip0_200_801)">
<path d="M33.8937 17.6393C33.7638 17.1668 33.5094 16.7359 33.156 16.3899C32.8025 16.0439 32.3624 15.7948 31.8798 15.6677C30.5605 15.169 17.7822 14.9247 14.0754 15.6819C13.5927 15.8091 13.1526 16.0582 12.7991 16.4043C12.4456 16.7503 12.1912 17.1812 12.0614 17.6538C11.466 20.2113 11.4207 25.7406 12.076 28.3552C12.2059 28.8277 12.4603 29.2586 12.8137 29.6047C13.1672 29.9507 13.6073 30.1998 14.09 30.3269C16.7022 30.9155 29.1215 30.9984 31.8943 30.3269C32.377 30.1998 32.8171 29.9507 33.1706 29.6047C33.524 29.2586 33.7784 28.8277 33.9083 28.3552C34.5431 25.5689 34.5883 20.3826 33.8937 17.6393Z" stroke="white" stroke-width="2" stroke-linecap="round" stroke-linejoin="round"/>
<path d="M26.5996 23.0001L20.5996 19.4V26.6L26.5996 23.0001Z" stroke="white" stroke-width="2" stroke-linecap="round" stroke-linejoin="round"/>
</g>
<defs>
<clipPath id="clip0_200_801">
<rect width="24" height="24" fill="white" transform="translate(11 11)"/>
</clipPath>
</defs>
</svg>
