<svg width="16" height="16" viewBox="0 0 16 16" fill="none" xmlns="http://www.w3.org/2000/svg">
<path d="M14.9831 4.56364C14.8999 4.26073 14.7368 3.98455 14.5103 3.76275C14.2837 3.54094 14.0016 3.3813 13.6922 3.2998C12.8466 2.98016 4.65568 2.82356 2.27961 3.30896C1.97019 3.39047 1.68807 3.55013 1.46149 3.77196C1.23492 3.99379 1.07185 4.27 0.988616 4.57294C0.606952 6.21229 0.577978 9.75656 0.99797 11.4325C1.08123 11.7354 1.2443 12.0116 1.47087 12.2334C1.69744 12.4552 1.97956 12.6149 2.28897 12.6964C3.96342 13.0737 11.9242 13.1268 13.7016 12.6964C14.011 12.6149 14.2931 12.4552 14.5196 12.2334C14.7462 12.0116 14.9092 11.7354 14.9925 11.4325C15.3994 9.6465 15.4284 6.32211 14.9831 4.56364Z" stroke="#4E5968" stroke-opacity="0.5" stroke-linecap="round" stroke-linejoin="round"/>
<path d="M10.3077 8L6.46167 5.69238V10.3076L10.3077 8Z" stroke="#4E5968" stroke-opacity="0.5" stroke-linecap="round" stroke-linejoin="round"/>
</svg>
