<svg width="75" height="278" viewBox="0 0 75 278" fill="none" xmlns="http://www.w3.org/2000/svg">
<path d="M1.17188 20V18.1641L6.17188 13.3398C7.59766 11.9141 8.33984 11.0742 8.33984 9.88281C8.33984 8.57422 7.30469 7.73438 5.91797 7.73438C4.45312 7.73438 3.51562 8.65234 3.53516 10.0781H1.11328C1.09375 7.40234 3.10547 5.66406 5.9375 5.66406C8.82812 5.66406 10.7812 7.38281 10.7812 9.76562C10.7812 11.3672 10 12.6562 7.22656 15.2734L4.70703 17.7734V17.8711H10.9961V20H1.17188ZM17.9375 20.1953C14.5391 20.1953 12.5078 17.5586 12.5078 12.9297C12.5078 8.32031 14.5391 5.66406 17.9375 5.66406C21.3164 5.66406 23.3672 8.32031 23.3672 12.9297C23.3672 17.5586 21.3359 20.1953 17.9375 20.1953ZM17.9375 18.0664C19.7148 18.0664 20.8086 16.3281 20.8086 12.9297C20.8086 9.55078 19.6953 7.77344 17.9375 7.77344C16.1797 7.77344 15.0664 9.55078 15.0664 12.9297C15.0664 16.3281 16.1602 18.0664 17.9375 18.0664ZM24.9961 20V18.1641L29.9961 13.3398C31.4219 11.9141 32.1641 11.0742 32.1641 9.88281C32.1641 8.57422 31.1289 7.73438 29.7422 7.73438C28.2773 7.73438 27.3398 8.65234 27.3594 10.0781H24.9375C24.918 7.40234 26.9297 5.66406 29.7617 5.66406C32.6523 5.66406 34.6055 7.38281 34.6055 9.76562C34.6055 11.3672 33.8242 12.6562 31.0508 15.2734L28.5312 17.7734V17.8711H34.8203V20H24.9961ZM41.5664 20.1953C38.7344 20.1953 36.6641 18.5156 36.5859 16.1719H39.0664C39.1445 17.3242 40.2188 18.1445 41.5664 18.1445C43.1484 18.1445 44.2812 16.9922 44.2812 15.4297C44.2812 13.8086 43.1094 12.6562 41.4883 12.6562C40.3945 12.6367 39.5938 13.0273 39.1445 13.8672H36.7812L37.6406 5.85938H46V7.98828H39.7305L39.3008 11.7383H39.4375C39.9844 11.1133 41.0195 10.6641 42.1719 10.6641C44.8086 10.6641 46.7422 12.6367 46.7422 15.3516C46.7422 18.1836 44.6133 20.1953 41.5664 20.1953Z" fill="#122066"/>
<path d="M63.6667 13C63.6667 15.9455 66.0545 18.3333 69 18.3333C71.9455 18.3333 74.3333 15.9455 74.3333 13C74.3333 10.0545 71.9455 7.66667 69 7.66667C66.0545 7.66667 63.6667 10.0545 63.6667 13ZM68 101C68 101.552 68.4477 102 69 102C69.5523 102 70 101.552 70 101L68 101ZM69 13L68 13L68 101L69 101L70 101L70 13L69 13Z" fill="#B8BCD1"/>
<path d="M1.17188 108V106.164L6.17188 101.34C7.59766 99.9141 8.33984 99.0742 8.33984 97.8828C8.33984 96.5742 7.30469 95.7344 5.91797 95.7344C4.45312 95.7344 3.51562 96.6523 3.53516 98.0781H1.11328C1.09375 95.4023 3.10547 93.6641 5.9375 93.6641C8.82812 93.6641 10.7812 95.3828 10.7812 97.7656C10.7812 99.3672 10 100.656 7.22656 103.273L4.70703 105.773V105.871H10.9961V108H1.17188ZM17.9375 108.195C14.5391 108.195 12.5078 105.559 12.5078 100.93C12.5078 96.3203 14.5391 93.6641 17.9375 93.6641C21.3164 93.6641 23.3672 96.3203 23.3672 100.93C23.3672 105.559 21.3359 108.195 17.9375 108.195ZM17.9375 106.066C19.7148 106.066 20.8086 104.328 20.8086 100.93C20.8086 97.5508 19.6953 95.7734 17.9375 95.7734C16.1797 95.7734 15.0664 97.5508 15.0664 100.93C15.0664 104.328 16.1602 106.066 17.9375 106.066ZM24.9961 108V106.164L29.9961 101.34C31.4219 99.9141 32.1641 99.0742 32.1641 97.8828C32.1641 96.5742 31.1289 95.7344 29.7422 95.7344C28.2773 95.7344 27.3398 96.6523 27.3594 98.0781H24.9375C24.918 95.4023 26.9297 93.6641 29.7617 93.6641C32.6523 93.6641 34.6055 95.3828 34.6055 97.7656C34.6055 99.3672 33.8242 100.656 31.0508 103.273L28.5312 105.773V105.871H34.8203V108H24.9961ZM41.8398 108.195C39.0859 108.176 36.3125 106.535 36.332 101.32C36.332 96.4766 38.5391 93.6641 41.9961 93.6641C44.7305 93.6641 46.6055 95.3828 46.918 97.668H44.3984C44.1445 96.5938 43.2852 95.8711 41.9961 95.8711C39.9453 95.8711 38.793 97.6875 38.793 100.656H38.9297C39.6523 99.4453 41.0195 98.7227 42.5625 98.7227C45.1016 98.7227 47.0547 100.637 47.0547 103.312C47.0547 106.125 44.9648 108.215 41.8398 108.195ZM41.8398 106.145C43.4219 106.145 44.5938 104.914 44.5938 103.371C44.5938 101.867 43.4414 100.656 41.8789 100.656C40.2969 100.656 39.0859 101.906 39.0664 103.391C39.0859 104.875 40.2383 106.145 41.8398 106.145Z" fill="#122066" fill-opacity="0.3"/>
<path d="M63.6667 101C63.6667 103.946 66.0545 106.333 69 106.333C71.9455 106.333 74.3333 103.946 74.3333 101C74.3333 98.0545 71.9455 95.6667 69 95.6667C66.0545 95.6667 63.6667 98.0545 63.6667 101ZM68 189C68 189.552 68.4477 190 69 190C69.5523 190 70 189.552 70 189L68 189ZM69 101L68 101L68 189L69 189L70 189L70 101L69 101Z" fill="#B8BCD1"/>
<path d="M1.17188 196V194.164L6.17188 189.34C7.59766 187.914 8.33984 187.074 8.33984 185.883C8.33984 184.574 7.30469 183.734 5.91797 183.734C4.45312 183.734 3.51562 184.652 3.53516 186.078H1.11328C1.09375 183.402 3.10547 181.664 5.9375 181.664C8.82812 181.664 10.7812 183.383 10.7812 185.766C10.7812 187.367 10 188.656 7.22656 191.273L4.70703 193.773V193.871H10.9961V196H1.17188ZM17.9375 196.195C14.5391 196.195 12.5078 193.559 12.5078 188.93C12.5078 184.32 14.5391 181.664 17.9375 181.664C21.3164 181.664 23.3672 184.32 23.3672 188.93C23.3672 193.559 21.3359 196.195 17.9375 196.195ZM17.9375 194.066C19.7148 194.066 20.8086 192.328 20.8086 188.93C20.8086 185.551 19.6953 183.773 17.9375 183.773C16.1797 183.773 15.0664 185.551 15.0664 188.93C15.0664 192.328 16.1602 194.066 17.9375 194.066ZM24.9961 196V194.164L29.9961 189.34C31.4219 187.914 32.1641 187.074 32.1641 185.883C32.1641 184.574 31.1289 183.734 29.7422 183.734C28.2773 183.734 27.3398 184.652 27.3594 186.078H24.9375C24.918 183.402 26.9297 181.664 29.7617 181.664C32.6523 181.664 34.6055 183.383 34.6055 185.766C34.6055 187.367 33.8242 188.656 31.0508 191.273L28.5312 193.773V193.871H34.8203V196H24.9961ZM37.0742 196L43.207 184.086V183.988H36.0977V181.859H45.8438V184.027L39.7109 196H37.0742Z" fill="#122066" fill-opacity="0.3"/>
<path d="M63.6667 189C63.6667 191.946 66.0545 194.333 69 194.333C71.9455 194.333 74.3333 191.946 74.3333 189C74.3333 186.054 71.9455 183.667 69 183.667C66.0545 183.667 63.6667 186.054 63.6667 189ZM68 277C68 277.552 68.4477 278 69 278C69.5523 278 70 277.552 70 277L68 277ZM69 189L68 189L68 277L69 277L70 277L70 189L69 189Z" fill="url(#paint0_linear_177_523)"/>
<defs>
<linearGradient id="paint0_linear_177_523" x1="69.5" y1="189" x2="69.5" y2="277" gradientUnits="userSpaceOnUse">
<stop stop-color="#CBCEDD"/>
<stop offset="1" stop-color="#CBCEDD" stop-opacity="0"/>
</linearGradient>
</defs>
</svg>
