<svg width="24" height="25" viewBox="0 0 24 25" fill="none" xmlns="http://www.w3.org/2000/svg">
<path d="M19.9996 14.2299C20.3027 14.0541 20.5543 13.8017 20.7292 13.4981C20.904 13.1945 20.9961 12.8503 20.9961 12.4999C20.9961 12.1495 20.904 11.8053 20.7292 11.5017C20.5543 11.1981 20.3027 10.9457 19.9996 10.7699L5.99964 2.7699C5.69575 2.59445 5.35105 2.50204 5.00015 2.50195C4.64925 2.50186 4.3045 2.5941 4.00052 2.76939C3.69655 2.94468 3.44404 3.19687 3.26835 3.50062C3.09267 3.80437 3 4.149 2.99964 4.4999V20.4999C3 20.8508 3.09267 21.1954 3.26835 21.4992C3.44404 21.8029 3.69655 22.0551 4.00052 22.2304C4.3045 22.4057 4.64925 22.4979 5.00015 22.4979C5.35105 22.4978 5.69575 22.4054 5.99964 22.2299L19.9996 14.2299Z" fill="#122066" fill-opacity="0.3"/>
</svg>
