<!-- <svg width="20" height="20" viewBox="0 0 20 20" fill="none" xmlns="http://www.w3.org/2000/svg">
<path d="M7.5 15L12.5 10L7.5 5" stroke="white" stroke-linecap="round" stroke-linejoin="round"/>
</svg> -->

<svg width="24" height="25" viewBox="0 0 24 25" fill="none" xmlns="http://www.w3.org/2000/svg">
<path d="M19.9996 14.23C20.3027 14.0542 20.5543 13.8019 20.7292 13.4983C20.904 13.1946 20.9961 12.8504 20.9961 12.5C20.9961 12.1496 20.904 11.8054 20.7292 11.5018C20.5543 11.1982 20.3027 10.9458 19.9996 10.77L5.99964 2.77003C5.69575 2.59458 5.35105 2.50217 5.00015 2.50208C4.64925 2.50199 4.3045 2.59422 4.00052 2.76951C3.69655 2.94481 3.44404 3.19699 3.26835 3.50074C3.09267 3.8045 3 4.14913 2.99964 4.50003V20.5C3 20.8509 3.09267 21.1956 3.26835 21.4993C3.44404 21.8031 3.69655 22.0552 4.00052 22.2305C4.3045 22.4058 4.64925 22.4981 5.00015 22.498C5.35105 22.4979 5.69575 22.4055 5.99964 22.23L19.9996 14.23Z" fill="#122066" fill-opacity="0.3"/>
</svg>
