<svg width="512" height="512" viewBox="0 0 512 512" fill="none" xmlns="http://www.w3.org/2000/svg">
<g filter="url(#filter0_ii_215_725)">
<path d="M52.8924 112.404C51.295 103.344 57.4575 96.0001 66.6569 96.0001C112.654 96.0001 156.416 132.721 164.403 178.019L191.737 333.035C199.724 378.333 168.911 415.054 122.915 415.054C113.715 415.054 104.963 407.71 103.365 398.65L52.8924 112.404Z" fill="url(#paint0_linear_215_725)"/>
<path d="M52.8924 112.404C51.295 103.344 57.4575 96.0001 66.6569 96.0001C112.654 96.0001 156.416 132.721 164.403 178.019L191.737 333.035C199.724 378.333 168.911 415.054 122.915 415.054C113.715 415.054 104.963 407.71 103.365 398.65L52.8924 112.404Z" fill="url(#paint1_linear_215_725)" fill-opacity="0.5" style="mix-blend-mode:overlay"/>
<path d="M52.8924 112.404C51.295 103.344 57.4575 96.0001 66.6569 96.0001C112.654 96.0001 156.416 132.721 164.403 178.019L191.737 333.035C199.724 378.333 168.911 415.054 122.915 415.054C113.715 415.054 104.963 407.71 103.365 398.65L52.8924 112.404Z" fill="url(#paint2_linear_215_725)" fill-opacity="0.5" style="mix-blend-mode:soft-light"/>
</g>
<g filter="url(#filter1_ii_215_725)">
<path d="M433.941 96.0001C443.14 96.0001 451.893 103.344 453.49 112.404L459.275 145.211C460.872 154.271 454.71 161.615 445.51 161.615H438.859C427.814 161.615 420.414 170.434 422.332 181.311L460.8 399.471C462.397 408.53 456.235 415.874 447.035 415.874H268.807C259.607 415.874 250.855 408.53 249.257 399.471L243.473 366.663C241.875 357.603 248.038 350.259 257.237 350.259H332.181C343.227 350.259 350.626 341.441 348.708 330.563L344.808 308.441C342.889 297.563 332.38 288.745 321.335 288.745H245.558C236.358 288.745 227.606 281.401 226.008 272.341L220.223 239.533C218.626 230.474 224.789 223.13 233.988 223.13H309.765C320.811 223.13 328.21 214.311 326.292 203.433L322.391 181.311C320.473 170.434 309.964 161.615 298.918 161.615H223.974C214.775 161.615 206.022 154.271 204.425 145.211L198.64 112.404C197.042 103.344 203.205 96.0001 212.404 96.0001H433.941Z" fill="url(#paint3_linear_215_725)"/>
<path d="M433.941 96.0001C443.14 96.0001 451.893 103.344 453.49 112.404L459.275 145.211C460.872 154.271 454.71 161.615 445.51 161.615H438.859C427.814 161.615 420.414 170.434 422.332 181.311L460.8 399.471C462.397 408.53 456.235 415.874 447.035 415.874H268.807C259.607 415.874 250.855 408.53 249.257 399.471L243.473 366.663C241.875 357.603 248.038 350.259 257.237 350.259H332.181C343.227 350.259 350.626 341.441 348.708 330.563L344.808 308.441C342.889 297.563 332.38 288.745 321.335 288.745H245.558C236.358 288.745 227.606 281.401 226.008 272.341L220.223 239.533C218.626 230.474 224.789 223.13 233.988 223.13H309.765C320.811 223.13 328.21 214.311 326.292 203.433L322.391 181.311C320.473 170.434 309.964 161.615 298.918 161.615H223.974C214.775 161.615 206.022 154.271 204.425 145.211L198.64 112.404C197.042 103.344 203.205 96.0001 212.404 96.0001H433.941Z" fill="url(#paint4_linear_215_725)" fill-opacity="0.5" style="mix-blend-mode:overlay"/>
<path d="M433.941 96.0001C443.14 96.0001 451.893 103.344 453.49 112.404L459.275 145.211C460.872 154.271 454.71 161.615 445.51 161.615H438.859C427.814 161.615 420.414 170.434 422.332 181.311L460.8 399.471C462.397 408.53 456.235 415.874 447.035 415.874H268.807C259.607 415.874 250.855 408.53 249.257 399.471L243.473 366.663C241.875 357.603 248.038 350.259 257.237 350.259H332.181C343.227 350.259 350.626 341.441 348.708 330.563L344.808 308.441C342.889 297.563 332.38 288.745 321.335 288.745H245.558C236.358 288.745 227.606 281.401 226.008 272.341L220.223 239.533C218.626 230.474 224.789 223.13 233.988 223.13H309.765C320.811 223.13 328.21 214.311 326.292 203.433L322.391 181.311C320.473 170.434 309.964 161.615 298.918 161.615H223.974C214.775 161.615 206.022 154.271 204.425 145.211L198.64 112.404C197.042 103.344 203.205 96.0001 212.404 96.0001H433.941Z" fill="url(#paint5_linear_215_725)" fill-opacity="0.5" style="mix-blend-mode:soft-light"/>
</g>
<defs>
<filter id="filter0_ii_215_725" x="52.6404" y="92.0001" width="144.357" height="327.054" filterUnits="userSpaceOnUse" color-interpolation-filters="sRGB">
<feFlood flood-opacity="0" result="BackgroundImageFix"/>
<feBlend mode="normal" in="SourceGraphic" in2="BackgroundImageFix" result="shape"/>
<feColorMatrix in="SourceAlpha" type="matrix" values="0 0 0 0 0 0 0 0 0 0 0 0 0 0 0 0 0 0 127 0" result="hardAlpha"/>
<feOffset dx="4" dy="4"/>
<feGaussianBlur stdDeviation="10"/>
<feComposite in2="hardAlpha" operator="arithmetic" k2="-1" k3="1"/>
<feColorMatrix type="matrix" values="0 0 0 0 0.960784 0 0 0 0 0.960784 0 0 0 0 0.960784 0 0 0 0.25 0"/>
<feBlend mode="normal" in2="shape" result="effect1_innerShadow_215_725"/>
<feColorMatrix in="SourceAlpha" type="matrix" values="0 0 0 0 0 0 0 0 0 0 0 0 0 0 0 0 0 0 127 0" result="hardAlpha"/>
<feOffset dy="-4"/>
<feGaussianBlur stdDeviation="10"/>
<feComposite in2="hardAlpha" operator="arithmetic" k2="-1" k3="1"/>
<feColorMatrix type="matrix" values="0 0 0 0 1 0 0 0 0 1 0 0 0 0 1 0 0 0 0.25 0"/>
<feBlend mode="normal" in2="effect1_innerShadow_215_725" result="effect2_innerShadow_215_725"/>
</filter>
<filter id="filter1_ii_215_725" x="198.388" y="92.0001" width="266.664" height="327.874" filterUnits="userSpaceOnUse" color-interpolation-filters="sRGB">
<feFlood flood-opacity="0" result="BackgroundImageFix"/>
<feBlend mode="normal" in="SourceGraphic" in2="BackgroundImageFix" result="shape"/>
<feColorMatrix in="SourceAlpha" type="matrix" values="0 0 0 0 0 0 0 0 0 0 0 0 0 0 0 0 0 0 127 0" result="hardAlpha"/>
<feOffset dx="4" dy="4"/>
<feGaussianBlur stdDeviation="10"/>
<feComposite in2="hardAlpha" operator="arithmetic" k2="-1" k3="1"/>
<feColorMatrix type="matrix" values="0 0 0 0 0.960784 0 0 0 0 0.960784 0 0 0 0 0.960784 0 0 0 0.25 0"/>
<feBlend mode="normal" in2="shape" result="effect1_innerShadow_215_725"/>
<feColorMatrix in="SourceAlpha" type="matrix" values="0 0 0 0 0 0 0 0 0 0 0 0 0 0 0 0 0 0 127 0" result="hardAlpha"/>
<feOffset dy="-4"/>
<feGaussianBlur stdDeviation="10"/>
<feComposite in2="hardAlpha" operator="arithmetic" k2="-1" k3="1"/>
<feColorMatrix type="matrix" values="0 0 0 0 1 0 0 0 0 1 0 0 0 0 1 0 0 0 0.25 0"/>
<feBlend mode="normal" in2="effect1_innerShadow_215_725" result="effect2_innerShadow_215_725"/>
</filter>
<linearGradient id="paint0_linear_215_725" x1="47.9606" y1="90.0154" x2="300.313" y2="225.2" gradientUnits="userSpaceOnUse">
<stop stop-color="#BCC3D6"/>
<stop offset="1" stop-color="#122066"/>
</linearGradient>
<linearGradient id="paint1_linear_215_725" x1="53.4394" y1="102.483" x2="190.418" y2="101.672" gradientUnits="userSpaceOnUse">
<stop stop-color="white" stop-opacity="0"/>
<stop offset="1" stop-color="white"/>
</linearGradient>
<linearGradient id="paint2_linear_215_725" x1="53.4394" y1="102.483" x2="190.418" y2="101.672" gradientUnits="userSpaceOnUse">
<stop stop-color="white" stop-opacity="0"/>
<stop offset="1" stop-color="white"/>
</linearGradient>
<linearGradient id="paint3_linear_215_725" x1="191.339" y1="90.0001" x2="416.411" y2="459.254" gradientUnits="userSpaceOnUse">
<stop stop-color="#BCC3D6"/>
<stop offset="1" stop-color="#122066"/>
</linearGradient>
<linearGradient id="paint4_linear_215_725" x1="201.935" y1="102.5" x2="530.433" y2="187.419" gradientUnits="userSpaceOnUse">
<stop stop-color="white" stop-opacity="0"/>
<stop offset="1" stop-color="white"/>
</linearGradient>
<linearGradient id="paint5_linear_215_725" x1="201.935" y1="102.5" x2="530.433" y2="187.419" gradientUnits="userSpaceOnUse">
<stop stop-color="white" stop-opacity="0"/>
<stop offset="1" stop-color="white"/>
</linearGradient>
</defs>
</svg>
