<svg width="24" height="24" viewBox="0 0 24 24" fill="none" xmlns="http://www.w3.org/2000/svg">
<path d="M20.0303 17C20.1007 16.2865 20.284 15.6909 20.4726 15.0781C20.739 14.2128 21.0158 13.3134 21 12C20.97 9.28 19.51 6 16.5 6C14.63 6 14 7.8 14 9.5C14 11.0664 14.5074 12.4908 15.011 13.9047C15.3746 14.9254 15.7363 15.9407 15.9037 17M20.0303 17C20.0108 17.1968 20 17.4025 20 17.62V20C20 20.5304 19.7893 21.0391 19.4142 21.4142C19.0391 21.7893 18.5304 22 18 22C17.4696 22 16.9609 21.7893 16.5858 21.4142C16.2107 21.0391 16 20.5304 16 20V18.18C16 17.7792 15.9648 17.3867 15.9037 17M20.0303 17H15.9037M4.00003 13H8.00003M4.00003 16V13.62C4.00003 11.5 2.97003 10.5 3.00003 8C3.03003 5.28 4.49003 2 7.50003 2C9.37003 2 10 3.8 10 5.5C10 8.61 8.00003 11.16 8.00003 14.18V16C8.00003 16.5304 7.78932 17.0391 7.41425 17.4142C7.03917 17.7893 6.53047 18 6.00003 18C5.4696 18 4.96089 17.7893 4.58582 17.4142C4.21075 17.0391 4.00003 16.5304 4.00003 16Z" stroke="#111111" stroke-width="1.5" stroke-linecap="round" stroke-linejoin="round"/>
</svg>
