<svg width="40" height="40" viewBox="0 0 40 40" fill="none" xmlns="http://www.w3.org/2000/svg">
<path d="M26.6666 28.3334H33.3333M6.66664 21.6667H13.3333M6.66664 26.6667V22.7C6.66664 19.1667 4.94997 17.5 4.99997 13.3334C5.04997 8.80004 7.48331 3.33337 12.5 3.33337C15.6166 3.33337 16.6666 6.33337 16.6666 9.16671C16.6666 14.35 13.3333 18.6 13.3333 23.6334V26.6667C13.3333 27.5508 12.9821 28.3986 12.357 29.0237C11.7319 29.6488 10.884 30 9.99997 30C9.11592 30 8.26807 29.6488 7.64295 29.0237C7.01783 28.3986 6.66664 27.5508 6.66664 26.6667ZM33.3333 33.3334V29.3667C33.3333 25.8334 35.05 24.1667 35 20C34.95 15.4667 32.5166 10 27.5 10C24.3833 10 23.3333 13 23.3333 15.8334C23.3333 21.0167 26.6666 25.2667 26.6666 30.3V33.3334C26.6666 34.2174 27.0178 35.0653 27.643 35.6904C28.2681 36.3155 29.1159 36.6667 30 36.6667C30.884 36.6667 31.7319 36.3155 32.357 35.6904C32.9821 35.0653 33.3333 34.2174 33.3333 33.3334Z" stroke="currentColor" stroke-width="2" stroke-linecap="round" stroke-linejoin="round"/>
</svg>
