<svg width="40" height="40" viewBox="0 0 40 40" fill="none" xmlns="http://www.w3.org/2000/svg">
<path d="M23.0533 27.6134C23.3975 27.7715 23.7853 27.8076 24.1528 27.7158C24.5203 27.624 24.8455 27.4097 25.075 27.1084L25.6666 26.3334C25.9771 25.9194 26.3797 25.5834 26.8426 25.3519C27.3054 25.1205 27.8158 25 28.3333 25H33.3333C34.2174 25 35.0652 25.3512 35.6903 25.9763C36.3155 26.6015 36.6666 27.4493 36.6666 28.3334V33.3334C36.6666 34.2174 36.3155 35.0653 35.6903 35.6904C35.0652 36.3155 34.2174 36.6667 33.3333 36.6667C25.3768 36.6667 17.7462 33.506 12.1201 27.8799C6.49402 22.2538 3.33331 14.6232 3.33331 6.66671C3.33331 5.78265 3.6845 4.93481 4.30962 4.30968C4.93474 3.68456 5.78259 3.33337 6.66665 3.33337H11.6666C12.5507 3.33337 13.3985 3.68456 14.0237 4.30968C14.6488 4.93481 15 5.78265 15 6.66671V11.6667C15 12.1842 14.8795 12.6946 14.6481 13.1574C14.4166 13.6203 14.0806 14.0229 13.6666 14.3334L12.8866 14.9184C12.5807 15.152 12.365 15.4843 12.2763 15.859C12.1876 16.2336 12.2313 16.6273 12.4 16.9734C14.6778 21.5998 18.424 25.3414 23.0533 27.6134Z" stroke="#122066" stroke-width="2" stroke-linecap="round" stroke-linejoin="round"/>
</svg>
