<svg width="40" height="40" viewBox="0 0 40 40" fill="none" xmlns="http://www.w3.org/2000/svg">
<path d="M38.1568 11.0656C37.9403 10.278 37.5164 9.55993 36.9273 8.98322C36.3382 8.4065 35.6047 7.99141 34.8002 7.77951C32.6015 6.94841 11.3043 6.54123 5.12632 7.80332C4.32179 8.01525 3.58824 8.43039 2.99913 9.00717C2.41002 9.58396 1.98603 10.3021 1.7696 11.0898C0.777236 15.3523 0.701901 24.5677 1.79392 28.9254C2.0104 29.713 2.43442 30.4311 3.02352 31.0078C3.61263 31.5846 4.34615 31.9997 5.15064 32.2116C9.50439 33.1926 30.2032 33.3307 34.8246 32.2116C35.629 31.9997 36.3625 31.5846 36.9516 31.0078C37.5407 30.4311 37.9647 29.713 38.1811 28.9254C39.2392 24.2816 39.3145 15.6378 38.1568 11.0656Z" stroke="currentColor" stroke-width="2" stroke-linecap="round" stroke-linejoin="round"/>
<path d="M26 20L16 14V26L26 20Z" stroke="currentColor" stroke-width="2" stroke-linecap="round" stroke-linejoin="round"/>
</svg>
