<svg width="526" height="144" viewBox="0 0 526 144" fill="none" xmlns="http://www.w3.org/2000/svg">
<path d="M30.1936 113.177V100.473H34.1362C36.076 100.473 37.56 100.97 38.5881 101.966C39.6113 102.962 40.1254 104.46 40.1254 106.466V106.857C40.1254 108.897 39.6307 110.459 38.6414 111.547C37.6521 112.636 36.1633 113.177 34.175 113.177H30.1936ZM32.0898 111.581H34.209C35.5474 111.581 36.527 111.23 37.1478 110.522C37.7685 109.819 38.0789 108.672 38.0789 107.091V106.461C38.0789 104.856 37.7394 103.718 37.0653 103.059C36.3913 102.4 35.3632 102.069 33.9859 102.069H32.0898V111.581Z" fill="#555555"/>
<path d="M46.2258 113.177V100.473H48.1414V113.177H46.2258Z" fill="#555555"/>
<path d="M60.173 113.382C58.2914 113.382 56.8317 112.87 55.789 111.845C54.7464 110.82 54.2227 109.239 54.2227 107.096V106.725C54.2227 105.549 54.3875 104.533 54.7124 103.674C55.0373 102.815 55.4932 102.147 56.0751 101.663C56.6571 101.18 57.3021 100.824 58.0004 100.599C58.6987 100.37 59.4698 100.258 60.3039 100.258C61.5793 100.258 62.7092 100.512 63.6937 101.019V102.615C62.5153 102.108 61.3708 101.854 60.2651 101.854C58.8539 101.854 57.8306 102.288 57.1954 103.152C56.5601 104.016 56.2449 105.129 56.2449 106.491V107.086C56.2449 108.609 56.5358 109.775 57.1129 110.591C57.69 111.406 58.7181 111.816 60.1924 111.816C61.0895 111.816 61.7975 111.713 62.3116 111.498V108.384H59.8044V106.862H64.2077V112.631C62.9905 113.138 61.6472 113.392 60.173 113.392V113.382Z" fill="#555555"/>
<path d="M70.585 113.177V100.473H72.5005V113.177H70.585Z" fill="#555555"/>
<path d="M81.9377 113.177V102.069H78.2327V100.473H87.5V102.069H83.8338V113.177H81.9377Z" fill="#555555"/>
<path d="M91.9275 113.177L96.4956 100.473H98.4112L102.945 113.177H100.957L99.74 109.727H94.9099L93.712 113.177H91.9226H91.9275ZM97.2716 102.884L95.4288 108.209H99.1871L97.3249 102.884H97.2716Z" fill="#555555"/>
<path d="M108.401 113.177V100.473H110.298V111.581H115.773V113.177H108.401Z" fill="#555555"/>
<path d="M130.18 113.177V100.473H137.847V102.069H132.081V105.851H136.557V107.428H132.081V111.581H137.925V113.177H130.185H130.18Z" fill="#555555"/>
<path d="M144.224 113.177V100.473H148.167C150.107 100.473 151.591 100.97 152.619 101.966C153.642 102.962 154.156 104.46 154.156 106.466V106.857C154.156 108.897 153.661 110.459 152.672 111.547C151.683 112.636 150.194 113.177 148.206 113.177H144.224ZM146.121 111.581H148.24C149.578 111.581 150.558 111.23 151.179 110.522C151.799 109.819 152.11 108.672 152.11 107.091V106.461C152.11 104.856 151.77 103.718 151.096 103.059C150.422 102.4 149.394 102.069 148.017 102.069H146.121V111.581Z" fill="#555555"/>
<path d="M168.419 112.26C167.657 113.021 166.489 113.402 164.917 113.402C163.346 113.402 162.148 113.016 161.324 112.24C160.499 111.464 160.087 110.303 160.087 108.746V100.473H162.042V108.633C162.042 109.844 162.279 110.698 162.759 111.191C163.239 111.684 163.981 111.933 164.99 111.933C165.999 111.933 166.707 111.689 167.153 111.201C167.599 110.713 167.827 109.849 167.827 108.614V100.473H169.558V108.687C169.558 110.307 169.175 111.498 168.414 112.26H168.419Z" fill="#555555"/>
<path d="M181.134 113.382C179.378 113.382 178.006 112.845 177.017 111.767C176.027 110.693 175.533 109.102 175.533 106.998V106.554C175.533 105.441 175.683 104.47 175.984 103.64C176.284 102.81 176.706 102.156 177.254 101.673C177.802 101.19 178.413 100.834 179.097 100.599C179.781 100.365 180.537 100.248 181.371 100.248C182.598 100.248 183.651 100.477 184.524 100.936V102.493C183.345 102.059 182.298 101.844 181.391 101.844C180.212 101.844 179.281 102.21 178.598 102.937C177.914 103.67 177.574 104.787 177.574 106.295V106.984C177.574 110.185 178.864 111.786 181.444 111.786C182.511 111.786 183.588 111.533 184.669 111.025V112.582C183.733 113.114 182.555 113.378 181.129 113.378L181.134 113.382Z" fill="#555555"/>
<path d="M189.295 113.177L193.864 100.473H195.779L200.313 113.177H198.325L197.108 109.727H192.278L191.08 113.177H189.291H189.295ZM194.639 102.884L192.797 108.209H196.555L194.693 102.884H194.639Z" fill="#555555"/>
<path d="M208.427 113.177V102.069H204.722V100.473H213.989V102.069H210.323V113.177H208.427Z" fill="#555555"/>
<path d="M219.721 113.177V100.473H221.637V113.177H219.721Z" fill="#555555"/>
<path d="M237.46 111.694C236.447 112.821 235.07 113.382 233.324 113.382C231.578 113.382 230.21 112.831 229.216 111.733C228.222 110.634 227.723 109.053 227.723 107.003V106.632C227.723 104.641 228.232 103.079 229.25 101.947C230.269 100.814 231.651 100.248 233.397 100.248C235.142 100.248 236.51 100.8 237.499 101.898C238.488 102.996 238.983 104.582 238.983 106.647V107.018C238.983 109.009 238.479 110.566 237.465 111.694H237.46ZM233.377 111.86C234.546 111.86 235.428 111.44 236.03 110.605C236.631 109.771 236.932 108.663 236.932 107.276V106.666C236.932 103.425 235.719 101.8 233.3 101.79C232.131 101.79 231.253 102.205 230.657 103.035C230.06 103.865 229.764 104.963 229.764 106.334V106.984C229.764 110.234 230.967 111.86 233.377 111.86Z" fill="#555555"/>
<path d="M245.026 113.177V100.473H247.218L252.785 109.985H252.838V100.473H254.55V113.177H252.635L246.811 103.108H246.738V113.177H245.026Z" fill="#555555"/>
<path d="M260.025 113.177L264.594 100.473H266.509L271.043 113.177H269.055L267.838 109.727H263.008L261.81 113.177H260.021H260.025ZM265.37 102.884L263.527 108.209H267.285L265.423 102.884H265.37Z" fill="#555555"/>
<path d="M276.499 113.177V100.473H278.395V111.581H283.87V113.177H276.499Z" fill="#555555"/>
<path d="M300.935 113.177V102.069H297.23V100.473H306.498V102.069H302.832V113.177H300.935Z" fill="#555555"/>
<path d="M312.177 113.177V100.473H319.844V102.069H314.078V105.851H318.554V107.428H314.078V111.581H319.921V113.177H312.181H312.177Z" fill="#555555"/>
<path d="M331.119 113.382C329.363 113.382 327.991 112.845 327.001 111.767C326.012 110.693 325.517 109.102 325.517 106.998V106.554C325.517 105.441 325.668 104.47 325.968 103.64C326.269 102.81 326.691 102.156 327.239 101.673C327.787 101.19 328.398 100.834 329.082 100.599C329.766 100.365 330.522 100.248 331.356 100.248C332.583 100.248 333.635 100.477 334.508 100.936V102.493C333.33 102.059 332.282 101.844 331.376 101.844C330.197 101.844 329.266 102.21 328.582 102.937C327.898 103.67 327.559 104.787 327.559 106.295V106.984C327.559 110.185 328.849 111.786 331.429 111.786C332.496 111.786 333.572 111.533 334.654 111.025V112.582C333.718 113.114 332.539 113.378 331.114 113.378L331.119 113.382Z" fill="#555555"/>
<path d="M340.536 113.177V100.473H342.432V105.832H348.218V100.473H350.133V113.177H348.218V107.408H342.432V113.177H340.536Z" fill="#555555"/>
<path d="M356.86 113.177V100.473H359.052L364.619 109.985H364.672V100.473H366.384V113.177H364.468L358.644 103.108H358.572V113.177H356.86Z" fill="#555555"/>
<path d="M382.154 111.694C381.141 112.821 379.764 113.382 378.018 113.382C376.272 113.382 374.905 112.831 373.91 111.733C372.916 110.634 372.417 109.053 372.417 107.003V106.632C372.417 104.641 372.926 103.079 373.944 101.947C374.963 100.814 376.345 100.248 378.091 100.248C379.836 100.248 381.204 100.8 382.193 101.898C383.183 102.996 383.677 104.582 383.677 106.647V107.018C383.677 109.009 383.173 110.566 382.159 111.694H382.154ZM378.071 111.86C379.24 111.86 380.123 111.44 380.724 110.605C381.325 109.771 381.626 108.663 381.626 107.276V106.666C381.626 103.425 380.414 101.8 377.994 101.79C376.825 101.79 375.947 102.205 375.351 103.035C374.754 103.865 374.458 104.963 374.458 106.334V106.984C374.458 110.234 375.661 111.86 378.071 111.86Z" fill="#555555"/>
<path d="M389.72 113.177V100.473H391.616V111.581H397.091V113.177H389.72Z" fill="#555555"/>
<path d="M411.916 111.694C410.902 112.821 409.525 113.382 407.779 113.382C406.034 113.382 404.666 112.831 403.672 111.733C402.678 110.634 402.178 109.053 402.178 107.003V106.632C402.178 104.641 402.687 103.079 403.706 101.947C404.724 100.814 406.106 100.248 407.852 100.248C409.598 100.248 410.965 100.8 411.955 101.898C412.944 102.996 413.439 104.582 413.439 106.647V107.018C413.439 109.009 412.934 110.566 411.921 111.694H411.916ZM407.833 111.86C409.001 111.86 409.884 111.44 410.485 110.605C411.087 109.771 411.387 108.663 411.387 107.276V106.666C411.387 103.425 410.175 101.8 407.755 101.79C406.586 101.79 405.709 102.205 405.112 103.035C404.516 103.865 404.22 104.963 404.22 106.334V106.984C404.22 110.234 405.422 111.86 407.833 111.86Z" fill="#555555"/>
<path d="M424.733 113.382C422.851 113.382 421.392 112.87 420.349 111.845C419.306 110.82 418.783 109.239 418.783 107.096V106.725C418.783 105.549 418.948 104.533 419.273 103.674C419.597 102.815 420.053 102.147 420.635 101.663C421.217 101.18 421.862 100.824 422.56 100.599C423.259 100.37 424.03 100.258 424.864 100.258C426.139 100.258 427.269 100.512 428.254 101.019V102.615C427.075 102.108 425.931 101.854 424.825 101.854C423.414 101.854 422.391 102.288 421.755 103.152C421.12 104.016 420.805 105.129 420.805 106.491V107.086C420.805 108.609 421.096 109.775 421.673 110.591C422.25 111.406 423.278 111.816 424.752 111.816C425.65 111.816 426.358 111.713 426.872 111.498V108.384H424.364V106.862H428.768V112.631C427.551 113.138 426.207 113.392 424.733 113.392V113.382Z" fill="#555555"/>
<path d="M437.943 113.177V108.262L433.835 100.473H435.863L438.976 106.461H439.029L442.089 100.473H443.932L439.839 108.262V113.177H437.943Z" fill="#555555"/>
<path d="M458.03 113.177V100.473H459.926V111.581H465.401V113.177H458.03Z" fill="#555555"/>
<path d="M469.935 113.177L474.503 100.473H476.419L480.953 113.177H478.965L477.748 109.727H472.917L471.72 113.177H469.93H469.935ZM475.279 102.884L473.436 108.209H477.195L475.333 102.884H475.279Z" fill="#555555"/>
<path d="M486.409 113.177V100.473H490.536C493.285 100.473 494.663 101.537 494.663 103.665C494.663 105.075 493.969 105.998 492.582 106.427V106.52C494.328 106.842 495.201 107.857 495.201 109.561C495.201 110.649 494.827 111.523 494.085 112.187C493.343 112.85 492.272 113.177 490.87 113.177H486.409ZM488.31 105.924H490.206C491.889 105.924 492.732 105.266 492.732 103.938C492.732 103.22 492.534 102.718 492.141 102.425C491.748 102.137 491.142 101.99 490.317 101.99H488.31V105.924ZM488.31 111.655H490.652C492.349 111.655 493.193 110.918 493.193 109.448C493.193 108.707 492.97 108.165 492.529 107.828C492.087 107.486 491.428 107.32 490.555 107.32H488.305V111.659L488.31 111.655Z" fill="#555555"/>
<path d="M57.8743 63.6235L58.689 68.602C53.6844 69.6953 46.061 70.281 35.8189 70.3591H29.9995V35.8613H53.5098V40.7226H35.8771V65.2049C45.9252 65.2049 53.2576 64.6778 57.8743 63.6235ZM69.1639 83.186H63.17V31H69.1639V83.186Z" fill="#3D3D3D"/>
<path d="M112.46 66.2006L108.969 70.5934C106.447 69.1877 103.886 67.0206 101.287 64.0921C98.6877 61.1636 96.9807 58.4108 96.166 55.8337C95.4677 58.7232 93.9255 61.681 91.5396 64.7071C89.1536 67.7332 86.4476 70.0467 83.4215 71.6476L79.6389 67.2549C83.8677 64.873 87.1653 61.6614 89.5319 57.6201C91.8984 53.5788 93.0817 48.9615 93.0817 43.7683V41.1912H82.2576V36.447H109.783V41.1912H99.2503V43.7097C99.2503 48.7858 100.453 53.2566 102.858 57.1223C105.264 60.9879 108.464 64.014 112.46 66.2006ZM122.761 83.186H116.825V31H122.761V83.186Z" fill="#3D3D3D"/>
<path d="M156.629 42.8312V47.5168H141.208V52.4367C149.627 52.4367 156.261 51.9876 161.11 51.0895L161.925 55.7166C157.735 56.6537 151.586 57.1613 143.478 57.2394H135.272V33.5771H158.433V38.3213H141.208V42.8312H156.629ZM177.695 82.7174H142.139V69.5977H170.014V65.6149H142.023V60.7536H175.95V73.9905H148.133V77.9732H177.695V82.7174ZM175.95 58.0594H170.014V47.6925H160.121V42.6555H170.014V31H175.95V58.0594Z" fill="#3D3D3D"/>
<path d="M233.382 75.689H186.536V70.8277H197.476V54.5452H203.47V70.8277H209.93V54.5452H215.924V70.8277H233.382V75.689ZM227.795 36.7399C227.795 48.6882 227.039 58.0399 225.526 64.795L219.823 63.9164C221.103 59.1137 221.743 51.6752 221.743 41.6012H191.948V36.7399H227.795Z" fill="#3D3D3D"/>
<path d="M245.254 66.0835H251.946V59.6993H239.783V54.8966H286.629V59.6993H274.292V66.0835H280.577V83.3617H274.642V70.8277H245.254V66.0835ZM281.159 41.484C281.159 44.4516 279.578 46.8432 276.416 48.6589C273.255 50.4746 268.861 51.3824 263.236 51.3824C257.61 51.3824 253.216 50.4746 250.055 48.6589C246.893 46.8432 245.312 44.4516 245.312 41.484C245.312 38.5165 246.893 36.1249 250.055 34.3092C253.216 32.4935 257.591 31.5857 263.177 31.5857C268.764 31.5857 273.255 32.4838 276.416 34.2799C279.578 36.0761 281.159 38.4774 281.159 41.484ZM275.049 41.484C275.049 39.8441 274.001 38.5555 271.906 37.6184C269.811 36.6813 266.902 36.2127 263.177 36.2127C259.453 36.2127 256.601 36.6813 254.506 37.6184C252.411 38.5555 251.364 39.8441 251.364 41.484C251.364 43.124 252.411 44.3637 254.506 45.3204C256.601 46.277 259.492 46.7554 263.177 46.7554C266.863 46.7554 269.714 46.277 271.848 45.3204C273.982 44.3637 275.049 43.085 275.049 41.484ZM257.882 59.6993V66.0835H268.357V59.6993H257.882Z" fill="#3D3D3D"/>
<path d="M339.877 58.8793H293.031V54.1352H311.245V44.8225H317.239V54.1352H339.877V58.8793ZM329.343 66.0542C332.486 67.8308 334.057 70.2419 334.057 73.2876C334.057 76.3332 332.486 78.7346 329.343 80.4917C326.201 82.2488 321.778 83.1274 316.075 83.1274C310.372 83.1274 305.93 82.2391 302.749 80.4624C299.568 78.6858 297.977 76.2942 297.977 73.2876C297.977 70.281 299.568 67.8308 302.749 66.0542C305.93 64.2776 310.372 63.3892 316.075 63.3892C321.778 63.3892 326.201 64.2776 329.343 66.0542ZM333.824 33.0499C334.018 39.8831 333.495 45.9939 332.253 51.3824L326.492 50.5624C327.501 46.5015 327.947 42.265 327.83 37.8527H298.559V33.0499H333.824ZM316.075 68.2506C312.351 68.2506 309.432 68.6898 307.317 69.5684C305.203 70.4469 304.146 71.6867 304.146 73.2876C304.146 74.8885 305.203 76.177 307.317 77.0361C309.432 77.8951 312.351 78.3246 316.075 78.3246C319.8 78.3246 322.709 77.8951 324.804 77.0361C326.899 76.177 327.947 74.9276 327.947 73.2876C327.947 71.6476 326.89 70.4469 324.775 69.5684C322.661 68.6898 319.761 68.2506 316.075 68.2506Z" fill="#3D3D3D"/>
<path d="M375.899 44.0611H345.871V39.3755H375.899V44.0611ZM373.105 54.7795C373.105 57.3175 371.951 59.3967 369.643 61.0172C367.334 62.6376 364.434 63.4478 360.943 63.4478C357.451 63.4478 354.532 62.6376 352.185 61.0172C349.837 59.3967 348.664 57.3175 348.664 54.7795C348.664 52.2414 349.828 50.045 352.156 48.4246C354.483 46.8042 357.412 45.9939 360.943 45.9939C364.473 45.9939 367.334 46.8042 369.643 48.4246C371.951 50.045 373.105 52.1633 373.105 54.7795ZM352.737 66.0835H386.606V83.2445H380.612V70.8862H352.737V66.0835ZM353.378 36.3884V31.5857H368.566V36.3884H353.378ZM367.169 54.7795C367.169 53.569 366.558 52.5733 365.336 51.7924C364.114 51.0115 362.65 50.621 360.943 50.621C359.236 50.621 357.703 51.0115 356.462 51.7924C355.22 52.5733 354.6 53.569 354.6 54.7795C354.6 55.9899 355.23 56.927 356.491 57.708C357.752 58.4889 359.236 58.8794 360.943 58.8794C362.65 58.8794 364.114 58.4889 365.336 57.708C366.558 56.927 367.169 55.9509 367.169 54.7795ZM394.171 49.7424H386.548V63.3307H380.554V31H386.548V44.8225H394.171V49.7424Z" fill="#3D3D3D"/>
<path d="M425.596 56.9466L422.57 61.3979C420.669 60.4998 418.739 59.0453 416.78 57.0344C414.821 55.0235 413.492 53.1005 412.794 51.2653C412.095 53.4519 410.796 55.658 408.895 57.8837C406.994 60.1093 404.899 61.8274 402.61 63.0378C402.222 62.4912 401.63 61.7493 400.835 60.8122C400.039 59.8751 399.487 59.2113 399.176 58.8208C402.396 57.0637 404.967 54.6721 406.887 51.646C408.807 48.6198 409.768 45.2911 409.768 41.6598V35.0999H415.529V41.484C415.529 44.9592 416.499 48.0634 418.438 50.7967C420.378 53.53 422.764 55.5799 425.596 56.9466ZM444.742 81.7217H408.836V65.1464H414.772V76.919H444.742V81.7217ZM433.336 68.2506H427.691V48.9225H421.174V44.0026H427.691V31.9371H433.336V68.2506ZM443.229 69.7734H437.526V31H443.229V69.7734Z" fill="#3D3D3D"/>
<path d="M476.108 49.9767V54.838H460.803V66.3178C469.649 66.3178 476.69 65.7906 481.928 64.7364L482.801 69.4806C477.68 70.5739 470.192 71.1596 460.338 71.2377H454.926V35.6856H478.669V40.4298H460.803V49.9767H476.108ZM495.429 83.186H489.493V55.0723H480.124V50.0939H489.493V31H495.429V83.186Z" fill="#3D3D3D"/>
</svg>
