<svg width="24" height="24" viewBox="0 0 24 24" fill="none" xmlns="http://www.w3.org/2000/svg">
<path d="M12 5.26244C8.56661 2.99484 5.292 2.30103 3.80001 3.80037C2.30066 5.29237 2.99447 8.56698 5.26208 12.0004M12 5.26244C10.7619 6.08013 9.50323 7.10245 8.30001 8.30037C7.10209 9.5036 6.07976 10.7623 5.26208 12.0004M12 5.26244C15.4334 2.99484 18.708 2.30103 20.2 3.80037C21.6994 5.29237 21.0055 8.56697 18.7379 12.0004M12 5.26244C13.2381 6.08013 14.4968 7.10245 15.7 8.30037C16.8979 9.5036 17.9203 10.7623 18.7379 12.0004M5.26208 12.0004C6.07976 13.2384 7.10209 14.4972 8.30001 15.7004C9.50323 16.8983 10.7619 17.9206 12 18.7383M5.26208 12.0004C2.99447 15.4338 2.30066 18.7084 3.80001 20.2004C5.292 21.6997 8.56661 21.0059 12 18.7383M12 18.7383C13.2381 17.9206 14.4968 16.8983 15.7 15.7004C16.8979 14.4972 17.9203 13.2384 18.7379 12.0004M12 18.7383C15.4334 21.0059 18.708 21.6997 20.2 20.2004C21.6994 18.7084 21.0055 15.4338 18.7379 12.0004M13 12.0004C13 12.5527 12.5523 13.0004 12 13.0004C11.4477 13.0004 11 12.5527 11 12.0004C11 11.4481 11.4477 11.0004 12 11.0004C12.5523 11.0004 13 11.4481 13 12.0004Z" stroke="#111111" stroke-width="2" stroke-linecap="round" stroke-linejoin="round"/>
</svg>
