<svg width="24" height="24" viewBox="0 0 24 24" fill="none" xmlns="http://www.w3.org/2000/svg">
<path d="M6.00295 5.12505C5.98511 4.72548 6.04735 4.32637 6.186 3.9512C6.32466 3.57604 6.53694 3.23238 6.81035 2.94045C7.08377 2.64853 7.4128 2.41422 7.77809 2.25132C8.14338 2.08841 8.53756 2.0002 8.93745 1.99186C9.33733 1.98353 9.73485 2.05524 10.1066 2.20278C10.4784 2.35032 10.8169 2.57072 11.1022 2.851C11.3876 3.13128 11.614 3.46579 11.7681 3.83485C11.9223 4.20391 12.0011 4.60008 12 5.00005V18.0001M6.00295 5.12505C5.41515 5.27619 4.86945 5.5591 4.40718 5.95236C3.94491 6.34562 3.57819 6.83892 3.3348 7.3949C3.0914 7.95087 2.97771 8.55495 3.00234 9.16136C3.02697 9.76778 3.18927 10.3606 3.47695 10.8951M6.00295 5.12505C6.02273 5.60878 6.15928 6.08055 6.40095 6.50005M3.47695 10.8951C2.97113 11.306 2.57338 11.8343 2.31829 12.434C2.0632 13.0337 1.95851 13.6866 2.01332 14.336C2.06812 14.9854 2.28077 15.6116 2.63276 16.1601C2.98475 16.7085 3.46542 17.1627 4.03295 17.4831M3.47695 10.8951C3.65989 10.7461 3.85565 10.6145 4.06195 10.5001M4.03295 17.4831C3.96287 18.0253 4.00469 18.5761 4.15584 19.1016C4.30699 19.627 4.56425 20.1159 4.91174 20.538C5.25923 20.9601 5.68956 21.3065 6.17617 21.5558C6.66278 21.8051 7.19533 21.952 7.74093 21.9874C8.28653 22.0228 8.83359 21.946 9.34834 21.7617C9.86308 21.5774 10.3346 21.2895 10.7337 20.9158C11.1328 20.5421 11.4511 20.0906 11.6689 19.5891C11.8867 19.0876 11.9994 18.5468 12 18.0001M4.03295 17.4831C4.63322 17.8216 5.31078 18.0004 5.99995 18.0001M12 18.0001H18C18.5304 18.0001 19.0391 18.2108 19.4142 18.5858C19.7892 18.9609 20 19.4696 20 20.0001V21.0001M8.99995 13.0001C9.83951 12.7047 10.5726 12.167 11.1066 11.4551C11.6406 10.7431 11.9515 9.88872 12 9.00005M12 13.0001H16M12 8.00005H20M16 8.00005V5.00005C16 4.46962 16.2107 3.96091 16.5857 3.58584C16.9608 3.21076 17.4695 3.00005 18 3.00005M16.5 13.0001C16.5 13.2762 16.2761 13.5001 16 13.5001C15.7238 13.5001 15.5 13.2762 15.5 13.0001C15.5 12.7239 15.7238 12.5001 16 12.5001C16.2761 12.5001 16.5 12.7239 16.5 13.0001ZM18.5 3.00005C18.5 3.27619 18.2761 3.50005 18 3.50005C17.7238 3.50005 17.5 3.27619 17.5 3.00005C17.5 2.72391 17.7238 2.50005 18 2.50005C18.2761 2.50005 18.5 2.72391 18.5 3.00005ZM20.5 21.0001C20.5 21.2762 20.2761 21.5001 20 21.5001C19.7238 21.5001 19.5 21.2762 19.5 21.0001C19.5 20.7239 19.7238 20.5 20 20.5C20.2761 20.5 20.5 20.7239 20.5 21.0001ZM20.5 8.00005C20.5 8.27619 20.2761 8.50005 20 8.50005C19.7238 8.50005 19.5 8.27619 19.5 8.00005C19.5 7.72391 19.7238 7.50005 20 7.50005C20.2761 7.50005 20.5 7.72391 20.5 8.00005Z" stroke="#111111" stroke-width="2" stroke-linecap="round" stroke-linejoin="round"/>
</svg>
