<svg width="65" height="65" viewBox="0 0 65 65" fill="none" xmlns="http://www.w3.org/2000/svg">
<path d="M16.5079 14.1667C16.4603 13.1012 16.6263 12.0369 16.996 11.0365C17.3658 10.036 17.9318 9.1196 18.6609 8.34113C19.39 7.56266 20.2675 6.93784 21.2416 6.50343C22.2157 6.06902 23.2668 5.83378 24.3332 5.81155C25.3996 5.78932 26.4596 5.98056 27.451 6.374C28.4423 6.76745 29.345 7.35516 30.1059 8.10257C30.8668 8.84999 31.4706 9.74201 31.8817 10.7262C32.2928 11.7104 32.503 12.7668 32.4999 13.8334V48.5001M16.5079 14.1667C14.9404 14.5698 13.4852 15.3242 12.2525 16.3729C11.0198 17.4216 10.0418 18.737 9.39279 20.2196C8.74373 21.7022 8.44056 23.3131 8.50624 24.9302C8.57192 26.5473 9.00472 28.1283 9.77187 29.5534M16.5079 14.1667C16.5606 15.4567 16.9247 16.7147 17.5692 17.8334M9.77187 29.5534C8.42302 30.6492 7.36234 32.058 6.68211 33.6572C6.00188 35.2564 5.72269 36.9976 5.86884 38.7294C6.01499 40.4611 6.58205 42.1309 7.52069 43.5934C8.45932 45.056 9.74111 46.2671 11.2545 47.1214M9.77187 29.5534C10.2597 29.1561 10.7817 28.8054 11.3319 28.5001M11.2545 47.1214C11.0676 48.5674 11.1792 50.0363 11.5822 51.4375C11.9853 52.8386 12.6713 54.1423 13.598 55.2679C14.5246 56.3936 15.6722 57.3173 16.9698 57.9821C18.2674 58.6468 19.6875 59.0385 21.1425 59.1329C22.5974 59.2274 24.0562 59.0225 25.4289 58.531C26.8016 58.0395 28.0589 57.2719 29.1232 56.2754C30.1876 55.279 31.0363 54.0749 31.6171 52.7376C32.1979 51.4002 32.4983 49.958 32.4999 48.5001M11.2545 47.1214C12.8553 48.0243 14.6621 48.5009 16.4999 48.5001M32.4999 48.5001H48.4999C49.9144 48.5001 51.2709 49.062 52.2711 50.0621C53.2713 51.0623 53.8332 52.4189 53.8332 53.8334V56.5001M24.4999 35.1667C26.7387 34.3791 28.6937 32.9454 30.1177 31.0467C31.5417 29.1481 32.3707 26.8698 32.4999 24.5001M32.4999 35.1667H43.1665M32.4999 21.8334H53.8332M43.1665 21.8334V13.8334C43.1665 12.4189 43.7284 11.0623 44.7286 10.0621C45.7288 9.06196 47.0854 8.50005 48.4999 8.50005M44.4999 35.1667C44.4999 35.9031 43.9029 36.5001 43.1665 36.5001C42.4302 36.5001 41.8332 35.9031 41.8332 35.1667C41.8332 34.4303 42.4302 33.8334 43.1665 33.8334C43.9029 33.8334 44.4999 34.4303 44.4999 35.1667ZM49.8332 8.50005C49.8332 9.23643 49.2362 9.83339 48.4999 9.83339C47.7635 9.83339 47.1665 9.23643 47.1665 8.50005C47.1665 7.76367 47.7635 7.16672 48.4999 7.16672C49.2362 7.16672 49.8332 7.76367 49.8332 8.50005ZM55.1665 56.5001C55.1665 57.2364 54.5696 57.8334 53.8332 57.8334C53.0968 57.8334 52.4999 57.2364 52.4999 56.5001C52.4999 55.7637 53.0968 55.1667 53.8332 55.1667C54.5696 55.1667 55.1665 55.7637 55.1665 56.5001ZM55.1665 21.8334C55.1665 22.5698 54.5696 23.1667 53.8332 23.1667C53.0968 23.1667 52.4999 22.5698 52.4999 21.8334C52.4999 21.097 53.0968 20.5001 53.8332 20.5001C54.5696 20.5001 55.1665 21.097 55.1665 21.8334Z" stroke="#111111" stroke-width="2" stroke-linecap="round" stroke-linejoin="round"/>
</svg>
