<svg width="65" height="65" viewBox="0 0 65 65" fill="none" xmlns="http://www.w3.org/2000/svg">
<path d="M39.7001 17.3C39.2115 17.7985 38.9378 18.4686 38.9378 19.1667C38.9378 19.8647 39.2115 20.5348 39.7001 21.0333L43.9668 25.3C44.4652 25.7886 45.1354 26.0623 45.8334 26.0623C46.5314 26.0623 47.2016 25.7886 47.7001 25.3L57.7534 15.2467C59.0943 18.2098 59.5003 21.5113 58.9173 24.711C58.3343 27.9108 56.79 30.8569 54.4902 33.1567C52.1904 35.4566 49.2443 37.0009 46.0445 37.5839C42.8447 38.1669 39.5433 37.7609 36.5801 36.42L18.1534 54.8467C17.0926 55.9075 15.6537 56.5035 14.1534 56.5035C12.6531 56.5035 11.2143 55.9075 10.1534 54.8467C9.09257 53.7858 8.49658 52.3469 8.49658 50.8467C8.49658 49.3464 9.09257 47.9075 10.1534 46.8467L28.5801 28.42C27.2392 25.4568 26.8332 22.1554 27.4162 18.9556C27.9992 15.7558 29.5435 12.8097 31.8434 10.5099C34.1432 8.21009 37.0893 6.66577 40.289 6.08277C43.4888 5.49976 46.7903 5.90576 49.7534 7.24665L39.7001 17.3Z" stroke="#111111" stroke-width="2" stroke-linecap="round" stroke-linejoin="round"/>
</svg>
