<svg width="65" height="65" viewBox="0 0 65 65" fill="none" xmlns="http://www.w3.org/2000/svg">
<path d="M32.5808 14.5321C23.425 8.48517 14.6927 6.63502 10.7141 10.6333C6.71583 14.6119 8.56598 23.3442 14.6129 32.4999M32.5808 14.5321C29.2792 16.7126 25.9227 19.4388 22.7141 22.6333C19.5196 25.8419 16.7934 29.1984 14.6129 32.4999M32.5808 14.5321C41.7365 8.48517 50.4688 6.63502 54.4474 10.6333C58.4457 14.6119 56.5955 23.3442 50.5486 32.4999M32.5808 14.5321C35.8823 16.7126 39.2388 19.4388 42.4474 22.6333C45.6419 25.8419 48.3681 29.1984 50.5486 32.4999M14.6129 32.4999C16.7934 35.8014 19.5196 39.158 22.7141 42.3666C25.9227 45.5611 29.2792 48.2873 32.5808 50.4678M14.6129 32.4999C8.56598 41.6557 6.71583 50.388 10.7141 54.3666C14.6927 58.3649 23.425 56.5147 32.5808 50.4678M32.5808 50.4678C35.8823 48.2873 39.2388 45.5611 42.4474 42.3666C45.6419 39.158 48.3681 35.8014 50.5486 32.4999M32.5808 50.4678C41.7365 56.5147 50.4688 58.3649 54.4474 54.3666C58.4457 50.388 56.5955 41.6557 50.5486 32.4999M35.2474 32.4999C35.2474 33.9727 34.0535 35.1666 32.5808 35.1666C31.108 35.1666 29.9141 33.9727 29.9141 32.4999C29.9141 31.0272 31.108 29.8333 32.5808 29.8333C34.0535 29.8333 35.2474 31.0272 35.2474 32.4999Z" stroke="#111111" stroke-width="2" stroke-linecap="round" stroke-linejoin="round"/>
</svg>
