<svg width="24" height="24" viewBox="0 0 24 24" fill="none" xmlns="http://www.w3.org/2000/svg">
<path d="M19.9996 13.7299C20.3027 13.5541 20.5543 13.3017 20.7292 12.9981C20.904 12.6945 20.9961 12.3503 20.9961 11.9999C20.9961 11.6495 20.904 11.3053 20.7292 11.0017C20.5543 10.6981 20.3027 10.4457 19.9996 10.2699L5.99964 2.2699C5.69575 2.09445 5.35105 2.00204 5.00015 2.00195C4.64925 2.00186 4.3045 2.0941 4.00052 2.26939C3.69655 2.44468 3.44404 2.69687 3.26835 3.00062C3.09267 3.30437 3 3.649 2.99964 3.9999V19.9999C3 20.3508 3.09267 20.6954 3.26835 20.9992C3.44404 21.3029 3.69655 21.5551 4.00052 21.7304C4.3045 21.9057 4.64925 21.9979 5.00015 21.9979C5.35105 21.9978 5.69575 21.9054 5.99964 21.7299L19.9996 13.7299Z" fill="#122066" fill-opacity="0.3"/>
</svg>
