<svg width="20" height="22" viewBox="0 0 20 22" fill="none" xmlns="http://www.w3.org/2000/svg">
<path d="M13 1V5C13 5.53043 13.2107 6.03914 13.5857 6.41421C13.9608 6.78929 14.4695 7 15 7H19M1.30496 14.53L2.22796 14.148M2.22796 11.852L1.30396 11.469M3.67696 20.5C4.03975 20.82 4.50622 20.9976 4.98995 21H17C17.5304 21 18.0391 20.7893 18.4142 20.4142C18.7892 20.0391 19 19.5304 19 19V6L14 1H4.99996C4.46952 1 3.96081 1.21071 3.58574 1.58579C3.21067 1.96086 2.99996 2.46957 2.99996 3V5.5M3.85196 10.228L3.46896 9.305M3.85196 15.772L3.46896 16.696M6.14795 10.228L6.53096 9.305M6.52996 16.696L6.14795 15.772M7.77196 11.852L8.69495 11.469M7.77196 14.148L8.69495 14.531M7.99996 13C7.99996 14.6569 6.65681 16 4.99996 16C3.3431 16 1.99996 14.6569 1.99996 13C1.99996 11.3431 3.3431 10 4.99996 10C6.65681 10 7.99996 11.3431 7.99996 13Z" stroke="#111111" stroke-width="2" stroke-linecap="round" stroke-linejoin="round"/>
</svg>
