<svg width="16" height="16" viewBox="0 0 16 16" fill="none" xmlns="http://www.w3.org/2000/svg">
<path d="M10.9334 5.06699H10.9387M5.33341 2.66699H10.6667C12.1395 2.66699 13.3334 3.8609 13.3334 5.33366V10.667C13.3334 12.1398 12.1395 13.3337 10.6667 13.3337H5.33341C3.86066 13.3337 2.66675 12.1398 2.66675 10.667V5.33366C2.66675 3.8609 3.86066 2.66699 5.33341 2.66699ZM10.1334 7.66433C10.1992 8.10819 10.1234 8.56151 9.91675 8.9598C9.71009 9.35809 9.38309 9.68108 8.98228 9.88282C8.58147 10.0846 8.12725 10.1548 7.68423 10.0835C7.24121 10.0122 6.83195 9.80304 6.51466 9.48574C6.19737 9.16845 5.98821 8.75919 5.91692 8.31617C5.84563 7.87315 5.91585 7.41894 6.11759 7.01812C6.31933 6.61731 6.64231 6.29032 7.04061 6.08365C7.4389 5.87699 7.89222 5.80117 8.33608 5.86699C8.78884 5.93413 9.208 6.14511 9.53165 6.46876C9.8553 6.7924 10.0663 7.21157 10.1334 7.66433Z" stroke="#122066" stroke-opacity="0.3" stroke-linecap="round" stroke-linejoin="round"/>
</svg>
