<svg width="883" height="168" viewBox="0 0 883 168" fill="none" xmlns="http://www.w3.org/2000/svg">
<path d="M268.769 34.2601H42.1887L51.0602 51.9125H88.3418C91.617 51.9125 94.5478 53.5126 96.8123 56.542C100.997 62.1395 102.087 71.4326 99.5906 80.2133C95.4626 94.7224 81.5371 108.958 71.4685 108.958H52.7599L65.0027 65.9148H46.2772L28.6924 127.749H66.7758C77.0703 127.749 88.7653 122.101 98.8678 112.249C107.959 103.378 114.984 91.9322 118.141 80.8396C120.976 70.8746 120.857 60.4426 117.859 51.9068H138.696L117.13 127.749H182.551L187.893 108.958H141.198L146.613 89.9221H175.413L180.755 71.1308H151.955L157.422 51.9125H224.74L203.174 127.755H221.899L243.465 51.9125H277.646L268.775 34.2601H268.769Z" fill="#122066"/>
<path d="M337.889 105.161L338.837 110.969C333.01 112.245 324.133 112.928 312.206 113.019H305.43V72.772H332.806V78.4436H312.274V107.006C323.974 107.006 332.513 106.391 337.889 105.161ZM351.035 127.984H344.055V67.1005H351.035V127.984Z" fill="#3D3D3D"/>
<path d="M401.451 108.168L397.386 113.293C394.449 111.653 391.467 109.125 388.441 105.708C385.414 102.291 383.426 99.0798 382.477 96.0732C381.664 99.4442 379.869 102.895 377.09 106.425C374.312 109.956 371.161 112.655 367.637 114.523L363.232 109.398C368.157 106.619 371.997 102.872 374.752 98.1573C377.508 93.4424 378.886 88.0556 378.886 81.9968V78.9902H366.282V73.4554H398.334V78.9902H386.069V81.9285C386.069 87.8506 387.469 93.0666 390.27 97.5765C393.071 102.086 396.798 105.617 401.451 108.168ZM413.446 127.984H406.534V67.1005H413.446V127.984Z" fill="#3D3D3D"/>
<path d="M452.884 80.9035V86.3701H434.927V92.1099C444.73 92.1099 452.455 91.5861 458.102 90.5383L459.051 95.9365C454.172 97.0298 447.011 97.622 437.57 97.7131H428.015V70.1071H454.985V75.642H434.927V80.9035H452.884ZM477.415 127.437H436.011V112.131H468.47V107.485H435.875V101.813H475.382V117.256H442.991V121.903H477.415V127.437ZM475.382 98.6698H468.47V86.5751H456.95V80.6985H468.47V67.1005H475.382V98.6698Z" fill="#3D3D3D"/>
<path d="M542.259 119.237H487.709V113.566H500.449V94.5696H507.429V113.566H514.95V94.5696H521.93V113.566H542.259V119.237ZM535.754 73.7967C535.754 87.7364 534.873 98.6467 533.111 106.528L526.47 105.503C527.961 99.8995 528.706 91.2213 528.706 79.4683H494.011V73.7967H535.754Z" fill="#3D3D3D"/>
<path d="M556.083 108.031H563.876V100.583H549.714V94.98H604.264V100.583H589.898V108.031H597.216V128.189H590.304V113.566H556.083V108.031ZM597.894 79.332C597.894 82.7941 596.053 85.5843 592.371 87.7026C588.689 89.8209 583.573 90.88 577.023 90.88C570.472 90.88 565.356 89.8209 561.674 87.7026C557.992 85.5843 556.151 82.7941 556.151 79.332C556.151 75.8698 557.992 73.0796 561.674 70.9613C565.356 68.843 570.449 67.7839 576.955 67.7839C583.46 67.7839 588.689 68.8317 592.371 70.9272C596.053 73.0227 597.894 75.8243 597.894 79.332ZM590.779 79.332C590.779 77.4187 589.559 75.9154 587.119 74.8221C584.68 73.7288 581.292 73.1821 576.955 73.1821C572.618 73.1821 569.297 73.7288 566.858 74.8221C564.418 75.9154 563.199 77.4187 563.199 79.332C563.199 81.2453 564.418 82.6916 566.858 83.8077C569.297 84.9238 572.663 85.4818 576.955 85.4818C581.247 85.4818 584.567 84.9238 587.052 83.8077C589.536 82.6916 590.779 81.1997 590.779 79.332ZM570.788 100.583V108.031H582.986V100.583H570.788Z" fill="#3D3D3D"/>
<path d="M666.268 99.6261H611.718V94.0912H632.928V83.2265H639.907V94.0912H666.268V99.6261ZM654.002 107.997C657.662 110.07 659.491 112.882 659.491 116.436C659.491 119.989 657.662 122.791 654.002 124.841C650.343 126.891 645.193 127.915 638.552 127.915C631.911 127.915 626.739 126.879 623.034 124.806C619.33 122.734 617.478 119.943 617.478 116.436C617.478 112.928 619.33 110.07 623.034 107.997C626.739 105.924 631.911 104.888 638.552 104.888C645.193 104.888 650.343 105.924 654.002 107.997ZM659.22 69.4918C659.446 77.4638 658.836 84.5931 657.391 90.8797L650.682 89.923C651.856 85.1853 652.376 80.2427 652.24 75.095H618.155V69.4918H659.22ZM638.552 110.559C634.215 110.559 630.816 111.072 628.354 112.097C625.892 113.122 624.66 114.568 624.66 116.436C624.66 118.303 625.892 119.807 628.354 120.809C630.816 121.811 634.215 122.312 638.552 122.312C642.889 122.312 646.277 121.811 648.717 120.809C651.156 119.807 652.376 118.349 652.376 116.436C652.376 114.522 651.145 113.122 648.683 112.097C646.221 111.072 642.844 110.559 638.552 110.559Z" fill="#3D3D3D"/>
<path d="M708.214 82.3385H673.248V76.8719H708.214V82.3385ZM704.961 94.8432C704.961 97.8042 703.617 100.23 700.929 102.121C698.241 104.011 694.864 104.956 690.798 104.956C686.733 104.956 683.333 104.011 680.6 102.121C677.867 100.23 676.5 97.8042 676.5 94.8432C676.5 91.8822 677.855 89.3197 680.566 87.4292C683.277 85.5387 686.687 84.5934 690.798 84.5934C694.909 84.5934 698.241 85.5387 700.929 87.4292C703.617 89.3197 704.961 91.791 704.961 94.8432ZM681.244 108.031H720.682V128.052H713.703V113.634H681.244V108.031ZM681.989 73.387V67.7838H699.676V73.387H681.989ZM698.049 94.8432C698.049 93.431 697.338 92.2694 695.915 91.3583C694.492 90.4472 692.786 89.9916 690.798 89.9916C688.811 89.9916 687.026 90.4472 685.581 91.3583C684.135 92.2694 683.412 93.431 683.412 94.8432C683.412 96.2554 684.146 97.3487 685.614 98.2598C687.083 99.1709 688.811 99.6264 690.798 99.6264C692.786 99.6264 694.492 99.1709 695.915 98.2598C697.338 97.3487 698.049 96.2098 698.049 94.8432ZM729.492 88.9667H720.615V104.82H713.635V67.1005H720.615V83.2268H729.492V88.9667Z" fill="#3D3D3D"/>
<path d="M766.084 97.3715L762.56 102.565C760.347 101.517 758.099 99.82 755.818 97.474C753.537 95.1279 751.989 92.8844 751.176 90.7433C750.363 93.2944 748.85 95.8682 746.636 98.4648C744.422 101.061 741.983 103.066 739.317 104.478C738.866 103.84 738.177 102.975 737.251 101.881C736.325 100.788 735.681 100.014 735.319 99.5581C739.069 97.5081 742.062 94.7179 744.298 91.1875C746.534 87.657 747.652 83.7735 747.652 79.5369V71.8837H754.361V79.3319C754.361 83.3862 755.49 87.0078 757.749 90.1966C760.008 93.3855 762.786 95.7771 766.084 97.3715ZM788.379 126.276H746.568V106.938H753.48V120.673H788.379V126.276ZM775.097 110.56H768.524V88.01H760.934V82.2702H768.524V68.1938H775.097V110.56ZM786.617 112.336H779.976V67.1005H786.617V112.336Z" fill="#3D3D3D"/>
<path d="M824.904 89.24V94.9115H807.082V108.305C817.382 108.305 825.581 107.69 831.68 106.46L832.697 111.994C826.733 113.27 818.014 113.953 806.54 114.044H800.238V72.567H827.885V78.1019H807.082V89.24H824.904ZM847.401 127.984H840.489V95.1849H829.579V89.3767H840.489V67.1005H847.401V127.984Z" fill="#3D3D3D"/>
<path d="M838.186 50.9833V44.8L833.014 35H835.565L839.484 42.5367H839.554L843.404 35H845.723L840.574 44.8V50.9833H838.186Z" fill="#868686"/>
<path d="M817.085 50.9833V37.0067H812.424V35H824.089V37.0067H819.474V50.9833H817.085Z" fill="#868686"/>
<path d="M799.448 50.9833V35H801.86V50.9833H799.448Z" fill="#868686"/>
<path d="M787.138 50.0036C786.226 50.8436 784.85 51.2636 783.01 51.2636C781.17 51.2636 779.624 50.9136 778.372 50.2136V48.2536C779.779 48.9225 781.271 49.257 782.848 49.257C784.981 49.257 786.048 48.3936 786.048 46.667C786.048 45.9825 785.87 45.4536 785.515 45.0803C785.159 44.707 784.525 44.3725 783.613 44.077L782.059 43.5636C780.9 43.2058 780.018 42.6847 779.415 42.0003C778.828 41.3158 778.534 40.3592 778.534 39.1303C778.534 37.7925 778.975 36.727 779.856 35.9336C780.737 35.1247 782.005 34.7203 783.659 34.7203C785.159 34.7203 786.497 35.0158 787.672 35.607V37.567C786.373 37.007 785.036 36.727 783.659 36.727C782.778 36.727 782.098 36.9136 781.619 37.287C781.139 37.6603 780.9 38.2047 780.9 38.9203C780.9 39.6203 781.047 40.1492 781.34 40.507C781.65 40.8647 782.214 41.1681 783.033 41.417L784.61 41.907C785.925 42.327 786.899 42.8714 787.532 43.5403C788.182 44.2092 788.507 45.1892 788.507 46.4803C788.507 47.9892 788.05 49.1636 787.138 50.0036Z" fill="#868686"/>
<path d="M757.575 50.9833V35H762.538C766.14 35 767.941 36.54 767.941 39.62C767.941 40.7089 767.686 41.58 767.176 42.2333C766.681 42.8867 765.947 43.4 764.973 43.7733V43.89L769.031 50.9833H766.364L762.654 44.3333H759.963V50.9833H757.575ZM759.963 42.56H762.306C763.403 42.56 764.2 42.3267 764.694 41.86C765.189 41.3933 765.437 40.67 765.437 39.69C765.437 38.7256 765.189 38.0333 764.694 37.6133C764.2 37.1778 763.396 36.96 762.283 36.96H759.963V42.56Z" fill="#868686"/>
<path d="M736.548 50.9833V35H746.196V37.0067H738.937V41.7667H744.573V43.75H738.937V48.9767H746.289V50.9833H736.548Z" fill="#868686"/>
<path d="M718.268 50.9833L712.586 35H715.068L719.497 47.8333H719.567L723.973 35H726.246L720.564 50.9833H718.268Z" fill="#868686"/>
<path d="M699.842 50.9833V35H702.254V50.9833H699.842Z" fill="#868686"/>
<path d="M675.96 50.9833V35H678.72L685.724 46.97H685.794V35H687.95V50.9833H685.539L678.21 38.3133H678.117V50.9833H675.96Z" fill="#868686"/>
<path d="M662.764 49.84C661.805 50.7889 660.336 51.2633 658.357 51.2633C656.378 51.2633 654.871 50.7811 653.835 49.8167C652.799 48.8367 652.281 47.3667 652.281 45.4067V35H654.739V45.2667C654.739 46.7911 655.041 47.8644 655.644 48.4867C656.247 49.1089 657.182 49.42 658.45 49.42C659.702 49.42 660.607 49.1167 661.163 48.51C661.735 47.8878 662.021 46.7989 662.021 45.2433V35H664.201V45.3367C664.201 47.3744 663.722 48.8756 662.764 49.84Z" fill="#868686"/>
<path d="M625.971 50.0036C625.059 50.8436 623.683 51.2636 621.843 51.2636C620.003 51.2636 618.457 50.9136 617.205 50.2136V48.2536C618.612 48.9225 620.104 49.257 621.681 49.257C623.814 49.257 624.881 48.3936 624.881 46.667C624.881 45.9825 624.703 45.4536 624.348 45.0803C623.992 44.707 623.358 44.3725 622.446 44.077L620.892 43.5636C619.732 43.2058 618.851 42.6847 618.248 42.0003C617.661 41.3158 617.367 40.3592 617.367 39.1303C617.367 37.7925 617.808 36.727 618.689 35.9336C619.57 35.1247 620.838 34.7203 622.492 34.7203C623.992 34.7203 625.329 35.0158 626.504 35.607V37.567C625.206 37.007 623.868 36.727 622.492 36.727C621.611 36.727 620.931 36.9136 620.451 37.287C619.972 37.6603 619.732 38.2047 619.732 38.9203C619.732 39.6203 619.879 40.1492 620.173 40.507C620.482 40.8647 621.047 41.1681 621.866 41.417L623.443 41.907C624.757 42.327 625.731 42.8714 626.365 43.5403C627.015 44.2092 627.339 45.1892 627.339 46.4803C627.339 47.9892 626.883 49.1636 625.971 50.0036Z" fill="#868686"/>
<path d="M607.069 33.8333V36.47C607.069 37.31 606.814 38.0567 606.304 38.71C605.809 39.3633 605.168 39.7755 604.379 39.9467V38.71C605.322 38.43 605.809 37.73 605.84 36.61H604.333V33.8333H607.069Z" fill="#868686"/>
<path d="M581.541 50.9833V35H584.301L591.305 46.97H591.374V35H593.531V50.9833H591.119L583.791 38.3133H583.698V50.9833H581.541Z" fill="#868686"/>
<path d="M560.515 50.9833V35H570.163V37.0067H562.904V41.7667H568.539V43.75H562.904V48.9767H570.255V50.9833H560.515Z" fill="#868686"/>
<path d="M533.419 50.9833V35H536.874L541.026 47.74H541.095L545.247 35H548.656V50.9833H546.267V38.08H546.221L541.953 50.9833H539.843L535.645 38.08H535.553V50.9833H533.419Z" fill="#868686"/>
<path d="M520.518 49.117C519.25 50.5325 517.518 51.2403 515.323 51.2403C513.127 51.2403 511.404 50.5481 510.151 49.1636C508.899 47.7792 508.273 45.7958 508.273 43.2136V42.747C508.273 40.2425 508.914 38.2825 510.198 36.867C511.481 35.4358 513.22 34.7203 515.416 34.7203C517.611 34.7203 519.327 35.4125 520.564 36.797C521.817 38.1814 522.443 40.1725 522.443 42.7703V43.237C522.443 45.7414 521.801 47.7014 520.518 49.117ZM515.392 49.327C516.861 49.327 517.974 48.8058 518.732 47.7636C519.49 46.7058 519.868 45.3058 519.868 43.5636V42.7936C519.868 38.7181 518.346 36.6725 515.3 36.657C513.831 36.657 512.718 37.1781 511.96 38.2203C511.218 39.2625 510.847 40.647 510.847 42.3736V43.1903C510.847 47.2814 512.362 49.327 515.392 49.327Z" fill="#868686"/>
<path d="M483.365 50.9833L479.376 35H481.811L484.664 47.3433H484.733L488.189 35H490.183L493.569 47.3433H493.616L496.514 35H498.694L494.752 50.9833H492.433L489.14 38.8733H489.07L485.684 50.9833H483.365Z" fill="#868686"/>
<path d="M450.148 51.2403C447.783 51.2403 445.943 50.5947 444.629 49.3036C443.314 48.0125 442.657 46.0214 442.657 43.3303V42.8636C442.657 41.3858 442.858 40.1103 443.26 39.037C443.678 37.9481 444.25 37.1003 444.976 36.4936C445.719 35.887 446.53 35.4436 447.411 35.1636C448.293 34.8681 449.259 34.7203 450.31 34.7203C451.918 34.7203 453.341 35.0392 454.578 35.677V37.6836C453.093 37.0458 451.656 36.727 450.264 36.727C448.486 36.727 447.195 37.2714 446.391 38.3603C445.603 39.4492 445.208 40.8492 445.208 42.5603V43.307C445.208 45.2203 445.572 46.6903 446.298 47.717C447.025 48.7436 448.316 49.257 450.171 49.257C451.3 49.257 452.189 49.1247 452.838 48.8603V44.9403H449.684V43.027H455.227V50.2836C453.696 50.9214 452.003 51.2403 450.148 51.2403Z" fill="#868686"/>
<path d="M419.726 50.9833V35H422.486L429.49 46.97H429.56V35H431.716V50.9833H429.304L421.976 38.3133H421.883V50.9833H419.726Z" fill="#868686"/>
<path d="M406.529 49.84C405.571 50.7889 404.102 51.2633 402.123 51.2633C400.144 51.2633 398.637 50.7811 397.601 49.8167C396.565 48.8367 396.047 47.3667 396.047 45.4067V35H398.505V45.2667C398.505 46.7911 398.807 47.8644 399.41 48.4867C400.013 49.1089 400.948 49.42 402.216 49.42C403.468 49.42 404.373 49.1167 404.929 48.51C405.501 47.8878 405.787 46.7989 405.787 45.2433V35H407.967V45.3367C407.967 47.3744 407.488 48.8756 406.529 49.84Z" fill="#868686"/>
<path d="M383.946 50.0036C383.034 50.8436 381.658 51.2636 379.818 51.2636C377.978 51.2636 376.432 50.9136 375.18 50.2136V48.2536C376.587 48.9225 378.079 49.257 379.656 49.257C381.79 49.257 382.856 48.3936 382.856 46.667C382.856 45.9825 382.679 45.4536 382.323 45.0803C381.967 44.707 381.333 44.3725 380.421 44.077L378.867 43.5636C377.708 43.2058 376.827 42.6847 376.224 42.0003C375.636 41.3158 375.342 40.3592 375.342 39.1303C375.342 37.7925 375.783 36.727 376.664 35.9336C377.545 35.1247 378.813 34.7203 380.468 34.7203C381.967 34.7203 383.305 35.0158 384.48 35.607V37.567C383.181 37.007 381.844 36.727 380.468 36.727C379.586 36.727 378.906 36.9136 378.427 37.287C377.947 37.6603 377.708 38.2047 377.708 38.9203C377.708 39.6203 377.855 40.1492 378.148 40.507C378.458 40.8647 379.022 41.1681 379.841 41.417L381.418 41.907C382.733 42.327 383.707 42.8714 384.341 43.5403C384.99 44.2092 385.315 45.1892 385.315 46.4803C385.315 47.9892 384.859 49.1636 383.946 50.0036Z" fill="#868686"/>
<path d="M363.108 50.9833L356.985 42.84L363.062 35H365.566L359.699 42.6067L365.914 50.9833H363.108ZM354.156 50.9833V35H356.545V50.9833H354.156Z" fill="#868686"/>
<path d="M340.959 49.84C340.001 50.7889 338.532 51.2633 336.553 51.2633C334.574 51.2633 333.066 50.7811 332.03 49.8167C330.995 48.8367 330.477 47.3667 330.477 45.4067V35H332.935V45.2667C332.935 46.7911 333.236 47.8644 333.839 48.4867C334.442 49.1089 335.378 49.42 336.645 49.42C337.898 49.42 338.802 49.1167 339.359 48.51C339.931 47.8878 340.217 46.7989 340.217 45.2433V35H342.397V45.3367C342.397 47.3744 341.918 48.8756 340.959 49.84Z" fill="#868686"/>
<path d="M307.144 50.9833V35H312.107C314.549 35 316.412 35.63 317.696 36.89C318.994 38.1344 319.644 40.0167 319.644 42.5367V43.0267C319.644 45.5933 319.018 47.5611 317.765 48.93C316.528 50.2989 314.658 50.9833 312.153 50.9833H307.144ZM309.532 48.9767H312.199C313.885 48.9767 315.114 48.5333 315.887 47.6467C316.675 46.76 317.07 45.3211 317.07 43.33V42.5367C317.07 40.5144 316.644 39.0911 315.794 38.2667C314.944 37.4267 313.653 37.0067 311.921 37.0067H309.532V48.9767Z" fill="#868686"/>
</svg>
