<svg width="358" height="132" viewBox="0 0 358 132" fill="none" xmlns="http://www.w3.org/2000/svg">
<path d="M345.243 0H19.408L32.1653 24.9223H85.7768C90.4866 24.9223 94.7012 27.1814 97.9575 31.4584C103.975 39.3612 105.542 52.4816 101.953 64.8785C96.0167 85.3631 75.9916 105.462 61.5127 105.462H34.6095L52.2148 44.6914H25.2872L0 131.992H54.7646C69.5683 131.992 86.3858 124.017 100.913 110.109C113.987 97.583 124.089 81.4237 128.629 65.7628C132.705 51.6938 132.535 36.9655 128.223 24.9143H158.187L127.175 131.992H221.251L228.933 105.462H161.785L169.572 78.5858H210.987L218.669 52.0555H177.254L185.115 24.9223H281.919L250.907 132H277.835L308.847 24.9223H358L345.243 0Z" fill="#122066"/>
</svg>
