<svg width="284" height="54" viewBox="0 0 284 54" fill="none" xmlns="http://www.w3.org/2000/svg">
<path d="M86.4444 11.0122H13.5691L16.4224 16.6862H28.4133C29.4668 16.6862 30.4094 17.2005 31.1377 18.1742C32.4836 19.9734 32.8341 22.9605 32.0313 25.7828C30.7036 30.4465 26.2248 35.0223 22.9864 35.0223H16.9691L20.9068 21.1869H14.8841L9.22827 41.0623H21.4771C24.7881 41.0623 28.5496 39.2466 31.7988 36.0802C34.723 33.2286 36.9824 29.5496 37.9977 25.9842C38.9095 22.7811 38.8713 19.428 37.9069 16.6843H44.6089L37.6726 41.0623H58.7139L60.432 35.0223H45.4135L47.1552 28.9035H56.4181L58.1363 22.8635H48.8734L50.6315 16.6862H72.2831L65.3468 41.0641H71.3695L78.3058 16.6862H89.2995L86.4462 11.0122H86.4444Z" fill="#122066"/>
<path d="M98.3083 41.077V36.3126H99.785C100.511 36.3126 101.067 36.4993 101.452 36.8727C101.836 37.2461 102.028 37.808 102.028 38.5603V38.7067C102.028 39.4718 101.843 40.0575 101.472 40.4656C101.102 40.8738 100.544 41.077 99.7995 41.077H98.3083ZM99.0185 40.4784H99.8122C100.313 40.4784 100.68 40.3467 100.913 40.0813C101.145 39.8177 101.262 39.3876 101.262 38.7946V38.5584C101.262 37.9563 101.134 37.5298 100.882 37.2827C100.63 37.0356 100.244 36.9112 99.7287 36.9112H99.0185V40.4784Z" fill="#A3A3A3"/>
<path d="M104.313 41.077V36.3126H105.03V41.077H104.313Z" fill="#A3A3A3"/>
<path d="M109.536 41.1538C108.832 41.1538 108.285 40.9616 107.895 40.5773C107.504 40.1929 107.308 39.5999 107.308 38.7964V38.6573C107.308 38.2162 107.37 37.8354 107.491 37.5133C107.613 37.1912 107.784 36.9404 108.002 36.7592C108.22 36.578 108.461 36.4444 108.723 36.3602C108.984 36.2742 109.273 36.2321 109.585 36.2321C110.063 36.2321 110.486 36.3273 110.855 36.5176V37.1161C110.414 36.9258 109.985 36.8306 109.571 36.8306C109.042 36.8306 108.659 36.9935 108.421 37.3175C108.183 37.6414 108.065 38.0587 108.065 38.5694V38.7927C108.065 39.3638 108.174 39.8012 108.39 40.1069C108.606 40.4125 108.992 40.5663 109.544 40.5663C109.88 40.5663 110.145 40.5278 110.337 40.4473V39.2796H109.398V38.7085H111.048V40.8719C110.592 41.0623 110.089 41.1575 109.536 41.1575V41.1538Z" fill="#A3A3A3"/>
<path d="M113.436 41.077V36.3126H114.153V41.077H113.436Z" fill="#A3A3A3"/>
<path d="M117.688 41.077V36.9112H116.3V36.3126H119.771V36.9112H118.398V41.077H117.688Z" fill="#A3A3A3"/>
<path d="M121.429 41.077L123.14 36.3126H123.858L125.556 41.077H124.811L124.355 39.7829H122.546L122.098 41.077H121.427H121.429ZM123.431 37.2168L122.741 39.2137H124.148L123.451 37.2168H123.431Z" fill="#A3A3A3"/>
<path d="M127.599 41.077V36.3126H128.309V40.4784H130.36V41.077H127.599Z" fill="#A3A3A3"/>
<path d="M135.756 41.077V36.3126H138.627V36.9112H136.468V38.3297H138.144V38.9208H136.468V40.4784H138.656V41.077H135.758H135.756Z" fill="#A3A3A3"/>
<path d="M141.016 41.077V36.3126H142.492C143.219 36.3126 143.775 36.4993 144.16 36.8727C144.543 37.2461 144.735 37.808 144.735 38.5603V38.7067C144.735 39.4718 144.55 40.0575 144.18 40.4656C143.809 40.8738 143.251 41.077 142.507 41.077H141.016ZM141.726 40.4784H142.519C143.021 40.4784 143.388 40.3467 143.62 40.0813C143.853 39.8177 143.969 39.3876 143.969 38.7946V38.5584C143.969 37.9563 143.842 37.5298 143.589 37.2827C143.337 37.0356 142.952 36.9112 142.436 36.9112H141.726V40.4784Z" fill="#A3A3A3"/>
<path d="M150.077 40.7329C149.792 41.0184 149.354 41.1612 148.766 41.1612C148.177 41.1612 147.728 41.0166 147.42 40.7255C147.111 40.4345 146.957 39.9989 146.957 39.415V36.3126H147.688V39.3729C147.688 39.8269 147.777 40.1472 147.957 40.332C148.137 40.5169 148.415 40.6102 148.793 40.6102C149.171 40.6102 149.436 40.5187 149.603 40.3357C149.77 40.1526 149.855 39.8287 149.855 39.3656V36.3126H150.504V39.3931C150.504 40.0007 150.36 40.4473 150.075 40.7329H150.077Z" fill="#A3A3A3"/>
<path d="M154.839 41.1538C154.182 41.1538 153.668 40.9525 153.297 40.548C152.927 40.1453 152.741 39.5486 152.741 38.7598V38.5932C152.741 38.1759 152.798 37.8117 152.91 37.5005C153.023 37.1894 153.181 36.9441 153.386 36.7629C153.591 36.5817 153.82 36.4481 154.076 36.3602C154.332 36.2724 154.616 36.2284 154.928 36.2284C155.388 36.2284 155.782 36.3145 156.109 36.4865V37.0704C155.667 36.9075 155.275 36.827 154.935 36.827C154.494 36.827 154.145 36.9642 153.889 37.2369C153.633 37.5115 153.506 37.9306 153.506 38.4962V38.7543C153.506 39.955 153.989 40.5553 154.955 40.5553C155.355 40.5553 155.758 40.4601 156.163 40.2698V40.8537C155.813 41.0532 155.371 41.152 154.837 41.152L154.839 41.1538Z" fill="#A3A3A3"/>
<path d="M157.896 41.077L159.607 36.3126H160.324L162.022 41.077H161.278L160.822 39.7829H159.013L158.564 41.077H157.894H157.896ZM159.897 37.2168L159.207 39.2137H160.615L159.917 37.2168H159.897Z" fill="#A3A3A3"/>
<path d="M165.061 41.077V36.9112H163.673V36.3126H167.144V36.9112H165.771V41.077H165.061Z" fill="#A3A3A3"/>
<path d="M169.291 41.077V36.3126H170.008V41.077H169.291Z" fill="#A3A3A3"/>
<path d="M175.935 40.5205C175.555 40.9433 175.039 41.1538 174.386 41.1538C173.732 41.1538 173.22 40.947 172.847 40.5352C172.475 40.1234 172.288 39.5303 172.288 38.7616V38.6225C172.288 37.8757 172.479 37.29 172.86 36.8654C173.241 36.4408 173.759 36.2284 174.413 36.2284C175.067 36.2284 175.579 36.4353 175.949 36.8471C176.32 37.2589 176.505 37.8538 176.505 38.628V38.7671C176.505 39.5139 176.316 40.0977 175.937 40.5205H175.935ZM174.406 40.5828C174.843 40.5828 175.174 40.4254 175.399 40.1124C175.624 39.7994 175.737 39.3839 175.737 38.8641V38.6353C175.737 37.42 175.283 36.8105 174.377 36.8068C173.939 36.8068 173.61 36.9624 173.387 37.2736C173.163 37.5847 173.052 37.9965 173.052 38.5109V38.7543C173.052 39.9733 173.503 40.5828 174.406 40.5828Z" fill="#A3A3A3"/>
<path d="M178.768 41.077V36.3126H179.589L181.674 39.8799H181.694V36.3126H182.335V41.077H181.618L179.437 37.301H179.409V41.077H178.768Z" fill="#A3A3A3"/>
<path d="M184.386 41.077L186.097 36.3126H186.814L188.513 41.077H187.768L187.312 39.7829H185.503L185.054 41.077H184.384H184.386ZM186.388 37.2168L185.697 39.2137H187.105L186.408 37.2168H186.388Z" fill="#A3A3A3"/>
<path d="M190.556 41.077V36.3126H191.266V40.4784H193.316V41.077H190.556Z" fill="#A3A3A3"/>
<path d="M199.708 41.077V36.9112H198.32V36.3126H201.791V36.9112H200.418V41.077H199.708Z" fill="#A3A3A3"/>
<path d="M203.918 41.077V36.3126H206.789V36.9112H204.63V38.3297H206.306V38.9208H204.63V40.4784H206.819V41.077H203.92H203.918Z" fill="#A3A3A3"/>
<path d="M211.012 41.1538C210.355 41.1538 209.841 40.9525 209.47 40.548C209.1 40.1453 208.914 39.5486 208.914 38.7598V38.5932C208.914 38.1759 208.971 37.8117 209.083 37.5005C209.196 37.1894 209.354 36.9441 209.559 36.7629C209.764 36.5817 209.993 36.4481 210.249 36.3602C210.505 36.2724 210.789 36.2284 211.101 36.2284C211.561 36.2284 211.955 36.3145 212.282 36.4865V37.0704C211.84 36.9075 211.448 36.827 211.108 36.827C210.667 36.827 210.318 36.9642 210.062 37.2369C209.806 37.5115 209.679 37.9306 209.679 38.4962V38.7543C209.679 39.955 210.162 40.5553 211.128 40.5553C211.528 40.5553 211.931 40.4601 212.336 40.2698V40.8537C211.986 41.0532 211.544 41.152 211.01 41.152L211.012 41.1538Z" fill="#A3A3A3"/>
<path d="M214.539 41.077V36.3126H215.249V38.3223H217.416V36.3126H218.134V41.077H217.416V38.9135H215.249V41.077H214.539Z" fill="#A3A3A3"/>
<path d="M220.653 41.077V36.3126H221.474L223.559 39.8799H223.579V36.3126H224.22V41.077H223.503L221.321 37.301H221.294V41.077H220.653Z" fill="#A3A3A3"/>
<path d="M230.127 40.5205C229.747 40.9433 229.231 41.1538 228.577 41.1538C227.923 41.1538 227.411 40.947 227.039 40.5352C226.667 40.1234 226.479 39.5303 226.479 38.7616V38.6225C226.479 37.8757 226.67 37.29 227.052 36.8654C227.433 36.4408 227.951 36.2284 228.604 36.2284C229.258 36.2284 229.771 36.4353 230.141 36.8471C230.512 37.2589 230.697 37.8538 230.697 38.628V38.7671C230.697 39.5139 230.508 40.0977 230.128 40.5205H230.127ZM228.597 40.5828C229.035 40.5828 229.366 40.4254 229.591 40.1124C229.816 39.7994 229.929 39.3839 229.929 38.8641V38.6353C229.929 37.42 229.474 36.8105 228.568 36.8068C228.13 36.8068 227.802 36.9624 227.578 37.2736C227.355 37.5847 227.244 37.9965 227.244 38.5109V38.7543C227.244 39.9733 227.695 40.5828 228.597 40.5828Z" fill="#A3A3A3"/>
<path d="M232.96 41.077V36.3126H233.67V40.4784H235.72V41.077H232.96Z" fill="#A3A3A3"/>
<path d="M241.273 40.5205C240.893 40.9433 240.377 41.1538 239.723 41.1538C239.07 41.1538 238.557 40.947 238.185 40.5352C237.813 40.1234 237.626 39.5303 237.626 38.7616V38.6225C237.626 37.8757 237.816 37.29 238.198 36.8654C238.579 36.4408 239.097 36.2284 239.751 36.2284C240.405 36.2284 240.917 36.4353 241.287 36.8471C241.658 37.2589 241.843 37.8538 241.843 38.628V38.7671C241.843 39.5139 241.654 40.0977 241.275 40.5205H241.273ZM239.743 40.5828C240.181 40.5828 240.512 40.4254 240.737 40.1124C240.962 39.7994 241.075 39.3839 241.075 38.8641V38.6353C241.075 37.42 240.621 36.8105 239.714 36.8068C239.277 36.8068 238.948 36.9624 238.725 37.2736C238.501 37.5847 238.39 37.9965 238.39 38.5109V38.7543C238.39 39.9733 238.841 40.5828 239.743 40.5828Z" fill="#A3A3A3"/>
<path d="M246.073 41.1538C245.368 41.1538 244.822 40.9616 244.431 40.5773C244.041 40.1929 243.844 39.5999 243.844 38.7964V38.6573C243.844 38.2162 243.906 37.8354 244.028 37.5133C244.15 37.1912 244.32 36.9404 244.538 36.7592C244.756 36.578 244.998 36.4444 245.259 36.3602C245.521 36.2742 245.81 36.2321 246.122 36.2321C246.6 36.2321 247.023 36.3273 247.392 36.5176V37.1161C246.95 36.9258 246.522 36.8306 246.108 36.8306C245.579 36.8306 245.196 36.9935 244.958 37.3175C244.72 37.6414 244.602 38.0587 244.602 38.5694V38.7927C244.602 39.3638 244.711 39.8012 244.927 40.1069C245.143 40.4125 245.528 40.5663 246.08 40.5663C246.416 40.5663 246.681 40.5278 246.874 40.4473V39.2796H245.935V38.7085H247.584V40.8719C247.128 41.0623 246.625 41.1575 246.073 41.1575V41.1538Z" fill="#A3A3A3"/>
<path d="M251.021 41.077V39.2338L249.482 36.3126H250.241L251.407 38.5584H251.427L252.573 36.3126H253.264L251.731 39.2338V41.077H251.021Z" fill="#A3A3A3"/>
<path d="M258.543 41.077V36.3126H259.254V40.4784H261.304V41.077H258.543Z" fill="#A3A3A3"/>
<path d="M263.002 41.077L264.713 36.3126H265.431L267.129 41.077H266.384L265.928 39.7829H264.119L263.671 41.077H263H263.002ZM265.004 37.2168L264.314 39.2137H265.721L265.024 37.2168H265.004Z" fill="#A3A3A3"/>
<path d="M269.172 41.077V36.3126H270.718C271.748 36.3126 272.263 36.7117 272.263 37.5097C272.263 38.0386 272.004 38.3846 271.484 38.5456V38.5804C272.138 38.7012 272.465 39.0819 272.465 39.7207C272.465 40.1289 272.325 40.4565 272.047 40.7054C271.769 40.9543 271.368 41.077 270.843 41.077H269.172ZM269.884 38.3571H270.594C271.224 38.3571 271.541 38.11 271.541 37.6122C271.541 37.3431 271.466 37.1546 271.319 37.0448C271.172 36.9368 270.945 36.8819 270.636 36.8819H269.884V38.3571ZM269.884 40.5059H270.761C271.397 40.5059 271.713 40.2295 271.713 39.6786C271.713 39.4004 271.63 39.1972 271.464 39.0709C271.299 38.9428 271.052 38.8806 270.725 38.8806H269.882V40.5077L269.884 40.5059Z" fill="#A3A3A3"/>
<path d="M108.675 23.2442L108.981 25.1111C107.106 25.5211 104.251 25.7407 100.415 25.77H98.2356V12.8333H107.041V14.6563H100.437V23.8372C104.2 23.8372 106.946 23.6395 108.675 23.2442ZM112.904 30.5801H110.659V11.0103H112.904V30.5801Z" fill="#3D3D3D"/>
<path d="M129.119 24.2106L127.811 25.8579C126.867 25.3307 125.908 24.5181 124.934 23.4199C123.961 22.3217 123.322 21.2894 123.016 20.323C122.755 21.4065 122.177 22.5157 121.284 23.6505C120.39 24.7853 119.377 25.6529 118.243 26.2532L116.827 24.6059C118.41 23.7127 119.645 22.5084 120.532 20.9929C121.418 19.4774 121.861 17.7459 121.861 15.7985V14.832H117.807V13.053H128.116V14.832H124.172V15.7765C124.172 17.68 124.622 19.3566 125.523 20.8062C126.424 22.2558 127.622 23.3906 129.119 24.2106ZM132.977 30.5801H130.754V11.0103H132.977V30.5801Z" fill="#3D3D3D"/>
<path d="M145.662 15.447V17.2041H139.886V19.0491C143.039 19.0491 145.524 18.8807 147.34 18.5439L147.645 20.2791C146.076 20.6305 143.773 20.8208 140.736 20.8501H137.663V11.9768H146.337V13.7558H139.886V15.447H145.662ZM153.551 30.4044H140.235V25.4845H150.674V23.9909H140.191V22.168H152.898V27.1318H142.48V28.6253H153.551V30.4044ZM152.898 21.1576H150.674V17.27H146.969V15.3811H150.674V11.0103H152.898V21.1576Z" fill="#3D3D3D"/>
<path d="M174.407 27.7687H156.862V25.9457H160.96V19.8398H163.205V25.9457H165.624V19.8398H167.869V25.9457H174.407V27.7687ZM172.315 13.1628C172.315 17.6434 172.032 21.1503 171.465 23.6835L169.329 23.354C169.809 21.553 170.048 18.7636 170.048 14.9858H158.889V13.1628H172.315Z" fill="#3D3D3D"/>
<path d="M178.854 24.1667H181.36V21.7726H176.805V19.9716H194.35V21.7726H189.729V24.1667H192.083V30.646H189.86V25.9457H178.854V24.1667ZM192.301 14.9419C192.301 16.0547 191.709 16.9516 190.525 17.6324C189.341 18.3133 187.695 18.6537 185.588 18.6537C183.481 18.6537 181.836 18.3133 180.652 17.6324C179.468 16.9516 178.875 16.0547 178.875 14.9419C178.875 13.829 179.468 12.9322 180.652 12.2513C181.836 11.5704 183.474 11.23 185.567 11.23C187.659 11.23 189.341 11.5668 190.525 12.2403C191.709 12.9139 192.301 13.8144 192.301 14.9419ZM190.013 14.9419C190.013 14.3269 189.62 13.8437 188.836 13.4923C188.051 13.1408 186.961 12.9651 185.567 12.9651C184.172 12.9651 183.104 13.1408 182.319 13.4923C181.534 13.8437 181.142 14.3269 181.142 14.9419C181.142 15.5569 181.534 16.0218 182.319 16.3805C183.104 16.7392 184.186 16.9186 185.567 16.9186C186.947 16.9186 188.015 16.7392 188.814 16.3805C189.613 16.0218 190.013 15.5422 190.013 14.9419ZM183.583 21.7726V24.1667H187.506V21.7726H183.583Z" fill="#3D3D3D"/>
<path d="M214.292 21.4651H196.747V19.6861H203.569V16.1938H205.814V19.6861H214.292V21.4651ZM210.347 24.1557C211.524 24.8219 212.113 25.7261 212.113 26.8682C212.113 28.0103 211.524 28.9108 210.347 29.5698C209.17 30.2287 207.514 30.5581 205.378 30.5581C203.242 30.5581 201.579 30.225 200.387 29.5588C199.196 28.8925 198.6 27.9957 198.6 26.8682C198.6 25.7407 199.196 24.8219 200.387 24.1557C201.579 23.4895 203.242 23.1563 205.378 23.1563C207.514 23.1563 209.17 23.4895 210.347 24.1557ZM212.026 11.7791C212.098 14.3415 211.902 16.6331 211.437 18.6538L209.279 18.3463C209.657 16.8234 209.824 15.2347 209.781 13.5801H198.818V11.7791H212.026ZM205.378 24.9793C203.983 24.9793 202.89 25.1441 202.098 25.4735C201.306 25.803 200.91 26.2679 200.91 26.8682C200.91 27.4686 201.306 27.9518 202.098 28.2739C202.89 28.596 203.983 28.7571 205.378 28.7571C206.773 28.7571 207.863 28.596 208.647 28.2739C209.432 27.9518 209.824 27.4832 209.824 26.8682C209.824 26.2532 209.428 25.803 208.637 25.4735C207.845 25.1441 206.758 24.9793 205.378 24.9793Z" fill="#3D3D3D"/>
<path d="M227.783 15.9083H216.537V14.1512H227.783V15.9083ZM226.737 19.9276C226.737 20.8794 226.305 21.6591 225.44 22.2668C224.576 22.8745 223.49 23.1783 222.182 23.1783C220.874 23.1783 219.781 22.8745 218.902 22.2668C218.023 21.6591 217.583 20.8794 217.583 19.9276C217.583 18.9759 218.019 18.1522 218.891 17.5446C219.763 16.9369 220.86 16.6331 222.182 16.6331C223.504 16.6331 224.576 16.9369 225.44 17.5446C226.305 18.1522 226.737 18.9466 226.737 19.9276ZM219.109 24.1667H231.794V30.602H229.549V25.9677H219.109V24.1667ZM219.349 13.031V11.23H225.037V13.031H219.349ZM224.514 19.9276C224.514 19.4737 224.285 19.1003 223.828 18.8075C223.37 18.5146 222.821 18.3682 222.182 18.3682C221.543 18.3682 220.969 18.5146 220.504 18.8075C220.039 19.1003 219.806 19.4737 219.806 19.9276C219.806 20.3816 220.042 20.733 220.515 21.0258C220.987 21.3187 221.543 21.4651 222.182 21.4651C222.821 21.4651 223.37 21.3187 223.828 21.0258C224.285 20.733 224.514 20.3669 224.514 19.9276ZM234.627 18.0388H231.772V23.1344H229.527V11.0103H231.772V16.1938H234.627V18.0388Z" fill="#3D3D3D"/>
<path d="M246.396 20.7403L245.263 22.4096C244.551 22.0728 243.828 21.5273 243.094 20.7732C242.361 20.0192 241.863 19.298 241.602 18.6098C241.34 19.4298 240.853 20.2571 240.141 21.0917C239.429 21.9263 238.645 22.5706 237.787 23.0245C237.642 22.8195 237.42 22.5413 237.123 22.1899C236.825 21.8385 236.618 21.5896 236.501 21.4431C237.707 20.7842 238.67 19.8874 239.389 18.7526C240.109 17.6178 240.468 16.3695 240.468 15.0078V12.5478H242.626V14.9419C242.626 16.245 242.989 17.4091 243.716 18.4341C244.442 19.4591 245.336 20.2278 246.396 20.7403ZM253.567 30.031H240.119V23.8152H242.343V28.23H253.567V30.031ZM249.295 24.9793H247.181V17.7313H244.74V15.8863H247.181V11.3618H249.295V24.9793ZM253 25.5504H250.864V11.0103H253V25.5504Z" fill="#3D3D3D"/>
<path d="M265.314 18.1266V19.9496H259.582V24.2545C262.895 24.2545 265.532 24.0568 267.494 23.6615L267.821 25.4406C265.903 25.8505 263.099 26.0702 259.408 26.0995H257.381V12.7674H266.273V14.5465H259.582V18.1266H265.314ZM272.55 30.5801H270.327V20.0375H266.818V18.1705H270.327V11.0103H272.55V30.5801Z" fill="#3D3D3D"/>
</svg>
