<svg width="668" height="400" viewBox="0 0 668 400" fill="none" xmlns="http://www.w3.org/2000/svg">
<path d="M654.665 209.165C639.617 160.419 613.157 118.944 579.425 86.6268H580.031C561.953 69.559 536.672 62.8262 511.996 70.7709C509.605 71.3769 507.182 72.5888 505.364 73.1948L503.546 75.0126C504.152 72.5888 504.152 70.1313 504.152 68.3134C504.152 42.089 489.71 19.5339 469.242 7.95343L468.03 7.34747C428.374 -14.568 382.018 -28 332.06 -28C282.102 -28 234.568 -14.568 194.811 7.98709H193.599C173.131 19.5676 158.689 42.1227 158.689 68.3471L158.083 71.3769H157.477C132.835 63.4658 107.553 70.165 90.0814 86.6268L89.4755 87.2328C55.7776 118.944 29.9234 159.779 14.2359 207.347C-1.38436 256.126 -3.80819 305.512 5.2475 351.228V351.834C9.45553 375.601 26.3213 395.732 50.9972 404.283C53.3874 404.889 55.8112 405.495 58.2014 406.134L53.9934 410.376C38.9454 431.113 38.3731 457.944 48.5734 479.859L49.1794 480.465C69.0413 521.939 100.349 559.744 140.679 588.393C182.187 617.647 227.937 634.748 273.686 639.596C297.756 642.053 321.86 631.685 336.908 610.948C337.514 609.736 337.514 609.13 338.726 607.884L339.904 611.554C354.952 632.291 379.628 641.414 403.092 638.384H404.304C449.447 632.257 494.591 614.617 534.315 584.723C575.217 554.223 605.313 515.206 623.997 472.52L624.603 473.126C634.197 451.211 632.413 424.448 617.432 403.71C641.401 395.463 657.796 375.163 662.509 352.406V351.161C671.564 306.05 669.746 256.665 654.698 209.097L654.665 209.165ZM184.005 61.6143C195.451 19.5339 265.876 31.7541 265.876 31.7541C311.02 37.8473 332.094 37.2413 332.094 37.2413C332.094 37.2413 353.774 37.8473 398.917 31.7541C398.917 31.7541 468.737 19.5676 480.183 61.6143C480.183 61.6143 485.839 79.5237 472.777 88.3437C472.844 88.3437 472.911 88.411 472.945 88.4447L471.733 89.0506C472.137 88.8486 472.44 88.5793 472.777 88.3437C432.481 62.7925 385.014 48.1822 333.912 48.1822C282.809 48.1822 233.996 63.4321 193.666 89.6566L192.454 89.0506C178.012 80.5336 184.038 61.6143 184.038 61.6143H184.005ZM52.7814 378.058C16.6597 353.652 49.7853 290.262 49.7853 290.262C69.6472 248.182 75.0672 227.444 75.0672 227.444C75.0672 227.444 82.8773 207.347 90.6874 161.597C90.6874 161.597 100.921 90.2625 144.281 92.0804C144.281 92.0804 163.537 92.6864 167.139 109.148V109.754C109.977 157.928 74.4612 229.868 74.4612 310.965C74.4612 334.766 76.2454 355.47 82.2713 376.813L81.6654 378.025C69.6472 388.999 52.7814 378.025 52.7814 378.025V378.058ZM312.804 601.858C279.106 629.295 228.543 578.697 228.543 578.697C195.451 546.986 177.373 535.405 177.373 535.405C177.373 535.405 160.507 522.007 119.605 501.269C119.605 501.269 55.2053 470.164 69.6472 429.329C69.6472 429.329 75.6731 410.41 92.5053 411.622L94.9291 413.473C132.263 503.693 218.309 568.362 319.436 573.816H320.648C327.886 589.066 312.838 601.858 312.838 601.858H312.804ZM333.642 565.333C195.148 565.333 82.8773 451.581 82.8773 311.268C82.8773 170.956 195.148 57.2042 333.642 57.2042C472.137 57.2042 584.441 170.956 584.441 311.268C584.441 451.581 472.171 565.333 333.642 565.333ZM552.965 496.96C512.635 518.91 495.803 532.948 495.803 532.948C495.803 532.948 478.331 545.134 445.845 576.846C445.845 576.846 396.494 629.261 362.796 602.464C362.796 602.464 347.142 590.884 353.774 575.634L354.38 573.816C455.507 565.265 540.375 498.812 575.89 407.952C592.723 405.528 601.172 423.808 601.172 423.808C616.187 464.071 552.999 496.994 552.999 496.994L552.965 496.96ZM614.941 379.304C614.941 379.304 597.503 390.884 584.845 379.304C590.871 357.355 593.867 334.8 593.867 310.999C593.867 231.147 558.351 160.385 502.974 111.606C506.609 95.1439 525.832 92.72 525.832 92.72C569.158 91.5081 578.819 162.809 578.819 162.809C586.629 207.953 593.867 228.656 593.867 228.656C593.867 228.656 599.287 249.394 618.543 291.44C618.543 291.44 651.029 355.47 614.941 379.27V379.304Z" fill="#981A45" fill-opacity="0.2"/>
<path d="M318.026 172.37V179.271H333.983H349.974V172.37H333.983H318.026Z" fill="#981A45" fill-opacity="0.2"/>
<path d="M183.672 321.805H172.496V351.127H183.672V321.805Z" fill="#981A45" fill-opacity="0.2"/>
<path d="M229.085 321.805H217.909V351.127H229.085V321.805Z" fill="#981A45" fill-opacity="0.2"/>
<path d="M205.756 175.837H195.825V182.772H205.756V175.837Z" fill="#981A45" fill-opacity="0.2"/>
<path d="M495.504 321.805H484.328V351.127H495.504V321.805Z" fill="#981A45" fill-opacity="0.2"/>
<path d="M450.091 321.805H438.915V351.127H450.091V321.805Z" fill="#981A45" fill-opacity="0.2"/>
<path d="M472.175 175.837H462.244V182.772H472.175V175.837Z" fill="#981A45" fill-opacity="0.2"/>
<path d="M481.5 160.251V145.943H470.997V129.044H463.389V145.943H453.087V160.082C440.834 171.865 424.675 187.418 422.184 189.808C418.851 185.095 373.168 120.56 373.168 120.56V111.976H362.43V105.512H346.405V111.976H337.754V91.2051H330.28V111.976H321.628V105.512H305.604V111.976H294.865V120.56C294.865 120.56 249.183 185.095 245.85 189.808C243.393 187.418 227.234 171.898 214.946 160.082V145.943H204.645V129.044H197.037V145.943H186.567V160.251L152.769 192.737V444.209H515.333V192.737L481.567 160.251H481.5ZM456.992 163.853H477.393C486.55 172.673 499.376 184.994 505.839 191.222H428.513C436.121 183.917 448.273 172.235 456.959 163.853H456.992ZM424.506 196.642H509.913V211.353H424.506V196.642ZM509.913 216.908V246.7C506.008 243.334 499.611 239.833 489.916 239.833C477.46 239.833 470.492 245.589 467.226 249.394C463.961 245.589 457.026 239.833 444.537 239.833C434.841 239.833 428.445 243.368 424.54 246.7V216.874H509.946L509.913 216.908ZM506.849 251.211H472.949C476.013 248.451 481.399 245.286 489.916 245.286C498.433 245.286 503.786 248.451 506.849 251.211ZM461.47 251.211H427.57C430.633 248.451 435.986 245.286 444.503 245.286C453.02 245.286 458.373 248.451 461.47 251.211ZM392.963 196.642V240.607H361.992V196.642H392.963ZM361.992 191.188V153.955C369.196 163.482 384.042 183.041 390.203 191.188H361.992ZM333.983 298.611H321.393V263.263H346.574V298.611H333.983ZM356.639 191.188H311.361V148.67H356.639V191.188ZM333.983 196.642H356.606V240.607H346.54V221.688C346.54 214.652 340.918 208.929 333.95 208.929C326.981 208.929 321.359 214.652 321.359 221.688V240.607H311.327V196.642H333.95H333.983ZM305.975 191.188H277.764C283.925 183.041 298.77 163.482 305.975 153.955V191.188ZM305.975 196.642V240.607H275.003V196.642H305.975ZM296.145 263.297V298.644H275.003V263.297H296.145ZM371.856 298.611V263.263H392.997V298.611H371.856ZM419.12 245.354C416.797 242.459 413.296 240.641 409.358 240.641H398.349V196.675H419.154V245.387L419.12 245.354ZM297.559 125.98H370.408C371.654 127.765 404.072 173.548 416.562 191.188H396.969L360.612 143.216H307.321L270.997 191.188H251.405C263.894 173.548 296.313 127.731 297.559 125.98ZM269.651 196.642V240.607H258.643C254.704 240.607 251.169 242.459 248.88 245.32V196.608H269.685L269.651 196.642ZM190.574 163.853H210.974C219.659 172.201 231.812 183.883 239.42 191.222H162.094C168.557 184.994 181.383 172.673 190.54 163.853H190.574ZM158.088 196.642H243.494V211.353H158.088V196.642ZM243.46 216.908V246.734C239.555 243.368 233.159 239.867 223.463 239.867C211.008 239.867 204.039 245.623 200.774 249.427C197.508 245.623 190.54 239.867 178.084 239.867C168.389 239.867 161.993 243.368 158.088 246.734V216.941H243.494L243.46 216.908ZM240.43 251.211H206.53C209.594 248.451 214.98 245.286 223.463 245.286C231.947 245.286 237.333 248.451 240.43 251.211ZM195.051 251.211H161.151C164.214 248.451 169.567 245.286 178.084 245.286C186.601 245.286 191.954 248.451 195.017 251.211H195.051ZM175.492 438.789H158.054V375.433H175.492V438.789ZM161.151 369.979C164.214 367.218 169.567 364.054 178.084 364.054C186.601 364.054 191.954 367.218 195.017 369.979H161.117H161.151ZM198.081 438.789H180.878V375.433H198.081V438.789ZM220.703 438.789H203.467V375.433H220.703V438.789ZM206.53 369.979C209.594 367.218 214.98 364.054 223.463 364.054C231.947 364.054 237.333 367.218 240.43 369.979H206.53ZM243.46 438.789H226.056V375.433H243.46V438.789ZM243.46 365.502C239.555 362.135 233.159 358.634 223.463 358.634C211.008 358.634 204.039 364.391 200.774 368.195C197.508 364.391 190.54 358.634 178.084 358.634C168.389 358.634 161.993 362.135 158.088 365.502V304.3H243.494V365.502H243.46ZM243.46 299.553L158.054 298.846V286.694H243.46V299.52V299.553ZM243.46 281.274H229.052V269.558H217.875V281.274H183.639V269.558H172.462V281.274H158.054V256.665H243.46V281.274ZM248.846 341.162C251.169 344.057 254.67 345.875 258.609 345.875C265.443 345.875 270.997 340.388 271.199 333.487V304.266H280.087V353.214H270.56V438.755H248.813V341.129L248.846 341.162ZM382.493 438.789H285.507V304.3H296.145V332.208C296.111 332.645 296.077 333.083 296.077 333.554C296.077 340.59 301.733 346.313 308.668 346.313C315.603 346.313 321.258 340.59 321.258 333.554H321.393V304.334H346.574V333.554H346.708C346.708 340.59 352.33 346.313 359.299 346.313C366.267 346.313 371.889 340.59 371.889 333.554C371.889 333.117 371.889 332.645 371.822 332.208V304.3H382.46V438.789H382.493ZM397.407 438.789V353.248H387.88V304.3H396.767V333.521C396.969 340.388 402.524 345.909 409.358 345.909C413.296 345.909 416.831 344.057 419.12 341.196V438.822H397.373L397.407 438.789ZM441.911 438.789H424.506V375.433H441.911V438.789ZM427.57 369.979C430.633 367.218 436.02 364.054 444.537 364.054C453.054 364.054 458.406 367.218 461.503 369.979H427.604H427.57ZM464.533 438.789H447.297V375.433H464.533V438.789ZM487.122 438.789H469.92V375.433H487.122V438.789ZM472.949 369.979C476.013 367.218 481.399 364.054 489.916 364.054C498.433 364.054 503.786 367.218 506.849 369.979H472.949ZM509.913 438.789H492.508V375.433H509.913V438.789ZM509.913 365.502C506.008 362.135 499.611 358.634 489.916 358.634C477.46 358.634 470.492 364.391 467.226 368.195C463.961 364.391 457.026 358.634 444.537 358.634C434.841 358.634 428.445 362.135 424.54 365.502V304.3H509.946V365.502H509.913ZM509.913 298.88H424.506V286.694H509.913V298.88ZM509.913 281.274H495.504V269.558H484.328V281.274H450.091V269.558H438.915V281.274H424.506V256.665H509.913V281.274Z" fill="#981A45" fill-opacity="0.2"/>
<path d="M333.983 346.414C331.963 346.38 307.658 346.313 305.975 372.537V429.127H333.983H361.992V372.706C360.309 346.347 336.003 346.38 333.983 346.414ZM356.639 423.673H311.361V372.706C312.741 351.127 333.007 351.834 333.849 351.868L333.983 349.208L334.118 351.868C334.993 351.834 355.225 351.127 356.639 372.874V423.673Z" fill="#981A45" fill-opacity="0.2"/>
</svg>
