<svg width="260" height="130" viewBox="0 0 260 130" fill="none" xmlns="http://www.w3.org/2000/svg">
<path d="M11.2378 11.0621H8.50146V117.968H11.2378V11.0621Z" fill="#122066"/>
<path d="M30.1892 39.8595V19.9268H37.0081C43.4493 19.9268 46.6672 23.0844 46.6672 29.3998V29.9809C46.6672 33.2153 45.8572 35.6712 44.2319 37.3487C42.6065 39.0262 40.2095 39.8595 37.0409 39.8595H30.1947H30.1892ZM34.3101 36.6909H37.0354C38.8742 36.6909 40.2095 36.203 41.0523 35.2217C41.8951 34.2459 42.3165 32.6122 42.3165 30.3262V29.3395C42.3165 27.0151 41.8622 25.3814 40.9538 24.444C40.0453 23.5066 38.6608 23.0351 36.8056 23.0351H34.3101V36.6909Z" fill="#122066"/>
<path d="M50.9302 22.5418V19.2854H54.8157V22.5418H50.9302ZM50.9575 39.8596V24.8113H54.7883V39.8596H50.9575Z" fill="#122066"/>
<path d="M65.3178 44.1628C60.6004 44.1628 58.2417 43.0115 58.2417 40.7036C58.2417 39.3276 59.1775 38.3408 61.0546 37.7378V37.5952C60.0094 37.1676 59.4894 36.4824 59.4894 35.534C59.4894 35.0132 59.6153 34.5966 59.867 34.2841C60.1188 33.9716 60.584 33.555 61.2571 33.0342C59.982 32.2777 59.3417 31.0881 59.3417 29.4599V29.2571C59.3417 27.7056 59.8889 26.538 60.978 25.7431C62.0725 24.9482 63.5665 24.5535 65.46 24.5535C66.3466 24.5535 67.173 24.6412 67.9282 24.8166H73.0615V27.1684H70.8013C71.2829 27.733 71.5291 28.3909 71.5291 29.1419V29.3722C71.5291 30.9236 70.9819 32.0748 69.8928 32.8314C68.7983 33.5879 67.3262 33.9661 65.471 33.9661C64.5242 33.9661 63.7471 33.8784 63.1506 33.703C62.8605 33.9552 62.7183 34.1854 62.7183 34.3992C62.7183 34.7501 62.8004 34.9639 62.9645 35.0406C63.1287 35.1174 63.4626 35.1557 63.966 35.1557H68.1416C71.447 35.1557 73.0998 36.4714 73.0998 39.1083C73.0998 40.6762 72.454 41.9096 71.157 42.8142C69.86 43.7132 67.9172 44.1628 65.3287 44.1628H65.3178ZM65.2576 41.6026C66.6859 41.6026 67.7038 41.4546 68.3003 41.1531C68.8968 40.8516 69.1978 40.3856 69.1978 39.7442C69.1978 39.2015 69.0501 38.8506 68.7491 38.6862C68.4481 38.5217 67.8625 38.4395 66.9924 38.4395H63.3093C62.4009 38.752 61.9467 39.3111 61.9467 40.1225C61.9467 40.6652 62.1929 41.0489 62.6854 41.2682C63.178 41.493 64.0317 41.6026 65.2521 41.6026H65.2576ZM65.46 31.6363C67.0635 31.6363 67.868 30.9017 67.868 29.427V29.109C67.868 28.2977 67.6655 27.7276 67.2605 27.4096C66.8555 27.0916 66.2536 26.9327 65.46 26.9327C63.8183 26.9327 62.9974 27.6398 62.9974 29.0542V29.4051C62.9974 30.8962 63.8183 31.6417 65.46 31.6417V31.6363Z" fill="#122066"/>
<path d="M76.6296 22.5418V19.2854H80.5152V22.5418H76.6296ZM76.657 39.8596V24.8113H80.4878V39.8596H76.657Z" fill="#122066"/>
<path d="M90.6668 40.0349C89.233 40.0349 88.144 39.7279 87.3887 39.103C86.6335 38.4835 86.2559 37.4584 86.2559 36.0221V27.6236H84.2529V24.8058H86.2559V21.2589H89.9991V24.8058H93.4523V27.6236H89.9991V35.4081C89.9991 36.0495 90.1469 36.4935 90.4479 36.7457C90.7489 36.9979 91.2579 37.124 91.9693 37.124C92.5877 37.124 93.1295 37.0472 93.5946 36.8937V39.4209C92.823 39.8266 91.8434 40.0295 90.6668 40.0295V40.0349Z" fill="#122066"/>
<path d="M101.426 40.1227C99.9921 40.1227 98.8538 39.7664 98.0056 39.0483C97.1518 38.3301 96.7305 37.2666 96.7305 35.8522C96.7305 33.2976 98.4051 31.7736 101.749 31.2912L105.054 30.8855V29.8658C105.054 28.9558 104.824 28.3473 104.359 28.0348C103.894 27.7278 103.035 27.5689 101.776 27.5689C100.288 27.5689 99.0235 27.7224 97.9782 28.0348V25.3596C99.5051 24.8169 101.256 24.5482 103.226 24.5482C106.959 24.5482 108.825 26.0613 108.825 29.0819V39.8596H105.722L105.432 38.6371H105.257C104.502 39.6239 103.226 40.1173 101.426 40.1173V40.1227ZM102.614 37.5352C103.697 37.5352 104.507 37.2666 105.049 36.7239V33.2373L102.586 33.5004C101.853 33.5772 101.316 33.7745 100.977 34.0815C100.638 34.3885 100.468 34.8874 100.468 35.5617C100.468 36.8774 101.185 37.5352 102.614 37.5352Z" fill="#122066"/>
<path d="M113.668 39.8595V18.622H117.499V39.8595H113.668Z" fill="#122066"/>
<path d="M30.1892 73.4261V53.4934H42.9513V56.6017H34.3101V61.6562H41.0687V64.7371H34.3101V70.2575H43.1593V73.4261H30.1947H30.1892Z" fill="#122066"/>
<path d="M53.0484 73.6893C52.2549 73.6893 51.5161 73.5522 50.832 73.2836C50.1479 73.015 49.5076 72.5983 48.9166 72.0501C48.3255 71.4964 47.8604 70.7344 47.5265 69.7532C47.1872 68.7774 47.0176 67.6371 47.0176 66.3378V65.9596C47.0176 63.2843 47.6251 61.3053 48.8454 60.017C50.0658 58.7287 51.6966 58.0873 53.7489 58.0873C55.0842 58.0873 56.2334 58.3614 57.2021 58.8987V52.1887H61V73.4261H57.7493L57.4319 72.2365H57.2842C56.2608 73.2068 54.8489 73.6893 53.0484 73.6893ZM54.4384 70.7838C55.5001 70.7838 56.4195 70.4658 57.1911 69.8244V61.6013C56.6329 61.1737 55.7135 60.9599 54.4384 60.9599C53.2782 60.9599 52.4026 61.3163 51.8116 62.018C51.2205 62.7252 50.925 63.9312 50.925 65.6361V66.1569C50.925 67.8838 51.226 69.0843 51.8225 69.7586C52.419 70.4384 53.2892 70.7728 54.4329 70.7728L54.4384 70.7838Z" fill="#122066"/>
<path d="M70.2485 73.689C67.2112 73.689 65.6953 72.2362 65.6953 69.3308V58.3776H69.4933V68.5468C69.4933 69.3198 69.6629 69.8735 70.0022 70.2024C70.3415 70.5313 70.9326 70.6958 71.7863 70.6958C72.64 70.6958 73.6798 70.4052 74.8017 69.8241V58.3776H78.5997V73.4259H75.3216L74.9714 72.0882H74.8236C73.4335 73.1517 71.9012 73.689 70.243 73.689H70.2485Z" fill="#122066"/>
<path d="M89.9116 73.6892C87.5912 73.6892 85.8017 73.0533 84.543 71.7869C83.2843 70.5206 82.6604 68.6622 82.6604 66.2227V65.7896C82.6604 63.2733 83.339 61.3601 84.6907 60.0499C86.0425 58.7397 87.8703 58.0873 90.1743 58.0873C91.8543 58.0873 93.217 58.3888 94.2623 58.9864V61.8644C93.0036 61.3601 91.7558 61.1079 90.519 61.1079C89.2822 61.1079 88.3191 61.4697 87.635 62.1988C86.9509 62.9279 86.6061 64.0024 86.6061 65.4387V66.0198C86.6061 67.6644 86.929 68.8595 87.5803 69.5941C88.226 70.3287 89.2494 70.696 90.6394 70.696C91.9529 70.696 93.2115 70.3945 94.41 69.797V72.5599C93.1732 73.3164 91.6738 73.6947 89.9171 73.6947L89.9116 73.6892Z" fill="#122066"/>
<path d="M102.181 73.6894C100.747 73.6894 99.6092 73.333 98.7609 72.6149C97.9072 71.8968 97.4858 70.8332 97.4858 69.4189C97.4858 66.8642 99.1604 65.3402 102.504 64.8578L105.81 64.4521V63.4325C105.81 62.5224 105.58 61.9139 105.115 61.6015C104.649 61.2945 103.79 61.1355 102.532 61.1355C101.043 61.1355 99.7788 61.289 98.7336 61.6015V58.9262C100.26 58.3835 102.012 58.1149 103.982 58.1149C107.714 58.1149 109.58 59.6279 109.58 62.6485V73.4262H106.477L106.187 72.2037H106.012C105.257 73.1905 103.982 73.6839 102.181 73.6839V73.6894ZM103.369 71.1018C104.452 71.1018 105.262 70.8332 105.804 70.2905V66.8039L103.341 67.0671C102.608 67.1438 102.072 67.3412 101.733 67.6482C101.393 67.9552 101.224 68.454 101.224 69.1283C101.224 70.444 101.941 71.1018 103.369 71.1018Z" fill="#122066"/>
<path d="M119.644 73.6016C118.21 73.6016 117.121 73.2946 116.366 72.6696C115.611 72.0501 115.233 71.025 115.233 69.5887V61.1902H113.23V58.3724H115.233V54.8255H118.976V58.3724H122.43V61.1902H118.976V68.9747C118.976 69.6161 119.124 70.0602 119.425 70.3123C119.726 70.5645 120.235 70.6906 120.947 70.6906C121.565 70.6906 122.107 70.6138 122.572 70.4603V72.9876C121.8 73.3932 120.821 73.5961 119.644 73.5961V73.6016Z" fill="#122066"/>
<path d="M126.6 56.1084V52.852H130.485V56.1084H126.6ZM126.633 73.4262V58.3779H130.464V73.4262H126.633Z" fill="#122066"/>
<path d="M141.803 73.6892C139.46 73.6892 137.671 73.0368 136.423 71.7266C135.175 70.4164 134.552 68.5635 134.552 66.1624V65.7567C134.552 63.3555 135.219 61.4752 136.554 60.1211C137.89 58.7671 139.646 58.0873 141.836 58.0873C144.156 58.0873 145.945 58.7397 147.204 60.0499C148.463 61.3546 149.087 63.224 149.087 65.6416V66.0472C149.087 68.4703 148.419 70.3452 147.084 71.6828C145.748 73.0204 143.992 73.6892 141.803 73.6892ZM141.857 70.8989C144.063 70.8989 145.163 69.3803 145.163 66.3378V65.6416C145.163 63.8818 144.862 62.6484 144.265 61.9521C143.663 61.2559 142.832 60.9051 141.77 60.9051C139.564 60.9051 138.464 62.4455 138.464 65.5264V66.1678C138.464 67.9111 138.765 69.1391 139.362 69.8408C139.958 70.548 140.79 70.8989 141.857 70.8989Z" fill="#122066"/>
<path d="M153.142 73.4261V58.3778H156.798V59.7155H156.945C158.396 58.63 160.032 58.0873 161.849 58.0873C163.315 58.0873 164.415 58.4162 165.143 59.0741C165.871 59.7319 166.232 60.8009 166.232 62.2701V73.4261H162.401V63.1692C162.401 62.4346 162.232 61.9138 161.893 61.6123C161.553 61.3107 160.929 61.1627 160.021 61.1627C159.189 61.1627 158.166 61.4149 156.945 61.9193V73.4261H153.147H153.142Z" fill="#122066"/>
<path d="M174.78 73.6894C173.347 73.6894 172.208 73.333 171.36 72.6149C170.506 71.8968 170.085 70.8332 170.085 69.4189C170.085 66.8642 171.76 65.3402 175.103 64.8578L178.409 64.4521V63.4325C178.409 62.5224 178.179 61.9139 177.714 61.6015C177.249 61.2945 176.389 61.1355 175.131 61.1355C173.642 61.1355 172.378 61.289 171.333 61.6015V58.9262C172.86 58.3835 174.611 58.1149 176.581 58.1149C180.313 58.1149 182.179 59.6279 182.179 62.6485V73.4262H179.076L178.786 72.2037H178.611C177.856 73.1905 176.581 73.6839 174.78 73.6839V73.6894ZM175.968 71.1018C177.052 71.1018 177.862 70.8332 178.403 70.2905V66.8039L175.941 67.0671C175.207 67.1438 174.671 67.3412 174.332 67.6482C173.992 67.9552 173.823 68.454 173.823 69.1283C173.823 70.444 174.54 71.1018 175.968 71.1018Z" fill="#122066"/>
<path d="M187.017 73.4261V52.1887H190.848V73.4261H187.017Z" fill="#122066"/>
<path d="M34.3103 105.896V89.0718H28.772V85.9635H44.0022V89.0718H38.4037V105.896H34.3157H34.3103Z" fill="#122066"/>
<path d="M54.5259 106.159C52.0304 106.159 50.1478 105.502 48.8727 104.186C47.5976 102.87 46.9573 100.99 46.9573 98.5504V98.1721C46.9573 95.749 47.603 93.8797 48.9 92.564C50.197 91.2483 51.899 90.5904 54.006 90.5904C56.2497 90.5904 57.886 91.2099 58.9203 92.4488C59.9547 93.6878 60.4746 95.5407 60.4746 97.9967V99.3891H50.8428C50.9796 100.782 51.412 101.779 52.1453 102.366C52.8786 102.958 53.9622 103.254 55.396 103.254C56.9064 103.254 58.4223 102.925 59.9492 102.267V104.767C58.5592 105.699 56.7477 106.159 54.5259 106.159ZM53.9184 93.2876C53.1249 93.2876 52.4408 93.5672 51.8607 94.1318C51.2806 94.6965 50.9413 95.623 50.8483 96.9222H56.7368C56.7368 95.623 56.5069 94.6965 56.0418 94.1318C55.5766 93.5727 54.8706 93.2876 53.9239 93.2876H53.9184Z" fill="#122066"/>
<path d="M70.9985 106.16C68.6781 106.16 66.8886 105.524 65.6354 104.257C64.3767 102.991 63.7473 101.133 63.7473 98.693V98.2599C63.7473 95.7437 64.4259 93.8304 65.7777 92.5202C67.1294 91.21 68.9572 90.5576 71.2612 90.5576C72.9413 90.5576 74.3039 90.8592 75.3492 91.4567V94.3348C74.0905 93.8304 72.8427 93.5783 71.6059 93.5783C70.3691 93.5783 69.406 93.9401 68.7219 94.6692C68.0378 95.3983 67.6931 96.4728 67.6931 97.9091V98.4902C67.6931 100.135 68.0159 101.33 68.6672 102.064C69.3184 102.799 70.3363 103.166 71.7264 103.166C73.0398 103.166 74.2984 102.865 75.4969 102.267V105.03C74.2601 105.787 72.7607 106.165 71.004 106.165L70.9985 106.16Z" fill="#122066"/>
<path d="M79.4098 105.896V84.659H83.2078V92.0982H83.3829C84.6963 91.073 86.2724 90.5577 88.1112 90.5577C89.5779 90.5577 90.6778 90.8866 91.4002 91.5445C92.1281 92.2023 92.4893 93.2713 92.4893 94.7405V105.896H88.6585V95.6396C88.6585 94.905 88.4888 94.3842 88.1495 94.0827C87.8102 93.7811 87.1863 93.6331 86.2779 93.6331C85.446 93.6331 84.4227 93.8853 83.2023 94.3897V105.896H79.4043H79.4098Z" fill="#122066"/>
<path d="M97.1904 105.896V90.8482H100.846V92.1858H100.994C102.444 91.1004 104.075 90.5576 105.897 90.5576C107.364 90.5576 108.464 90.8866 109.186 91.5444C109.914 92.2023 110.275 93.2713 110.275 94.7405V105.896H106.445V95.6395C106.445 94.9049 106.275 94.3841 105.936 94.0826C105.596 93.7811 104.972 93.6331 104.064 93.6331C103.232 93.6331 102.209 93.8852 100.988 94.3896V105.896H97.1904Z" fill="#122066"/>
<path d="M121.439 106.16C119.097 106.16 117.307 105.507 116.06 104.197C114.812 102.892 114.188 101.034 114.188 98.6327V98.227C114.188 95.8259 114.856 93.9456 116.191 92.5915C117.526 91.2374 119.283 90.5576 121.472 90.5576C123.792 90.5576 125.582 91.21 126.835 92.5202C128.094 93.825 128.723 95.6943 128.723 98.1119V98.5176C128.723 100.941 128.056 102.816 126.72 104.153C125.385 105.491 123.628 106.16 121.439 106.16ZM121.499 103.369C123.705 103.369 124.805 101.851 124.805 98.8081V98.1119C124.805 96.3522 124.504 95.1187 123.907 94.4225C123.305 93.7263 122.473 93.3754 121.412 93.3754C119.206 93.3754 118.106 94.9159 118.106 97.9968V98.6382C118.106 100.381 118.407 101.609 119.004 102.311C119.6 103.018 120.432 103.369 121.499 103.369Z" fill="#122066"/>
<path d="M132.866 105.896V84.659H136.697V105.896H132.866Z" fill="#122066"/>
<path d="M148.036 106.16C145.694 106.16 143.905 105.507 142.657 104.197C141.409 102.892 140.785 101.034 140.785 98.6327V98.227C140.785 95.8259 141.453 93.9456 142.788 92.5915C144.123 91.2374 145.88 90.5576 148.069 90.5576C150.39 90.5576 152.179 91.21 153.432 92.5202C154.691 93.825 155.32 95.6943 155.32 98.1119V98.5176C155.32 100.941 154.653 102.816 153.317 104.153C151.982 105.491 150.225 106.16 148.036 106.16ZM148.097 103.369C150.302 103.369 151.402 101.851 151.402 98.8081V98.1119C151.402 96.3522 151.101 95.1187 150.504 94.4225C149.902 93.7263 149.071 93.3754 148.009 93.3754C145.803 93.3754 144.704 94.9159 144.704 97.9968V98.6382C144.704 100.381 145.005 101.609 145.601 102.311C146.198 103.018 147.029 103.369 148.097 103.369Z" fill="#122066"/>
<path d="M165.034 110.194C160.317 110.194 157.958 109.043 157.958 106.735C157.958 105.359 158.894 104.372 160.771 103.769V103.626C159.726 103.199 159.206 102.514 159.206 101.565C159.206 101.044 159.332 100.628 159.583 100.315C159.835 100.003 160.3 99.5862 160.973 99.0654C159.698 98.3089 159.058 97.1193 159.058 95.4911V95.2883C159.058 93.7369 159.605 92.5692 160.694 91.7743C161.789 90.9794 163.283 90.5847 165.176 90.5847C166.063 90.5847 166.889 90.6724 167.639 90.8478H172.772V93.1996H170.512C170.994 93.7643 171.24 94.4221 171.24 95.1732V95.4034C171.24 96.9548 170.693 98.1061 169.598 98.8626C168.504 99.6191 167.032 99.9974 165.176 99.9974C164.23 99.9974 163.452 99.9097 162.856 99.7342C162.566 99.9864 162.424 100.217 162.424 100.43C162.424 100.781 162.506 100.995 162.67 101.072C162.834 101.149 163.168 101.187 163.671 101.187H167.847C171.152 101.187 172.805 102.503 172.805 105.14C172.805 106.707 172.159 107.941 170.862 108.845C169.565 109.744 167.623 110.194 165.034 110.194ZM164.974 107.639C166.402 107.639 167.42 107.491 168.022 107.19C168.619 106.888 168.92 106.422 168.92 105.781C168.92 105.238 168.772 104.887 168.471 104.723C168.17 104.558 167.584 104.476 166.714 104.476H163.031C162.123 104.789 161.668 105.348 161.668 106.159C161.668 106.702 161.915 107.086 162.407 107.305C162.9 107.53 163.753 107.639 164.974 107.639ZM165.176 97.673C166.78 97.673 167.584 96.9384 167.584 95.4637V95.1458C167.584 94.3344 167.382 93.7643 166.977 93.4463C166.572 93.1284 165.97 92.9694 165.176 92.9694C163.535 92.9694 162.714 93.6766 162.714 95.0909V95.4418C162.714 96.9329 163.535 97.6785 165.176 97.6785V97.673Z" fill="#122066"/>
<path d="M178.464 110.139C177.419 110.139 176.614 109.986 176.056 109.673V107.086C176.423 107.201 176.937 107.261 177.594 107.261C178.289 107.261 178.809 107.152 179.142 106.943C179.482 106.729 179.783 106.313 180.056 105.693L180.576 104.356L174.923 90.848H178.924L182.431 99.6796H182.546L185.885 90.848H189.54L184.09 105.403C183.006 108.56 181.129 110.139 178.464 110.139Z" fill="#122066"/>
<path d="M202.45 105.896V85.9634H206.571V102.728H214.753V105.896H202.456H202.45Z" fill="#122066"/>
<path d="M222.518 106.159C221.084 106.159 219.946 105.803 219.098 105.085C218.244 104.367 217.823 103.303 217.823 101.889C217.823 99.3341 219.497 97.81 222.841 97.3276L226.146 96.922V95.9023C226.146 94.9923 225.916 94.3838 225.451 94.0713C224.986 93.7643 224.127 93.6053 222.868 93.6053C221.38 93.6053 220.11 93.7588 219.07 94.0713V91.396C220.597 90.8533 222.348 90.5847 224.318 90.5847C228.051 90.5847 229.917 92.0977 229.917 95.1184V105.896H226.814L226.524 104.674H226.349C225.594 105.66 224.318 106.154 222.518 106.154V106.159ZM223.711 103.572C224.795 103.572 225.605 103.303 226.146 102.76V99.2737L223.684 99.5369C222.95 99.6136 222.414 99.811 222.075 100.118C221.735 100.425 221.566 100.924 221.566 101.598C221.566 102.914 222.283 103.572 223.711 103.572Z" fill="#122066"/>
<path d="M240.736 106.214C238.356 106.214 236.336 105.907 234.673 105.282V84.6533H238.471V91.8293H238.646C239.866 90.9796 241.316 90.552 242.996 90.552C244.677 90.552 245.946 91.1221 247.03 92.2679C248.113 93.4136 248.655 95.2501 248.655 97.7883V98.1665C248.655 103.533 246.017 106.214 240.736 106.214ZM240.939 103.369C243.473 103.369 244.737 101.812 244.737 98.6928V98.172C244.737 96.4507 244.463 95.2556 243.927 94.5977C243.39 93.9399 242.487 93.611 241.229 93.611C240.495 93.611 239.576 93.8357 238.471 94.2798V102.969C239.166 103.243 239.986 103.374 240.933 103.374L240.939 103.369Z" fill="#122066"/>
</svg>
