<svg width="342" height="132" viewBox="0 0 342 132" fill="none" xmlns="http://www.w3.org/2000/svg">
<path d="M233.604 108.488V83.1445L283.776 4.20349H325.045V82.9733H339.429V108.488H325.045V128.18H293.88V108.488H233.604ZM265.796 82.9733H294.565V38.1088H293.537L265.796 82.1171V82.9733Z" fill="#F6F6F7"/>
<path d="M170.027 129.893C136.636 129.893 115.916 106.776 115.916 66.1919C115.916 25.4371 136.636 2.49112 170.027 2.49112C203.419 2.49112 224.139 25.6084 224.139 66.1919C224.139 106.947 203.419 129.893 170.027 129.893ZM170.027 103.693C182.014 103.522 190.405 92.5627 190.405 66.1919C190.405 40.5061 182.014 28.6906 170.027 28.6906C158.041 28.6906 149.821 40.5061 149.65 66.1919C149.65 92.5627 158.041 103.522 170.027 103.693Z" fill="#F6F6F7"/>
<path d="M1.82422 108.488V83.1445L51.9972 4.20349H93.2657V82.9733H107.65V108.488H93.2657V128.18H62.1003V108.488H1.82422ZM34.0171 82.9733H62.7852V38.1088H61.7578L34.0171 82.1171V82.9733Z" fill="#F6F6F7"/>
<path d="M339.429 108.488V82.9733H325.045V4.20347H283.777L233.604 83.1445V108.488H293.88V128.18H325.045V108.488H339.429ZM294.565 38.1087V82.9733H265.797V82.1171L293.537 38.1087H294.565ZM268.567 81.1467H292.738V42.8L268.567 81.1467ZM326.872 81.1467H341.256V110.314H326.872V130.007H292.053V110.314H231.777V82.613L232.063 82.1653L282.236 3.2242L282.773 2.37692H326.872V81.1467Z" fill="#122066" fill-opacity="0.8"/>
<path d="M224.139 66.1919C224.139 26.2422 204.062 3.21669 171.583 2.50715L170.028 2.4911C136.636 2.4911 115.916 25.4371 115.916 66.1919L115.931 68.0809C116.556 106.867 136.509 129.178 168.472 129.877L170.028 129.893C202.897 129.893 223.489 107.658 224.125 68.0898L224.139 66.1919ZM188.579 66.1919C188.579 53.5027 186.498 44.4977 183.133 38.7295C179.826 33.0601 175.298 30.5172 170.028 30.5172C164.762 30.5172 160.277 33.0556 156.989 38.7259C153.642 44.4982 151.562 53.5083 151.477 66.2044C151.478 79.2388 153.562 88.1855 156.916 93.8345C160.196 99.3605 164.708 101.781 170.028 101.865C175.347 101.781 179.86 99.3605 183.14 93.8345C186.495 88.1837 188.579 79.2331 188.579 66.1919ZM190.38 68.6196C189.877 93.2372 181.64 103.527 170.028 103.693L169.468 103.677C158.152 103.191 150.171 92.8395 149.675 68.6196L149.65 66.1919C149.822 40.5061 158.041 28.6906 170.028 28.6906L170.588 28.6995C182.275 29.0641 190.405 40.9081 190.405 66.1919L190.38 68.6196ZM225.966 66.1919C225.966 86.8595 220.712 103.259 210.988 114.519C201.234 125.813 187.167 131.719 170.028 131.719C152.885 131.719 138.818 125.769 129.066 114.454C119.344 103.175 114.09 86.7758 114.09 66.1919C114.09 45.5243 119.344 29.1248 129.068 17.8651C138.822 6.5707 152.889 0.664551 170.028 0.664551C187.171 0.664552 201.237 6.61504 210.99 17.9293C220.712 29.209 225.966 45.608 225.966 66.1919Z" fill="#122066" fill-opacity="0.8"/>
<path d="M107.652 108.488V82.9733H93.268V4.20347H51.9995L1.82655 83.1445V108.488H62.1026V128.18H93.268V108.488H107.652ZM62.7875 38.1087V82.9733H34.0194V82.1171L61.7601 38.1087H62.7875ZM36.7896 81.1467H60.961V42.8L36.7896 81.1467ZM95.0946 81.1467H109.479V110.314H95.0946V130.007H60.276V110.314H0V82.613L0.285398 82.1653L50.997 2.37692H95.0946V81.1467Z" fill="#122066" fill-opacity="0.8"/>
</svg>
