<svg width="24" height="24" viewBox="0 0 24 24" fill="none" xmlns="http://www.w3.org/2000/svg">
<path d="M20.0001 13.73C20.3032 13.5542 20.5548 13.3019 20.7297 12.9983C20.9045 12.6946 20.9966 12.3504 20.9966 12C20.9966 11.6496 20.9045 11.3054 20.7297 11.0018C20.5548 10.6982 20.3032 10.4458 20.0001 10.27L6.00013 2.27003C5.69624 2.09458 5.35154 2.00217 5.00064 2.00208C4.64974 2.00199 4.30499 2.09422 4.00101 2.26951C3.69703 2.44481 3.44453 2.69699 3.26884 3.00074C3.09316 3.3045 3.00049 3.64913 3.00013 4.00003V20C3.00049 20.3509 3.09316 20.6956 3.26884 20.9993C3.44453 21.3031 3.69703 21.5552 4.00101 21.7305C4.30499 21.9058 4.64974 21.9981 5.00064 21.998C5.35154 21.9979 5.69624 21.9055 6.00013 21.73L20.0001 13.73Z" fill="#122066" fill-opacity="0.3"/>
</svg>
