<svg width="1920" height="400" viewBox="0 0 1920 400" fill="none" xmlns="http://www.w3.org/2000/svg">
<g clip-path="url(#clip0_248_1749)">
<rect width="1920" height="400" fill="url(#paint0_linear_248_1749)"/>
<g opacity="0.2" clip-path="url(#clip1_248_1749)">
<path d="M1772.66 209.165C1757.62 160.419 1731.16 118.944 1697.42 86.6268H1698.03C1679.95 69.559 1654.67 62.8262 1630 70.7709C1627.61 71.3769 1625.18 72.5888 1623.36 73.1948L1621.55 75.0126C1622.15 72.5888 1622.15 70.1313 1622.15 68.3134C1622.15 42.089 1607.71 19.5339 1587.24 7.95343L1586.03 7.34747C1546.37 -14.568 1500.02 -28 1450.06 -28C1400.1 -28 1352.57 -14.568 1312.81 7.98709H1311.6C1291.13 19.5676 1276.69 42.1227 1276.69 68.3471L1276.08 71.3769H1275.48C1250.83 63.4658 1225.55 70.165 1208.08 86.6268L1207.48 87.2328C1173.78 118.944 1147.92 159.779 1132.24 207.347C1116.62 256.126 1114.19 305.512 1123.25 351.228V351.834C1127.46 375.601 1144.32 395.732 1169 404.283C1171.39 404.889 1173.81 405.495 1176.2 406.134L1171.99 410.376C1156.95 431.113 1156.37 457.944 1166.57 479.859L1167.18 480.465C1187.04 521.939 1218.35 559.744 1258.68 588.393C1300.19 617.647 1345.94 634.748 1391.69 639.596C1415.76 642.053 1439.86 631.685 1454.91 610.948C1455.51 609.736 1455.51 609.13 1456.73 607.884L1457.9 611.554C1472.95 632.291 1497.63 641.414 1521.09 638.384H1522.3C1567.45 632.257 1612.59 614.617 1652.31 584.723C1693.22 554.223 1723.31 515.206 1742 472.52L1742.6 473.126C1752.2 451.211 1750.41 424.448 1735.43 403.71C1759.4 395.463 1775.8 375.163 1780.51 352.406V351.161C1789.56 306.05 1787.75 256.665 1772.7 209.097L1772.66 209.165ZM1302 61.6143C1313.45 19.5339 1383.88 31.7541 1383.88 31.7541C1429.02 37.8473 1450.09 37.2413 1450.09 37.2413C1450.09 37.2413 1471.77 37.8473 1516.92 31.7541C1516.92 31.7541 1586.74 19.5676 1598.18 61.6143C1598.18 61.6143 1603.84 79.5237 1590.78 88.3437C1590.84 88.3437 1590.91 88.411 1590.94 88.4447L1589.73 89.0506C1590.14 88.8486 1590.44 88.5793 1590.78 88.3437C1550.48 62.7925 1503.01 48.1822 1451.91 48.1822C1400.81 48.1822 1352 63.4321 1311.67 89.6566L1310.45 89.0506C1296.01 80.5336 1302.04 61.6143 1302.04 61.6143H1302ZM1170.78 378.058C1134.66 353.652 1167.79 290.262 1167.79 290.262C1187.65 248.182 1193.07 227.444 1193.07 227.444C1193.07 227.444 1200.88 207.347 1208.69 161.597C1208.69 161.597 1218.92 90.2625 1262.28 92.0804C1262.28 92.0804 1281.54 92.6864 1285.14 109.148V109.754C1227.98 157.928 1192.46 229.868 1192.46 310.965C1192.46 334.766 1194.25 355.47 1200.27 376.813L1199.67 378.025C1187.65 388.999 1170.78 378.025 1170.78 378.025V378.058ZM1430.8 601.858C1397.11 629.295 1346.54 578.697 1346.54 578.697C1313.45 546.986 1295.37 535.405 1295.37 535.405C1295.37 535.405 1278.51 522.007 1237.6 501.269C1237.6 501.269 1173.21 470.164 1187.65 429.329C1187.65 429.329 1193.67 410.41 1210.51 411.622L1212.93 413.473C1250.26 503.693 1336.31 568.362 1437.44 573.816H1438.65C1445.89 589.066 1430.84 601.858 1430.84 601.858H1430.8ZM1451.64 565.333C1313.15 565.333 1200.88 451.581 1200.88 311.268C1200.88 170.956 1313.15 57.2042 1451.64 57.2042C1590.14 57.2042 1702.44 170.956 1702.44 311.268C1702.44 451.581 1590.17 565.333 1451.64 565.333ZM1670.96 496.96C1630.64 518.91 1613.8 532.948 1613.8 532.948C1613.8 532.948 1596.33 545.134 1563.85 576.846C1563.85 576.846 1514.49 629.261 1480.8 602.464C1480.8 602.464 1465.14 590.884 1471.77 575.634L1472.38 573.816C1573.51 565.265 1658.37 498.812 1693.89 407.952C1710.72 405.528 1719.17 423.808 1719.17 423.808C1734.19 464.07 1671 496.994 1671 496.994L1670.96 496.96ZM1732.94 379.304C1732.94 379.304 1715.5 390.884 1702.84 379.304C1708.87 357.355 1711.87 334.8 1711.87 310.999C1711.87 231.147 1676.35 160.385 1620.97 111.606C1624.61 95.1439 1643.83 92.72 1643.83 92.72C1687.16 91.5081 1696.82 162.809 1696.82 162.809C1704.63 207.953 1711.87 228.656 1711.87 228.656C1711.87 228.656 1717.29 249.393 1736.54 291.44C1736.54 291.44 1769.03 355.47 1732.94 379.27V379.304Z" fill="#981A45"/>
<path d="M1436.03 172.37V179.271H1451.98H1467.97V172.37H1451.98H1436.03Z" fill="#981A45"/>
<path d="M1301.67 321.805H1290.5V351.127H1301.67V321.805Z" fill="#981A45"/>
<path d="M1347.09 321.805H1335.91V351.127H1347.09V321.805Z" fill="#981A45"/>
<path d="M1323.76 175.837H1313.82V182.772H1323.76V175.837Z" fill="#981A45"/>
<path d="M1613.5 321.805H1602.33V351.127H1613.5V321.805Z" fill="#981A45"/>
<path d="M1568.09 321.805H1556.91V351.127H1568.09V321.805Z" fill="#981A45"/>
<path d="M1590.17 175.837H1580.24V182.772H1590.17V175.837Z" fill="#981A45"/>
<path d="M1599.5 160.251V145.943H1589V129.044H1581.39V145.943H1571.09V160.082C1558.83 171.865 1542.67 187.418 1540.18 189.808C1536.85 185.095 1491.17 120.56 1491.17 120.56V111.976H1480.43V105.512H1464.41V111.976H1455.75V91.2051H1448.28V111.976H1439.63V105.512H1423.6V111.976H1412.87V120.56C1412.87 120.56 1367.18 185.095 1363.85 189.808C1361.39 187.418 1345.23 171.898 1332.95 160.082V145.943H1322.65V129.044H1315.04V145.943H1304.57V160.251L1270.77 192.737V444.209H1633.33V192.737L1599.57 160.251H1599.5ZM1574.99 163.853H1595.39C1604.55 172.673 1617.38 184.994 1623.84 191.222H1546.51C1554.12 183.917 1566.27 172.235 1574.96 163.853H1574.99ZM1542.51 196.642H1627.91V211.353H1542.51V196.642ZM1627.91 216.908V246.7C1624.01 243.334 1617.61 239.833 1607.92 239.833C1595.46 239.833 1588.49 245.589 1585.23 249.394C1581.96 245.589 1575.03 239.833 1562.54 239.833C1552.84 239.833 1546.45 243.368 1542.54 246.7V216.874H1627.95L1627.91 216.908ZM1624.85 251.211H1590.95C1594.01 248.451 1599.4 245.286 1607.92 245.286C1616.43 245.286 1621.79 248.451 1624.85 251.211ZM1579.47 251.211H1545.57C1548.63 248.451 1553.99 245.286 1562.5 245.286C1571.02 245.286 1576.37 248.451 1579.47 251.211ZM1510.96 196.642V240.607H1479.99V196.642H1510.96ZM1479.99 191.188V153.955C1487.2 163.482 1502.04 183.041 1508.2 191.188H1479.99ZM1451.98 298.611H1439.39V263.263H1464.57V298.611H1451.98ZM1474.64 191.188H1429.36V148.67H1474.64V191.188ZM1451.98 196.642H1474.61V240.607H1464.54V221.688C1464.54 214.652 1458.92 208.929 1451.95 208.929C1444.98 208.929 1439.36 214.652 1439.36 221.688V240.607H1429.33V196.642H1451.95H1451.98ZM1423.97 191.188H1395.76C1401.92 183.041 1416.77 163.482 1423.97 153.955V191.188ZM1423.97 196.642V240.607H1393V196.642H1423.97ZM1414.14 263.297V298.644H1393V263.297H1414.14ZM1489.86 298.611V263.263H1511V298.611H1489.86ZM1537.12 245.354C1534.8 242.459 1531.3 240.641 1527.36 240.641H1516.35V196.675H1537.15V245.387L1537.12 245.354ZM1415.56 125.98H1488.41C1489.65 127.765 1522.07 173.548 1534.56 191.188H1514.97L1478.61 143.216H1425.32L1389 191.188H1369.4C1381.89 173.548 1414.31 127.731 1415.56 125.98ZM1387.65 196.642V240.607H1376.64C1372.7 240.607 1369.17 242.459 1366.88 245.32V196.608H1387.68L1387.65 196.642ZM1308.57 163.853H1328.97C1337.66 172.201 1349.81 183.883 1357.42 191.222H1280.09C1286.56 184.994 1299.38 172.673 1308.54 163.853H1308.57ZM1276.09 196.642H1361.49V211.353H1276.09V196.642ZM1361.46 216.908V246.734C1357.55 243.368 1351.16 239.867 1341.46 239.867C1329.01 239.867 1322.04 245.623 1318.77 249.427C1315.51 245.623 1308.54 239.867 1296.08 239.867C1286.39 239.867 1279.99 243.368 1276.09 246.734V216.941H1361.49L1361.46 216.908ZM1358.43 251.211H1324.53C1327.59 248.451 1332.98 245.286 1341.46 245.286C1349.95 245.286 1355.33 248.451 1358.43 251.211ZM1313.05 251.211H1279.15C1282.21 248.451 1287.57 245.286 1296.08 245.286C1304.6 245.286 1309.95 248.451 1313.02 251.211H1313.05ZM1293.49 438.789H1276.05V375.433H1293.49V438.789ZM1279.15 369.979C1282.21 367.218 1287.57 364.054 1296.08 364.054C1304.6 364.054 1309.95 367.218 1313.02 369.979H1279.12H1279.15ZM1316.08 438.789H1298.88V375.433H1316.08V438.789ZM1338.7 438.789H1321.47V375.433H1338.7V438.789ZM1324.53 369.979C1327.59 367.218 1332.98 364.054 1341.46 364.054C1349.95 364.054 1355.33 367.218 1358.43 369.979H1324.53ZM1361.46 438.789H1344.06V375.433H1361.46V438.789ZM1361.46 365.502C1357.55 362.135 1351.16 358.634 1341.46 358.634C1329.01 358.634 1322.04 364.391 1318.77 368.195C1315.51 364.391 1308.54 358.634 1296.08 358.634C1286.39 358.634 1279.99 362.135 1276.09 365.502V304.3H1361.49V365.502H1361.46ZM1361.46 299.553L1276.05 298.846V286.694H1361.46V299.52V299.553ZM1361.46 281.274H1347.05V269.558H1335.88V281.274H1301.64V269.558H1290.46V281.274H1276.05V256.665H1361.46V281.274ZM1366.85 341.162C1369.17 344.057 1372.67 345.875 1376.61 345.875C1383.44 345.875 1389 340.388 1389.2 333.487V304.266H1398.09V353.214H1388.56V438.755H1366.81V341.129L1366.85 341.162ZM1500.49 438.789H1403.51V304.3H1414.14V332.208C1414.11 332.645 1414.08 333.083 1414.08 333.554C1414.08 340.59 1419.73 346.313 1426.67 346.313C1433.6 346.313 1439.26 340.59 1439.26 333.554H1439.39V304.334H1464.57V333.554H1464.71C1464.71 340.59 1470.33 346.313 1477.3 346.313C1484.27 346.313 1489.89 340.59 1489.89 333.554C1489.89 333.117 1489.89 332.645 1489.82 332.208V304.3H1500.46V438.789H1500.49ZM1515.41 438.789V353.248H1505.88V304.3H1514.77V333.521C1514.97 340.388 1520.52 345.909 1527.36 345.909C1531.3 345.909 1534.83 344.057 1537.12 341.196V438.822H1515.37L1515.41 438.789ZM1559.91 438.789H1542.51V375.433H1559.91V438.789ZM1545.57 369.979C1548.63 367.218 1554.02 364.054 1562.54 364.054C1571.05 364.054 1576.41 367.218 1579.5 369.979H1545.6H1545.57ZM1582.53 438.789H1565.3V375.433H1582.53V438.789ZM1605.12 438.789H1587.92V375.433H1605.12V438.789ZM1590.95 369.979C1594.01 367.218 1599.4 364.054 1607.92 364.054C1616.43 364.054 1621.79 367.218 1624.85 369.979H1590.95ZM1627.91 438.789H1610.51V375.433H1627.91V438.789ZM1627.91 365.502C1624.01 362.135 1617.61 358.634 1607.92 358.634C1595.46 358.634 1588.49 364.391 1585.23 368.195C1581.96 364.391 1575.03 358.634 1562.54 358.634C1552.84 358.634 1546.45 362.135 1542.54 365.502V304.3H1627.95V365.502H1627.91ZM1627.91 298.88H1542.51V286.694H1627.91V298.88ZM1627.91 281.274H1613.5V269.558H1602.33V281.274H1568.09V269.558H1556.91V281.274H1542.51V256.665H1627.91V281.274Z" fill="#981A45"/>
<path d="M1451.98 346.414C1449.96 346.38 1425.66 346.313 1423.97 372.537V429.127H1451.98H1479.99V372.706C1478.31 346.347 1454 346.38 1451.98 346.414ZM1474.64 423.673H1429.36V372.706C1430.74 351.127 1451.01 351.834 1451.85 351.868L1451.98 349.208L1452.12 351.868C1452.99 351.834 1473.23 351.127 1474.64 372.874V423.673Z" fill="#981A45"/>
</g>
<path d="M645.769 150.26H419.189L428.06 167.913H465.342C468.617 167.913 471.548 169.513 473.812 172.542C477.997 178.14 479.087 187.433 476.591 196.213C472.463 210.722 458.537 224.958 448.468 224.958H429.76L442.003 181.915H423.277L405.692 243.749H443.776C454.07 243.749 465.765 238.101 475.868 228.249C484.959 219.378 491.984 207.932 495.141 196.84C497.976 186.875 497.857 176.443 494.859 167.907H515.696L494.13 243.749H559.551L564.893 224.958H518.198L523.613 205.922H552.413L557.755 187.131H528.955L534.422 167.913H601.74L580.174 243.755H598.899L620.465 167.913H654.646L645.775 150.26H645.769Z" fill="#122066"/>
<path d="M714.889 221.161L715.837 226.969C710.01 228.245 701.133 228.928 689.206 229.019H682.43V188.772H709.806V194.444H689.274V223.006C700.974 223.006 709.513 222.391 714.889 221.161ZM728.035 243.984H721.055V183.1H728.035V243.984Z" fill="#3D3D3D"/>
<path d="M778.451 224.168L774.386 229.293C771.449 227.653 768.467 225.125 765.441 221.708C762.414 218.291 760.426 215.08 759.477 212.073C758.664 215.444 756.869 218.895 754.09 222.425C751.312 225.956 748.161 228.655 744.637 230.523L740.232 225.398C745.157 222.619 748.997 218.872 751.752 214.157C754.508 209.442 755.886 204.056 755.886 197.997V194.99H743.282V189.455H775.334V194.99H763.069V197.928C763.069 203.851 764.469 209.067 767.27 213.576C770.071 218.086 773.798 221.617 778.451 224.168ZM790.446 243.984H783.534V183.1H790.446V243.984Z" fill="#3D3D3D"/>
<path d="M829.884 196.903V202.37H811.927V208.11C821.73 208.11 829.455 207.586 835.102 206.538L836.051 211.936C831.172 213.03 824.012 213.622 814.57 213.713H805.015V186.107H831.985V191.642H811.927V196.903H829.884ZM854.415 243.437H813.011V228.131H845.47V223.485H812.876V217.813H852.382V233.256H819.991V237.903H854.415V243.437ZM852.382 214.67H845.47V202.575H833.95V196.698H845.47V183.1H852.382V214.67Z" fill="#3D3D3D"/>
<path d="M919.259 235.237H864.709V229.566H877.449V210.57H884.429V229.566H891.95V210.57H898.93V229.566H919.259V235.237ZM912.754 189.797C912.754 203.736 911.873 214.647 910.111 222.528L903.47 221.503C904.961 215.899 905.706 207.221 905.706 195.468H871.011V189.797H912.754Z" fill="#3D3D3D"/>
<path d="M933.083 224.031H940.876V216.583H926.714V210.98H981.264V216.583H966.898V224.031H974.216V244.189H967.304V229.566H933.083V224.031ZM974.894 195.332C974.894 198.794 973.053 201.584 969.371 203.703C965.689 205.821 960.573 206.88 954.022 206.88C947.472 206.88 942.356 205.821 938.674 203.703C934.992 201.584 933.151 198.794 933.151 195.332C933.151 191.87 934.992 189.08 938.674 186.961C942.356 184.843 947.449 183.784 953.955 183.784C960.46 183.784 965.689 184.832 969.371 186.927C973.053 189.023 974.894 191.824 974.894 195.332ZM967.779 195.332C967.779 193.419 966.559 191.915 964.119 190.822C961.68 189.729 958.292 189.182 953.955 189.182C949.618 189.182 946.297 189.729 943.858 190.822C941.418 191.915 940.199 193.419 940.199 195.332C940.199 197.245 941.418 198.692 943.858 199.808C946.297 200.924 949.663 201.482 953.955 201.482C958.246 201.482 961.567 200.924 964.052 199.808C966.536 198.692 967.779 197.2 967.779 195.332ZM947.788 216.583V224.031H959.986V216.583H947.788Z" fill="#3D3D3D"/>
<path d="M1043.27 215.626H988.718V210.091H1009.93V199.226H1016.91V210.091H1043.27V215.626ZM1031 223.997C1034.66 226.069 1036.49 228.882 1036.49 232.436C1036.49 235.989 1034.66 238.791 1031 240.841C1027.34 242.89 1022.19 243.915 1015.55 243.915C1008.91 243.915 1003.74 242.879 1000.03 240.806C996.33 238.734 994.478 235.943 994.478 232.436C994.478 228.928 996.33 226.069 1000.03 223.997C1003.74 221.924 1008.91 220.888 1015.55 220.888C1022.19 220.888 1027.34 221.924 1031 223.997ZM1036.22 185.492C1036.45 193.464 1035.84 200.593 1034.39 206.88L1027.68 205.923C1028.86 201.185 1029.38 196.243 1029.24 191.095H995.155V185.492H1036.22ZM1015.55 226.559C1011.22 226.559 1007.82 227.072 1005.35 228.097C1002.89 229.122 1001.66 230.568 1001.66 232.436C1001.66 234.303 1002.89 235.807 1005.35 236.809C1007.82 237.811 1011.22 238.312 1015.55 238.312C1019.89 238.312 1023.28 237.811 1025.72 236.809C1028.16 235.807 1029.38 234.349 1029.38 232.436C1029.38 230.522 1028.15 229.122 1025.68 228.097C1023.22 227.072 1019.84 226.559 1015.55 226.559Z" fill="#3D3D3D"/>
<path d="M1085.21 198.338H1050.25V192.872H1085.21V198.338ZM1081.96 210.843C1081.96 213.804 1080.62 216.23 1077.93 218.121C1075.24 220.011 1071.86 220.956 1067.8 220.956C1063.73 220.956 1060.33 220.011 1057.6 218.121C1054.87 216.23 1053.5 213.804 1053.5 210.843C1053.5 207.882 1054.86 205.32 1057.57 203.429C1060.28 201.539 1063.69 200.593 1067.8 200.593C1071.91 200.593 1075.24 201.539 1077.93 203.429C1080.62 205.32 1081.96 207.791 1081.96 210.843ZM1058.24 224.031H1097.68V244.052H1090.7V229.634H1058.24V224.031ZM1058.99 189.387V183.784H1076.68V189.387H1058.99ZM1075.05 210.843C1075.05 209.431 1074.34 208.269 1072.91 207.358C1071.49 206.447 1069.79 205.992 1067.8 205.992C1065.81 205.992 1064.03 206.447 1062.58 207.358C1061.13 208.269 1060.41 209.431 1060.41 210.843C1060.41 212.255 1061.15 213.349 1062.61 214.26C1064.08 215.171 1065.81 215.626 1067.8 215.626C1069.79 215.626 1071.49 215.171 1072.91 214.26C1074.34 213.349 1075.05 212.21 1075.05 210.843ZM1106.49 204.967H1097.61V220.82H1090.63V183.1H1097.61V199.227H1106.49V204.967Z" fill="#3D3D3D"/>
<path d="M1143.08 213.371L1139.56 218.565C1137.35 217.517 1135.1 215.82 1132.82 213.474C1130.54 211.128 1128.99 208.884 1128.18 206.743C1127.36 209.294 1125.85 211.868 1123.64 214.465C1121.42 217.061 1118.98 219.066 1116.32 220.478C1115.87 219.84 1115.18 218.975 1114.25 217.881C1113.32 216.788 1112.68 216.014 1112.32 215.558C1116.07 213.508 1119.06 210.718 1121.3 207.187C1123.53 203.657 1124.65 199.773 1124.65 195.537V187.884H1131.36V195.332C1131.36 199.386 1132.49 203.008 1134.75 206.197C1137.01 209.385 1139.79 211.777 1143.08 213.371ZM1165.38 242.276H1123.57V222.938H1130.48V236.673H1165.38V242.276ZM1152.1 226.559H1145.52V204.01H1137.93V198.27H1145.52V184.194H1152.1V226.559ZM1163.62 228.336H1156.98V183.1H1163.62V228.336Z" fill="#3D3D3D"/>
<path d="M1201.9 205.24V210.912H1184.08V224.305C1194.38 224.305 1202.58 223.69 1208.68 222.46L1209.7 227.994C1203.73 229.27 1195.01 229.953 1183.54 230.044H1177.24V188.567H1204.89V194.102H1184.08V205.24H1201.9ZM1224.4 243.984H1217.49V211.185H1206.58V205.377H1217.49V183.1H1224.4V243.984Z" fill="#3D3D3D"/>
<path d="M1215.19 166.983V160.8L1210.01 151H1212.56L1216.48 158.537H1216.55L1220.4 151H1222.72L1217.57 160.8V166.983H1215.19Z" fill="#868686"/>
<path d="M1194.09 166.983V153.007H1189.42V151H1201.09V153.007H1196.47V166.983H1194.09Z" fill="#868686"/>
<path d="M1176.45 166.983V151H1178.86V166.983H1176.45Z" fill="#868686"/>
<path d="M1164.14 166.004C1163.23 166.844 1161.85 167.264 1160.01 167.264C1158.17 167.264 1156.62 166.914 1155.37 166.214V164.254C1156.78 164.922 1158.27 165.257 1159.85 165.257C1161.98 165.257 1163.05 164.394 1163.05 162.667C1163.05 161.982 1162.87 161.454 1162.51 161.08C1162.16 160.707 1161.53 160.372 1160.61 160.077L1159.06 159.564C1157.9 159.206 1157.02 158.685 1156.42 158C1155.83 157.316 1155.53 156.359 1155.53 155.13C1155.53 153.792 1155.97 152.727 1156.86 151.934C1157.74 151.125 1159.01 150.72 1160.66 150.72C1162.16 150.72 1163.5 151.016 1164.67 151.607V153.567C1163.37 153.007 1162.04 152.727 1160.66 152.727C1159.78 152.727 1159.1 152.914 1158.62 153.287C1158.14 153.66 1157.9 154.205 1157.9 154.92C1157.9 155.62 1158.05 156.149 1158.34 156.507C1158.65 156.865 1159.21 157.168 1160.03 157.417L1161.61 157.907C1162.92 158.327 1163.9 158.871 1164.53 159.54C1165.18 160.209 1165.51 161.189 1165.51 162.48C1165.51 163.989 1165.05 165.164 1164.14 166.004Z" fill="#868686"/>
<path d="M1134.57 166.983V151H1139.54C1143.14 151 1144.94 152.54 1144.94 155.62C1144.94 156.709 1144.69 157.58 1144.18 158.233C1143.68 158.887 1142.95 159.4 1141.97 159.773V159.89L1146.03 166.983H1143.36L1139.65 160.333H1136.96V166.983H1134.57ZM1136.96 158.56H1139.31C1140.4 158.56 1141.2 158.327 1141.69 157.86C1142.19 157.393 1142.44 156.67 1142.44 155.69C1142.44 154.726 1142.19 154.033 1141.69 153.613C1141.2 153.178 1140.4 152.96 1139.28 152.96H1136.96V158.56Z" fill="#868686"/>
<path d="M1113.55 166.983V151H1123.2V153.007H1115.94V157.767H1121.57V159.75H1115.94V164.977H1123.29V166.983H1113.55Z" fill="#868686"/>
<path d="M1095.27 166.983L1089.59 151H1092.07L1096.5 163.833H1096.57L1100.97 151H1103.25L1097.56 166.983H1095.27Z" fill="#868686"/>
<path d="M1076.84 166.983V151H1079.25V166.983H1076.84Z" fill="#868686"/>
<path d="M1052.96 166.983V151H1055.72L1062.72 162.97H1062.79V151H1064.95V166.983H1062.54L1055.21 154.313H1055.12V166.983H1052.96Z" fill="#868686"/>
<path d="M1039.76 165.84C1038.8 166.789 1037.34 167.263 1035.36 167.263C1033.38 167.263 1031.87 166.781 1030.83 165.817C1029.8 164.837 1029.28 163.367 1029.28 161.407V151H1031.74V161.267C1031.74 162.791 1032.04 163.864 1032.64 164.487C1033.25 165.109 1034.18 165.42 1035.45 165.42C1036.7 165.42 1037.61 165.117 1038.16 164.51C1038.74 163.888 1039.02 162.799 1039.02 161.243V151H1041.2V161.337C1041.2 163.374 1040.72 164.876 1039.76 165.84Z" fill="#868686"/>
<path d="M1002.97 166.004C1002.06 166.844 1000.68 167.264 998.843 167.264C997.003 167.264 995.457 166.914 994.205 166.214V164.254C995.612 164.922 997.104 165.257 998.681 165.257C1000.81 165.257 1001.88 164.394 1001.88 162.667C1001.88 161.982 1001.7 161.454 1001.35 161.08C1000.99 160.707 1000.36 160.372 999.446 160.077L997.892 159.564C996.733 159.206 995.851 158.685 995.248 158C994.661 157.316 994.367 156.359 994.367 155.13C994.367 153.792 994.808 152.727 995.689 151.934C996.57 151.125 997.838 150.72 999.492 150.72C1000.99 150.72 1002.33 151.016 1003.5 151.607V153.567C1002.21 153.007 1000.87 152.727 999.492 152.727C998.611 152.727 997.931 152.914 997.452 153.287C996.972 153.66 996.733 154.205 996.733 154.92C996.733 155.62 996.879 156.149 997.173 156.507C997.482 156.865 998.047 157.168 998.866 157.417L1000.44 157.907C1001.76 158.327 1002.73 158.871 1003.37 159.54C1004.01 160.209 1004.34 161.189 1004.34 162.48C1004.34 163.989 1003.88 165.164 1002.97 166.004Z" fill="#868686"/>
<path d="M984.069 149.833V152.47C984.069 153.31 983.814 154.057 983.304 154.71C982.809 155.363 982.168 155.776 981.379 155.947V154.71C982.322 154.43 982.809 153.73 982.84 152.61H981.333V149.833H984.069Z" fill="#868686"/>
<path d="M958.541 166.983V151H961.301L968.305 162.97H968.374V151H970.531V166.983H968.119L960.791 154.313H960.698V166.983H958.541Z" fill="#868686"/>
<path d="M937.515 166.983V151H947.163V153.007H939.904V157.767H945.539V159.75H939.904V164.977H947.255V166.983H937.515Z" fill="#868686"/>
<path d="M910.419 166.983V151H913.874L918.026 163.74H918.095L922.247 151H925.656V166.983H923.267V154.08H923.221L918.953 166.983H916.843L912.645 154.08H912.553V166.983H910.419Z" fill="#868686"/>
<path d="M897.518 165.117C896.25 166.532 894.518 167.24 892.323 167.24C890.127 167.24 888.404 166.548 887.151 165.164C885.899 163.779 885.273 161.796 885.273 159.214V158.747C885.273 156.242 885.914 154.282 887.198 152.867C888.481 151.436 890.22 150.72 892.416 150.72C894.611 150.72 896.327 151.412 897.564 152.797C898.817 154.181 899.443 156.172 899.443 158.77V159.237C899.443 161.741 898.801 163.701 897.518 165.117ZM892.392 165.327C893.861 165.327 894.974 164.806 895.732 163.764C896.49 162.706 896.868 161.306 896.868 159.564V158.794C896.868 154.718 895.346 152.672 892.3 152.657C890.831 152.657 889.718 153.178 888.96 154.22C888.218 155.262 887.847 156.647 887.847 158.374V159.19C887.847 163.281 889.362 165.327 892.392 165.327Z" fill="#868686"/>
<path d="M860.365 166.983L856.376 151H858.811L861.664 163.343H861.733L865.189 151H867.183L870.569 163.343H870.615L873.514 151H875.694L871.752 166.983H869.433L866.139 154.873H866.07L862.684 166.983H860.365Z" fill="#868686"/>
<path d="M827.148 167.24C824.782 167.24 822.943 166.595 821.628 165.304C820.314 164.012 819.657 162.021 819.657 159.33V158.864C819.657 157.386 819.858 156.11 820.26 155.037C820.678 153.948 821.25 153.1 821.976 152.494C822.718 151.887 823.53 151.444 824.411 151.164C825.293 150.868 826.259 150.72 827.31 150.72C828.918 150.72 830.341 151.039 831.578 151.677V153.684C830.093 153.046 828.655 152.727 827.264 152.727C825.486 152.727 824.195 153.271 823.391 154.36C822.602 155.449 822.208 156.849 822.208 158.56V159.307C822.208 161.22 822.572 162.69 823.298 163.717C824.025 164.744 825.316 165.257 827.171 165.257C828.3 165.257 829.189 165.125 829.838 164.86V160.94H826.684V159.027H832.227V166.284C830.696 166.921 829.003 167.24 827.148 167.24Z" fill="#868686"/>
<path d="M796.726 166.983V151H799.486L806.49 162.97H806.56V151H808.716V166.983H806.304L798.976 154.313H798.883V166.983H796.726Z" fill="#868686"/>
<path d="M783.529 165.84C782.571 166.789 781.102 167.263 779.123 167.263C777.144 167.263 775.637 166.781 774.601 165.817C773.565 164.837 773.047 163.367 773.047 161.407V151H775.505V161.267C775.505 162.791 775.807 163.864 776.41 164.487C777.013 165.109 777.948 165.42 779.216 165.42C780.468 165.42 781.373 165.117 781.929 164.51C782.501 163.888 782.787 162.799 782.787 161.243V151H784.967V161.337C784.967 163.374 784.488 164.876 783.529 165.84Z" fill="#868686"/>
<path d="M760.946 166.004C760.034 166.844 758.658 167.264 756.818 167.264C754.978 167.264 753.432 166.914 752.18 166.214V164.254C753.587 164.922 755.079 165.257 756.656 165.257C758.789 165.257 759.856 164.394 759.856 162.667C759.856 161.982 759.678 161.454 759.323 161.08C758.967 160.707 758.333 160.372 757.421 160.077L755.867 159.564C754.708 159.206 753.826 158.685 753.223 158C752.636 157.316 752.342 156.359 752.342 155.13C752.342 153.792 752.783 152.727 753.664 151.934C754.545 151.125 755.813 150.72 757.467 150.72C758.967 150.72 760.305 151.016 761.48 151.607V153.567C760.181 153.007 758.843 152.727 757.467 152.727C756.586 152.727 755.906 152.914 755.427 153.287C754.947 153.66 754.708 154.205 754.708 154.92C754.708 155.62 754.855 156.149 755.148 156.507C755.458 156.865 756.022 157.168 756.841 157.417L758.418 157.907C759.732 158.327 760.707 158.871 761.34 159.54C761.99 160.209 762.314 161.189 762.314 162.48C762.314 163.989 761.858 165.164 760.946 166.004Z" fill="#868686"/>
<path d="M740.108 166.983L733.985 158.84L740.062 151H742.566L736.699 158.607L742.914 166.983H740.108ZM731.156 166.983V151H733.545V166.983H731.156Z" fill="#868686"/>
<path d="M717.959 165.84C717.001 166.789 715.532 167.263 713.553 167.263C711.574 167.263 710.066 166.781 709.03 165.817C707.995 164.837 707.477 163.367 707.477 161.407V151H709.935V161.267C709.935 162.791 710.236 163.864 710.839 164.487C711.442 165.109 712.378 165.42 713.645 165.42C714.898 165.42 715.802 165.117 716.359 164.51C716.931 163.888 717.217 162.799 717.217 161.243V151H719.397V161.337C719.397 163.374 718.918 164.876 717.959 165.84Z" fill="#868686"/>
<path d="M684.144 166.983V151H689.107C691.549 151 693.412 151.63 694.696 152.89C695.994 154.134 696.644 156.017 696.644 158.537V159.027C696.644 161.593 696.018 163.561 694.765 164.93C693.528 166.299 691.658 166.983 689.153 166.983H684.144ZM686.532 164.977H689.199C690.885 164.977 692.114 164.533 692.887 163.647C693.675 162.76 694.07 161.321 694.07 159.33V158.537C694.07 156.514 693.644 155.091 692.794 154.267C691.944 153.427 690.653 153.007 688.921 153.007H686.532V164.977Z" fill="#868686"/>
<path d="M1294.24 146.062H1291.5V252.968H1294.24V146.062Z" fill="#122066"/>
<path d="M1313.19 174.86V154.927H1320.01C1326.45 154.927 1329.67 158.084 1329.67 164.4V164.981C1329.67 168.215 1328.86 170.671 1327.23 172.349C1325.61 174.026 1323.21 174.86 1320.04 174.86H1313.19H1313.19ZM1317.31 171.691H1320.04C1321.87 171.691 1323.21 171.203 1324.05 170.222C1324.9 169.246 1325.32 167.612 1325.32 165.326V164.34C1325.32 162.015 1324.86 160.381 1323.95 159.444C1323.05 158.507 1321.66 158.035 1319.81 158.035H1317.31V171.691Z" fill="#122066"/>
<path d="M1333.93 157.542V154.285H1337.82V157.542H1333.93ZM1333.96 174.86V159.811H1337.79V174.86H1333.96Z" fill="#122066"/>
<path d="M1348.32 179.163C1343.6 179.163 1341.24 178.012 1341.24 175.704C1341.24 174.328 1342.18 173.341 1344.05 172.738V172.595C1343.01 172.168 1342.49 171.482 1342.49 170.534C1342.49 170.013 1342.62 169.597 1342.87 169.284C1343.12 168.972 1343.58 168.555 1344.26 168.034C1342.98 167.278 1342.34 166.088 1342.34 164.46V164.257C1342.34 162.706 1342.89 161.538 1343.98 160.743C1345.07 159.948 1346.57 159.553 1348.46 159.553C1349.35 159.553 1350.17 159.641 1350.93 159.817H1356.06V162.168H1353.8C1354.28 162.733 1354.53 163.391 1354.53 164.142V164.372C1354.53 165.924 1353.98 167.075 1352.89 167.831C1351.8 168.588 1350.33 168.966 1348.47 168.966C1347.52 168.966 1346.75 168.878 1346.15 168.703C1345.86 168.955 1345.72 169.185 1345.72 169.399C1345.72 169.75 1345.8 169.964 1345.96 170.041C1346.13 170.117 1346.46 170.156 1346.97 170.156H1351.14C1354.45 170.156 1356.1 171.471 1356.1 174.108C1356.1 175.676 1355.45 176.91 1354.16 177.814C1352.86 178.713 1350.92 179.163 1348.33 179.163H1348.32ZM1348.26 176.603C1349.69 176.603 1350.7 176.455 1351.3 176.153C1351.9 175.852 1352.2 175.386 1352.2 174.744C1352.2 174.202 1352.05 173.851 1351.75 173.686C1351.45 173.522 1350.86 173.44 1349.99 173.44H1346.31C1345.4 173.752 1344.95 174.311 1344.95 175.122C1344.95 175.665 1345.19 176.049 1345.69 176.268C1346.18 176.493 1347.03 176.603 1348.25 176.603H1348.26ZM1348.46 166.636C1350.06 166.636 1350.87 165.902 1350.87 164.427V164.109C1350.87 163.298 1350.67 162.728 1350.26 162.41C1349.86 162.092 1349.25 161.933 1348.46 161.933C1346.82 161.933 1346 162.64 1346 164.054V164.405C1346 165.896 1346.82 166.642 1348.46 166.642V166.636Z" fill="#122066"/>
<path d="M1359.63 157.542V154.285H1363.52V157.542H1359.63ZM1359.66 174.86V159.811H1363.49V174.86H1359.66Z" fill="#122066"/>
<path d="M1373.67 175.035C1372.23 175.035 1371.14 174.728 1370.39 174.103C1369.63 173.484 1369.26 172.458 1369.26 171.022V162.624H1367.25V159.806H1369.26V156.259H1373V159.806H1376.45V162.624H1373V170.408C1373 171.05 1373.15 171.494 1373.45 171.746C1373.75 171.998 1374.26 172.124 1374.97 172.124C1375.59 172.124 1376.13 172.047 1376.59 171.894V174.421C1375.82 174.827 1374.84 175.03 1373.67 175.03V175.035Z" fill="#122066"/>
<path d="M1384.43 175.123C1382.99 175.123 1381.85 174.766 1381.01 174.048C1380.15 173.33 1379.73 172.267 1379.73 170.852C1379.73 168.298 1381.41 166.774 1384.75 166.291L1388.05 165.886V164.866C1388.05 163.956 1387.82 163.347 1387.36 163.035C1386.89 162.728 1386.03 162.569 1384.78 162.569C1383.29 162.569 1382.02 162.722 1380.98 163.035V160.36C1382.51 159.817 1384.26 159.548 1386.23 159.548C1389.96 159.548 1391.82 161.061 1391.82 164.082V174.86H1388.72L1388.43 173.637H1388.26C1387.5 174.624 1386.23 175.117 1384.43 175.117V175.123ZM1385.61 172.535C1386.7 172.535 1387.51 172.267 1388.05 171.724V168.237L1385.59 168.5C1384.85 168.577 1384.32 168.775 1383.98 169.082C1383.64 169.389 1383.47 169.887 1383.47 170.562C1383.47 171.877 1384.19 172.535 1385.61 172.535Z" fill="#122066"/>
<path d="M1396.67 174.86V153.622H1400.5V174.86H1396.67Z" fill="#122066"/>
<path d="M1313.19 208.426V188.493H1325.95V191.602H1317.31V196.656H1324.07V199.737H1317.31V205.258H1326.16V208.426H1313.19H1313.19Z" fill="#122066"/>
<path d="M1336.05 208.689C1335.25 208.689 1334.52 208.552 1333.83 208.284C1333.15 208.015 1332.51 207.598 1331.92 207.05C1331.33 206.496 1330.86 205.734 1330.53 204.753C1330.19 203.777 1330.02 202.637 1330.02 201.338V200.96C1330.02 198.284 1330.62 196.305 1331.85 195.017C1333.07 193.729 1334.7 193.087 1336.75 193.087C1338.08 193.087 1339.23 193.361 1340.2 193.899V187.189H1344V208.426H1340.75L1340.43 207.237H1340.28C1339.26 208.207 1337.85 208.689 1336.05 208.689ZM1337.44 205.784C1338.5 205.784 1339.42 205.466 1340.19 204.824V196.601C1339.63 196.174 1338.71 195.96 1337.44 195.96C1336.28 195.96 1335.4 196.316 1334.81 197.018C1334.22 197.725 1333.92 198.931 1333.92 200.636V201.157C1333.92 202.884 1334.23 204.084 1334.82 204.759C1335.42 205.438 1336.29 205.773 1337.43 205.773L1337.44 205.784Z" fill="#122066"/>
<path d="M1353.25 208.689C1350.21 208.689 1348.7 207.236 1348.7 204.331V193.378H1352.49V203.547C1352.49 204.32 1352.66 204.873 1353 205.202C1353.34 205.531 1353.93 205.696 1354.79 205.696C1355.64 205.696 1356.68 205.405 1357.8 204.824V193.378H1361.6V208.426H1358.32L1357.97 207.088H1357.82C1356.43 208.152 1354.9 208.689 1353.24 208.689H1353.25Z" fill="#122066"/>
<path d="M1372.91 208.689C1370.59 208.689 1368.8 208.053 1367.54 206.787C1366.28 205.521 1365.66 203.662 1365.66 201.223V200.79C1365.66 198.273 1366.34 196.36 1367.69 195.05C1369.04 193.74 1370.87 193.087 1373.17 193.087C1374.85 193.087 1376.22 193.389 1377.26 193.986V196.864C1376 196.36 1374.76 196.108 1373.52 196.108C1372.28 196.108 1371.32 196.47 1370.64 197.199C1369.95 197.928 1369.61 199.002 1369.61 200.439V201.02C1369.61 202.664 1369.93 203.86 1370.58 204.594C1371.23 205.329 1372.25 205.696 1373.64 205.696C1374.95 205.696 1376.21 205.394 1377.41 204.797V207.56C1376.17 208.316 1374.67 208.695 1372.92 208.695L1372.91 208.689Z" fill="#122066"/>
<path d="M1385.18 208.689C1383.75 208.689 1382.61 208.333 1381.76 207.615C1380.91 206.897 1380.49 205.833 1380.49 204.419C1380.49 201.864 1382.16 200.34 1385.5 199.858L1388.81 199.452V198.432C1388.81 197.522 1388.58 196.914 1388.11 196.601C1387.65 196.294 1386.79 196.135 1385.53 196.135C1384.04 196.135 1382.78 196.289 1381.73 196.601V193.926C1383.26 193.383 1385.01 193.115 1386.98 193.115C1390.71 193.115 1392.58 194.628 1392.58 197.649V208.426H1389.48L1389.19 207.204H1389.01C1388.26 208.191 1386.98 208.684 1385.18 208.684V208.689ZM1386.37 206.102C1387.45 206.102 1388.26 205.833 1388.8 205.29V201.804L1386.34 202.067C1385.61 202.144 1385.07 202.341 1384.73 202.648C1384.39 202.955 1384.22 203.454 1384.22 204.128C1384.22 205.444 1384.94 206.102 1386.37 206.102Z" fill="#122066"/>
<path d="M1402.64 208.602C1401.21 208.602 1400.12 208.295 1399.37 207.67C1398.61 207.05 1398.23 206.025 1398.23 204.589V196.19H1396.23V193.372H1398.23V189.826H1401.98V193.372H1405.43V196.19H1401.98V203.975C1401.98 204.616 1402.12 205.06 1402.43 205.312C1402.73 205.565 1403.24 205.691 1403.95 205.691C1404.56 205.691 1405.11 205.614 1405.57 205.46V207.988C1404.8 208.393 1403.82 208.596 1402.64 208.596V208.602Z" fill="#122066"/>
<path d="M1409.6 191.108V187.852H1413.49V191.108H1409.6ZM1409.63 208.426V193.378H1413.46V208.426H1409.63Z" fill="#122066"/>
<path d="M1424.8 208.689C1422.46 208.689 1420.67 208.037 1419.42 206.727C1418.18 205.416 1417.55 203.563 1417.55 201.162V200.757C1417.55 198.356 1418.22 196.475 1419.55 195.121C1420.89 193.767 1422.65 193.087 1424.84 193.087C1427.16 193.087 1428.95 193.74 1430.2 195.05C1431.46 196.355 1432.09 198.224 1432.09 200.642V201.047C1432.09 203.47 1431.42 205.345 1430.08 206.683C1428.75 208.02 1426.99 208.689 1424.8 208.689ZM1424.86 205.899C1427.06 205.899 1428.16 204.38 1428.16 201.338V200.642C1428.16 198.882 1427.86 197.648 1427.27 196.952C1426.66 196.256 1425.83 195.905 1424.77 195.905C1422.56 195.905 1421.46 197.446 1421.46 200.526V201.168C1421.46 202.911 1421.77 204.139 1422.36 204.841C1422.96 205.548 1423.79 205.899 1424.86 205.899Z" fill="#122066"/>
<path d="M1436.14 208.426V193.378H1439.8V194.715H1439.95C1441.4 193.63 1443.03 193.087 1444.85 193.087C1446.32 193.087 1447.42 193.416 1448.14 194.074C1448.87 194.732 1449.23 195.801 1449.23 197.27V208.426H1445.4V198.169C1445.4 197.435 1445.23 196.914 1444.89 196.612C1444.55 196.311 1443.93 196.163 1443.02 196.163C1442.19 196.163 1441.17 196.415 1439.95 196.919V208.426H1436.15H1436.14Z" fill="#122066"/>
<path d="M1457.78 208.689C1456.35 208.689 1455.21 208.333 1454.36 207.615C1453.51 206.897 1453.09 205.833 1453.09 204.419C1453.09 201.864 1454.76 200.34 1458.1 199.858L1461.41 199.452V198.432C1461.41 197.522 1461.18 196.914 1460.71 196.601C1460.25 196.294 1459.39 196.135 1458.13 196.135C1456.64 196.135 1455.38 196.289 1454.33 196.601V193.926C1455.86 193.383 1457.61 193.115 1459.58 193.115C1463.31 193.115 1465.18 194.628 1465.18 197.649V208.426H1462.08L1461.79 207.204H1461.61C1460.86 208.191 1459.58 208.684 1457.78 208.684V208.689ZM1458.97 206.102C1460.05 206.102 1460.86 205.833 1461.4 205.29V201.804L1458.94 202.067C1458.21 202.144 1457.67 202.341 1457.33 202.648C1456.99 202.955 1456.82 203.454 1456.82 204.128C1456.82 205.444 1457.54 206.102 1458.97 206.102Z" fill="#122066"/>
<path d="M1470.02 208.426V187.189H1473.85V208.426H1470.02Z" fill="#122066"/>
<path d="M1317.31 240.896V224.072H1311.77V220.963H1327V224.072H1321.4V240.896H1317.32H1317.31Z" fill="#122066"/>
<path d="M1337.53 241.159C1335.03 241.159 1333.15 240.502 1331.87 239.186C1330.6 237.87 1329.96 235.99 1329.96 233.55V233.172C1329.96 230.749 1330.6 228.88 1331.9 227.564C1333.2 226.248 1334.9 225.59 1337.01 225.59C1339.25 225.59 1340.89 226.21 1341.92 227.449C1342.95 228.688 1343.47 230.541 1343.47 232.997V234.389H1333.84C1333.98 235.782 1334.41 236.779 1335.15 237.366C1335.88 237.958 1336.96 238.254 1338.4 238.254C1339.91 238.254 1341.42 237.925 1342.95 237.267V239.767C1341.56 240.699 1339.75 241.159 1337.53 241.159ZM1336.92 228.288C1336.12 228.288 1335.44 228.567 1334.86 229.132C1334.28 229.696 1333.94 230.623 1333.85 231.922H1339.74C1339.74 230.623 1339.51 229.696 1339.04 229.132C1338.58 228.573 1337.87 228.288 1336.92 228.288H1336.92Z" fill="#122066"/>
<path d="M1354 241.16C1351.68 241.16 1349.89 240.524 1348.64 239.257C1347.38 237.991 1346.75 236.132 1346.75 233.693V233.26C1346.75 230.744 1347.43 228.83 1348.78 227.52C1350.13 226.21 1351.96 225.558 1354.26 225.558C1355.94 225.558 1357.3 225.859 1358.35 226.457V229.335C1357.09 228.83 1355.84 228.578 1354.61 228.578C1353.37 228.578 1352.41 228.94 1351.72 229.669C1351.04 230.398 1350.69 231.473 1350.69 232.909V233.49C1350.69 235.135 1351.02 236.33 1351.67 237.064C1352.32 237.799 1353.34 238.166 1354.73 238.166C1356.04 238.166 1357.3 237.865 1358.5 237.267V240.03C1357.26 240.787 1355.76 241.165 1354 241.165L1354 241.16Z" fill="#122066"/>
<path d="M1362.41 240.896V219.659H1366.21V227.098H1366.38C1367.7 226.073 1369.27 225.558 1371.11 225.558C1372.58 225.558 1373.68 225.887 1374.4 226.544C1375.13 227.202 1375.49 228.271 1375.49 229.74V240.896H1371.66V230.64C1371.66 229.905 1371.49 229.384 1371.15 229.083C1370.81 228.781 1370.19 228.633 1369.28 228.633C1368.45 228.633 1367.42 228.885 1366.2 229.39V240.896H1362.4H1362.41Z" fill="#122066"/>
<path d="M1380.19 240.896V225.848H1383.85V227.186H1383.99C1385.44 226.1 1387.07 225.558 1388.9 225.558C1390.36 225.558 1391.46 225.887 1392.19 226.544C1392.91 227.202 1393.28 228.271 1393.28 229.74V240.896H1389.44V230.639C1389.44 229.905 1389.27 229.384 1388.94 229.083C1388.6 228.781 1387.97 228.633 1387.06 228.633C1386.23 228.633 1385.21 228.885 1383.99 229.39V240.896H1380.19Z" fill="#122066"/>
<path d="M1404.44 241.16C1402.1 241.16 1400.31 240.507 1399.06 239.197C1397.81 237.892 1397.19 236.034 1397.19 233.633V233.227C1397.19 230.826 1397.86 228.946 1399.19 227.591C1400.53 226.237 1402.28 225.558 1404.47 225.558C1406.79 225.558 1408.58 226.21 1409.84 227.52C1411.09 228.825 1411.72 230.694 1411.72 233.112V233.518C1411.72 235.941 1411.06 237.815 1409.72 239.153C1408.39 240.491 1406.63 241.16 1404.44 241.16ZM1404.5 238.369C1406.7 238.369 1407.8 236.851 1407.8 233.808V233.112C1407.8 231.352 1407.5 230.119 1406.91 229.422C1406.31 228.726 1405.47 228.375 1404.41 228.375C1402.21 228.375 1401.11 229.916 1401.11 232.997V233.638C1401.11 235.381 1401.41 236.609 1402 237.311C1402.6 238.018 1403.43 238.369 1404.5 238.369Z" fill="#122066"/>
<path d="M1415.87 240.896V219.659H1419.7V240.896H1415.87Z" fill="#122066"/>
<path d="M1431.04 241.16C1428.69 241.16 1426.9 240.507 1425.66 239.197C1424.41 237.892 1423.79 236.034 1423.79 233.633V233.227C1423.79 230.826 1424.45 228.946 1425.79 227.591C1427.12 226.237 1428.88 225.558 1431.07 225.558C1433.39 225.558 1435.18 226.21 1436.43 227.52C1437.69 228.825 1438.32 230.694 1438.32 233.112V233.518C1438.32 235.941 1437.65 237.815 1436.32 239.153C1434.98 240.491 1433.23 241.16 1431.04 241.16ZM1431.1 238.369C1433.3 238.369 1434.4 236.851 1434.4 233.808V233.112C1434.4 231.352 1434.1 230.119 1433.5 229.422C1432.9 228.726 1432.07 228.375 1431.01 228.375C1428.8 228.375 1427.7 229.916 1427.7 232.997V233.638C1427.7 235.381 1428 236.609 1428.6 237.311C1429.2 238.018 1430.03 238.369 1431.1 238.369Z" fill="#122066"/>
<path d="M1448.03 245.194C1443.32 245.194 1440.96 244.043 1440.96 241.735C1440.96 240.359 1441.89 239.372 1443.77 238.769V238.626C1442.73 238.199 1442.21 237.514 1442.21 236.565C1442.21 236.044 1442.33 235.628 1442.58 235.315C1442.83 235.003 1443.3 234.586 1443.97 234.065C1442.7 233.309 1442.06 232.119 1442.06 230.491V230.288C1442.06 228.737 1442.61 227.569 1443.69 226.774C1444.79 225.979 1446.28 225.585 1448.18 225.585C1449.06 225.585 1449.89 225.672 1450.64 225.848H1455.77V228.2H1453.51C1453.99 228.764 1454.24 229.422 1454.24 230.173V230.403C1454.24 231.955 1453.69 233.106 1452.6 233.863C1451.5 234.619 1450.03 234.997 1448.18 234.997C1447.23 234.997 1446.45 234.91 1445.86 234.734C1445.57 234.986 1445.42 235.217 1445.42 235.43C1445.42 235.781 1445.51 235.995 1445.67 236.072C1445.83 236.149 1446.17 236.187 1446.67 236.187H1450.85C1454.15 236.187 1455.8 237.503 1455.8 240.139C1455.8 241.707 1455.16 242.941 1453.86 243.845C1452.57 244.744 1450.62 245.194 1448.03 245.194ZM1447.97 242.639C1449.4 242.639 1450.42 242.491 1451.02 242.19C1451.62 241.888 1451.92 241.422 1451.92 240.781C1451.92 240.238 1451.77 239.887 1451.47 239.723C1451.17 239.558 1450.58 239.476 1449.71 239.476H1446.03C1445.12 239.789 1444.67 240.348 1444.67 241.159C1444.67 241.702 1444.91 242.086 1445.41 242.305C1445.9 242.53 1446.75 242.639 1447.97 242.639ZM1448.18 232.673C1449.78 232.673 1450.58 231.938 1450.58 230.464V230.146C1450.58 229.334 1450.38 228.764 1449.98 228.446C1449.57 228.128 1448.97 227.969 1448.18 227.969C1446.53 227.969 1445.71 228.677 1445.71 230.091V230.442C1445.71 231.933 1446.53 232.678 1448.18 232.678V232.673Z" fill="#122066"/>
<path d="M1461.46 245.139C1460.42 245.139 1459.61 244.986 1459.06 244.673V242.086C1459.42 242.201 1459.94 242.261 1460.59 242.261C1461.29 242.261 1461.81 242.152 1462.14 241.943C1462.48 241.729 1462.78 241.313 1463.06 240.693L1463.58 239.356L1457.92 225.848H1461.92L1465.43 234.68H1465.55L1468.88 225.848H1472.54L1467.09 240.403C1466.01 243.56 1464.13 245.139 1461.46 245.139Z" fill="#122066"/>
<path d="M1485.45 240.896V220.963H1489.57V237.728H1497.75V240.896H1485.46H1485.45Z" fill="#122066"/>
<path d="M1505.52 241.159C1504.08 241.159 1502.95 240.803 1502.1 240.085C1501.24 239.367 1500.82 238.303 1500.82 236.889C1500.82 234.334 1502.5 232.81 1505.84 232.328L1509.15 231.922V230.902C1509.15 229.992 1508.92 229.384 1508.45 229.071C1507.99 228.764 1507.13 228.605 1505.87 228.605C1504.38 228.605 1503.11 228.759 1502.07 229.071V226.396C1503.6 225.853 1505.35 225.585 1507.32 225.585C1511.05 225.585 1512.92 227.098 1512.92 230.118V240.896H1509.81L1509.52 239.674H1509.35C1508.59 240.66 1507.32 241.154 1505.52 241.154V241.159ZM1506.71 238.572C1507.79 238.572 1508.6 238.303 1509.15 237.76V234.274L1506.68 234.537C1505.95 234.614 1505.41 234.811 1505.07 235.118C1504.74 235.425 1504.57 235.924 1504.57 236.598C1504.57 237.914 1505.28 238.572 1506.71 238.572Z" fill="#122066"/>
<path d="M1523.74 241.214C1521.36 241.214 1519.34 240.907 1517.67 240.282V219.653H1521.47V226.829H1521.65C1522.87 225.98 1524.32 225.552 1526 225.552C1527.68 225.552 1528.95 226.122 1530.03 227.268C1531.11 228.414 1531.66 230.25 1531.66 232.788V233.167C1531.66 238.533 1529.02 241.214 1523.74 241.214ZM1523.94 238.369C1526.47 238.369 1527.74 236.812 1527.74 233.693V233.172C1527.74 231.451 1527.46 230.256 1526.93 229.598C1526.39 228.94 1525.49 228.611 1524.23 228.611C1523.5 228.611 1522.58 228.836 1521.47 229.28V237.969C1522.17 238.243 1522.99 238.374 1523.93 238.374L1523.94 238.369Z" fill="#122066"/>
</g>
<defs>
<linearGradient id="paint0_linear_248_1749" x1="0" y1="0" x2="1915.32" y2="421.273" gradientUnits="userSpaceOnUse">
<stop stop-color="#122066" stop-opacity="0.1"/>
<stop offset="1" stop-color="#122066" stop-opacity="0.25"/>
</linearGradient>
<clipPath id="clip0_248_1749">
<rect width="1920" height="400" fill="white"/>
</clipPath>
<clipPath id="clip1_248_1749">
<rect width="668" height="668" fill="white" transform="translate(1118 -28)"/>
</clipPath>
</defs>
</svg>
