<svg width="1920" height="250" viewBox="0 0 1920 250" fill="none" xmlns="http://www.w3.org/2000/svg">
<g clip-path="url(#clip0_828_70460)">
<rect width="1920" height="250" fill="url(#paint0_linear_828_70460)"/>
<g opacity="0.2" clip-path="url(#clip1_828_70460)">
<path d="M1570.48 85.6008C1560.86 54.4414 1543.94 27.9301 1522.38 7.27193H1522.77C1511.21 -3.63817 1495.05 -7.94195 1479.28 -2.86348C1477.75 -2.47614 1476.2 -1.70146 1475.04 -1.31413L1473.88 -0.1521C1474.26 -1.70146 1474.26 -3.27234 1474.26 -4.43436C1474.26 -21.1976 1465.03 -35.6153 1451.95 -43.0178L1451.17 -43.4051C1425.83 -57.414 1396.19 -66 1364.26 -66C1332.33 -66 1301.94 -57.414 1276.53 -42.9963H1275.75C1262.67 -35.5938 1253.44 -21.1761 1253.44 -4.41285L1253.05 -2.47614H1252.66C1236.91 -7.53309 1220.75 -3.25082 1209.58 7.27193L1209.19 7.65927C1187.65 27.9301 1171.13 54.0326 1161.1 84.4388C1151.12 115.62 1149.57 147.188 1155.35 176.411V176.798C1158.04 191.99 1168.83 204.859 1184.6 210.324C1186.13 210.712 1187.68 211.099 1189.2 211.508L1186.51 214.219C1176.89 227.475 1176.53 244.626 1183.05 258.634L1183.44 259.022C1196.13 285.533 1216.15 309.699 1241.92 328.011C1268.46 346.711 1297.7 357.643 1326.95 360.742C1342.33 362.313 1357.74 355.685 1367.36 342.429C1367.75 341.654 1367.75 341.267 1368.52 340.471L1369.27 342.816C1378.89 356.072 1394.67 361.904 1409.66 359.967H1410.44C1439.3 356.051 1468.15 344.775 1493.55 325.666C1519.69 306.17 1538.93 281.229 1550.87 253.943L1551.26 254.331C1557.39 240.322 1556.25 223.214 1546.68 209.959C1562 204.687 1572.48 191.711 1575.49 177.164V176.368C1581.28 147.532 1580.12 115.964 1570.5 85.5578L1570.48 85.6008ZM1269.62 -8.71663C1276.94 -35.6153 1321.95 -27.8039 1321.95 -27.8039C1350.81 -23.909 1364.28 -24.2963 1364.28 -24.2963C1364.28 -24.2963 1378.14 -23.909 1407 -27.8039C1407 -27.8039 1451.63 -35.5938 1458.94 -8.71663C1458.94 -8.71663 1462.56 2.73144 1454.21 8.3694C1454.25 8.3694 1454.3 8.41243 1454.32 8.43395L1453.54 8.82129C1453.8 8.69218 1453.99 8.52003 1454.21 8.3694C1428.45 -7.96347 1398.11 -17.3027 1365.44 -17.3027C1332.78 -17.3027 1301.58 -7.55461 1275.8 9.20863L1275.02 8.82129C1265.79 3.37701 1269.64 -8.71663 1269.64 -8.71663H1269.62ZM1185.74 193.561C1162.65 177.96 1183.82 137.44 1183.82 137.44C1196.52 110.541 1199.98 97.2856 1199.98 97.2856C1199.98 97.2856 1204.98 84.4388 1209.97 55.1946C1209.97 55.1946 1216.51 9.59597 1244.23 10.758C1244.23 10.758 1256.54 11.1453 1258.84 21.6681V22.0554C1222.3 52.849 1199.6 98.8349 1199.6 150.674C1199.6 165.888 1200.74 179.122 1204.59 192.765L1204.2 193.54C1196.52 200.555 1185.74 193.54 1185.74 193.54V193.561ZM1351.95 336.619C1330.41 354.157 1298.09 321.814 1298.09 321.814C1276.94 301.543 1265.38 294.141 1265.38 294.141C1265.38 294.141 1254.6 285.576 1228.45 272.32C1228.45 272.32 1187.29 252.437 1196.52 226.335C1196.52 226.335 1200.37 214.241 1211.13 215.016L1212.68 216.199C1236.55 273.87 1291.55 315.208 1356.19 318.694H1356.97C1361.59 328.442 1351.97 336.619 1351.97 336.619H1351.95ZM1365.27 313.271C1276.74 313.271 1204.98 240.559 1204.98 150.868C1204.98 61.1768 1276.74 -11.5356 1365.27 -11.5356C1453.8 -11.5356 1525.59 61.1768 1525.59 150.868C1525.59 240.559 1453.82 313.271 1365.27 313.271ZM1505.47 269.566C1479.69 283.596 1468.93 292.57 1468.93 292.57C1468.93 292.57 1457.76 300.36 1436.99 320.63C1436.99 320.63 1405.45 354.135 1383.91 337.006C1383.91 337.006 1373.9 329.604 1378.14 319.856L1378.53 318.694C1443.17 313.228 1497.42 270.75 1520.12 212.67C1530.88 211.121 1536.28 222.805 1536.28 222.805C1545.88 248.542 1505.49 269.588 1505.49 269.588L1505.47 269.566ZM1545.08 194.357C1545.08 194.357 1533.94 201.76 1525.85 194.357C1529.7 180.327 1531.61 165.909 1531.61 150.696C1531.61 99.6526 1508.91 54.4199 1473.51 23.239C1475.84 12.7162 1488.12 11.1669 1488.12 11.1669C1515.82 10.3922 1521.99 55.9692 1521.99 55.9692C1526.99 84.8261 1531.61 98.0603 1531.61 98.0603C1531.61 98.0603 1535.08 111.316 1547.39 138.193C1547.39 138.193 1568.15 179.122 1545.08 194.336V194.357Z" fill="#981A45"/>
<path d="M1355.29 62.0806V66.492H1365.49H1375.71V62.0806H1365.49H1355.29Z" fill="#981A45"/>
<path d="M1269.41 157.603H1262.26V176.346H1269.41V157.603Z" fill="#981A45"/>
<path d="M1298.44 157.603H1291.29V176.346H1298.44V157.603Z" fill="#981A45"/>
<path d="M1283.52 64.2971H1277.18V68.73H1283.52V64.2971Z" fill="#981A45"/>
<path d="M1468.74 157.603H1461.59V176.346H1468.74V157.603Z" fill="#981A45"/>
<path d="M1439.71 157.603H1432.56V176.346H1439.71V157.603Z" fill="#981A45"/>
<path d="M1453.82 64.2971H1447.48V68.73H1453.82V64.2971Z" fill="#981A45"/>
<path d="M1459.79 54.3338V45.1883H1453.07V34.3858H1448.21V45.1883H1441.62V54.2262C1433.79 61.7578 1423.46 71.6996 1421.87 73.2274C1419.74 70.2148 1390.54 28.963 1390.54 28.963V23.4757H1383.67V19.344H1373.43V23.4757H1367.9V10.1985H1363.12V23.4757H1357.59V19.344H1347.35V23.4757H1340.48V28.963C1340.48 28.963 1311.28 70.2148 1309.15 73.2274C1307.58 71.6996 1297.25 61.7793 1289.4 54.2262V45.1883H1282.81V34.3858H1277.95V45.1883H1271.26V54.3338L1249.65 75.0996V235.846H1481.41V75.0996L1459.83 54.3338H1459.79ZM1444.12 56.6363H1457.16C1463.01 62.2743 1471.21 70.1502 1475.34 74.1312H1425.91C1430.78 69.4616 1438.55 61.9945 1444.1 56.6363H1444.12ZM1423.35 77.5958H1477.95V86.9995H1423.35V77.5958ZM1477.95 90.5501V109.594C1475.45 107.443 1471.36 105.205 1465.16 105.205C1457.2 105.205 1452.75 108.884 1450.66 111.316C1448.57 108.884 1444.14 105.205 1436.16 105.205C1429.96 105.205 1425.87 107.464 1423.38 109.594V90.5286H1477.97L1477.95 90.5501ZM1475.99 112.478H1454.32C1456.28 110.713 1459.72 108.691 1465.16 108.691C1470.61 108.691 1474.03 110.713 1475.99 112.478ZM1446.98 112.478H1425.31C1427.27 110.713 1430.69 108.691 1436.14 108.691C1441.58 108.691 1445 110.713 1446.98 112.478ZM1403.19 77.5958V105.699H1383.39V77.5958H1403.19ZM1383.39 74.1097V50.3098C1388 56.3996 1397.49 68.9021 1401.43 74.1097H1383.39ZM1365.49 142.777H1357.44V120.182H1373.54V142.777H1365.49ZM1379.97 74.1097H1351.03V46.9313H1379.97V74.1097ZM1365.49 77.5958H1379.95V105.699H1373.52V93.6058C1373.52 89.1084 1369.92 85.4502 1365.47 85.4502C1361.01 85.4502 1357.42 89.1084 1357.42 93.6058V105.699H1351.01V77.5958H1365.47H1365.49ZM1347.59 74.1097H1329.55C1333.49 68.9021 1342.98 56.3996 1347.59 50.3098V74.1097ZM1347.59 77.5958V105.699H1327.79V77.5958H1347.59ZM1341.3 120.203V142.798H1327.79V120.203H1341.3ZM1389.7 142.777V120.182H1403.21V142.777H1389.7ZM1419.91 108.734C1418.43 106.883 1416.19 105.721 1413.67 105.721H1406.63V77.6173H1419.93V108.755L1419.91 108.734ZM1342.21 32.4275H1388.77C1389.57 33.568 1410.29 62.8338 1418.28 74.1097H1405.75L1382.51 43.4452H1348.45L1325.23 74.1097H1312.7C1320.69 62.8338 1341.41 33.5465 1342.21 32.4275ZM1324.37 77.5958V105.699H1317.33C1314.81 105.699 1312.55 106.883 1311.09 108.712V77.5742H1324.39L1324.37 77.5958ZM1273.82 56.6363H1286.86C1292.41 61.973 1300.18 69.4401 1305.04 74.1312H1255.61C1259.75 70.1502 1267.94 62.2743 1273.8 56.6363H1273.82ZM1253.05 77.5958H1307.65V86.9995H1253.05V77.5958ZM1307.62 90.5501V109.616C1305.13 107.464 1301.04 105.226 1294.84 105.226C1286.88 105.226 1282.43 108.906 1280.34 111.337C1278.25 108.906 1273.8 105.226 1265.84 105.226C1259.64 105.226 1255.55 107.464 1253.05 109.616V90.5717H1307.65L1307.62 90.5501ZM1305.69 112.478H1284.02C1285.98 110.713 1289.42 108.691 1294.84 108.691C1300.27 108.691 1303.71 110.713 1305.69 112.478ZM1276.68 112.478H1255.01C1256.97 110.713 1260.39 108.691 1265.84 108.691C1271.28 108.691 1274.7 110.713 1276.66 112.478H1276.68ZM1264.18 232.381H1253.03V191.883H1264.18V232.381ZM1255.01 188.397C1256.97 186.632 1260.39 184.609 1265.84 184.609C1271.28 184.609 1274.7 186.632 1276.66 188.397H1254.99H1255.01ZM1278.62 232.381H1267.62V191.883H1278.62V232.381ZM1293.08 232.381H1282.06V191.883H1293.08V232.381ZM1284.02 188.397C1285.98 186.632 1289.42 184.609 1294.84 184.609C1300.27 184.609 1303.71 186.632 1305.69 188.397H1284.02ZM1307.62 232.381H1296.5V191.883H1307.62V232.381ZM1307.62 185.535C1305.13 183.383 1301.04 181.145 1294.84 181.145C1286.88 181.145 1282.43 184.825 1280.34 187.256C1278.25 184.825 1273.8 181.145 1265.84 181.145C1259.64 181.145 1255.55 183.383 1253.05 185.535V146.413H1307.65V185.535H1307.62ZM1307.62 143.379L1253.03 142.927V135.159H1307.62V143.358V143.379ZM1307.62 131.694H1298.41V124.206H1291.27V131.694H1269.39V124.206H1262.24V131.694H1253.03V115.964H1307.62V131.694ZM1311.07 169.977C1312.55 171.827 1314.79 172.989 1317.31 172.989C1321.68 172.989 1325.23 169.482 1325.36 165.07V146.392H1331.04V177.68H1324.95V232.36H1311.05V169.955L1311.07 169.977ZM1396.5 232.381H1334.5V146.413H1341.3V164.252C1341.28 164.532 1341.26 164.812 1341.26 165.113C1341.26 169.611 1344.87 173.269 1349.31 173.269C1353.74 173.269 1357.36 169.611 1357.36 165.113H1357.44V146.435H1373.54V165.113H1373.62C1373.62 169.611 1377.22 173.269 1381.67 173.269C1386.13 173.269 1389.72 169.611 1389.72 165.113C1389.72 164.833 1389.72 164.532 1389.68 164.252V146.413H1396.48V232.381H1396.5ZM1406.03 232.381V177.702H1399.94V146.413H1405.62V165.092C1405.75 169.482 1409.3 173.011 1413.67 173.011C1416.19 173.011 1418.45 171.827 1419.91 169.998V232.403H1406.01L1406.03 232.381ZM1434.48 232.381H1423.35V191.883H1434.48V232.381ZM1425.31 188.397C1427.27 186.632 1430.71 184.609 1436.16 184.609C1441.6 184.609 1445.02 186.632 1447 188.397H1425.33H1425.31ZM1448.94 232.381H1437.92V191.883H1448.94V232.381ZM1463.38 232.381H1452.38V191.883H1463.38V232.381ZM1454.32 188.397C1456.28 186.632 1459.72 184.609 1465.16 184.609C1470.61 184.609 1474.03 186.632 1475.99 188.397H1454.32ZM1477.95 232.381H1466.82V191.883H1477.95V232.381ZM1477.95 185.535C1475.45 183.383 1471.36 181.145 1465.16 181.145C1457.2 181.145 1452.75 184.825 1450.66 187.256C1448.57 184.825 1444.14 181.145 1436.16 181.145C1429.96 181.145 1425.87 183.383 1423.38 185.535V146.413H1477.97V185.535H1477.95ZM1477.95 142.949H1423.35V135.159H1477.95V142.949ZM1477.95 131.694H1468.74V124.206H1461.59V131.694H1439.71V124.206H1432.56V131.694H1423.35V115.964H1477.95V131.694Z" fill="#981A45"/>
<path d="M1365.49 173.333C1364.2 173.312 1348.66 173.269 1347.59 190.032V226.205H1365.49H1383.39V190.14C1382.32 173.29 1366.78 173.312 1365.49 173.333ZM1379.97 222.719H1351.03V190.14C1351.91 176.346 1364.87 176.798 1365.4 176.82L1365.49 175.12L1365.58 176.82C1366.13 176.798 1379.07 176.346 1379.97 190.247V222.719Z" fill="#981A45"/>
</g>
<path d="M811.722 82.3658H617.216L624.832 97.4965H656.836C659.647 97.4965 662.163 98.868 664.107 101.465C667.699 106.262 668.635 114.228 666.492 121.754C662.949 134.191 650.994 146.393 642.351 146.393H626.291L636.801 109.498H620.726L605.631 162.5H638.323C647.16 162.5 657.199 157.658 665.872 149.214C673.676 141.61 679.707 131.799 682.417 122.291C684.85 113.75 684.748 104.808 682.174 97.4916H700.062L681.549 162.5H737.708L742.294 146.393H702.209L706.858 130.076H731.581L736.167 113.969H711.444L716.137 97.4965H773.925L755.412 162.504H771.486L789.999 97.4965H819.342L811.726 82.3658H811.722Z" fill="#122066"/>
<path d="M871.056 143.138L871.871 148.117C866.868 149.21 859.247 149.796 849.009 149.874H843.192V115.376H866.693V120.237H849.067V144.72C859.112 144.72 866.441 144.193 871.056 143.138ZM882.341 162.701H876.35V110.515H882.341V162.701Z" fill="#3D3D3D"/>
<path d="M925.621 145.715L922.13 150.108C919.61 148.702 917.05 146.535 914.452 143.607C911.854 140.678 910.147 137.926 909.333 135.348C908.635 138.238 907.093 141.196 904.708 144.222C902.323 147.248 899.618 149.561 896.593 151.162L892.812 146.77C897.039 144.388 900.336 141.176 902.701 137.135C905.067 133.093 906.25 128.476 906.25 123.283V120.706H895.43V115.962H922.945V120.706H912.416V123.224C912.416 128.3 913.618 132.771 916.022 136.637C918.427 140.503 921.626 143.529 925.621 145.715ZM935.917 162.701H929.984V110.515H935.917V162.701Z" fill="#3D3D3D"/>
<path d="M969.773 122.346V127.031H954.357V131.951C962.773 131.951 969.404 131.502 974.252 130.604L975.066 135.231C970.878 136.168 964.731 136.676 956.626 136.754H948.424V113.092H971.576V117.836H954.357V122.346H969.773ZM990.831 162.232H955.288V149.112H983.152V145.13H955.172V140.268H989.086V153.505H961.28V157.488H990.831V162.232ZM989.086 137.574H983.152V127.207H973.263V122.17H983.152V110.515H989.086V137.574Z" fill="#3D3D3D"/>
<path d="M1046.5 155.203H999.668V150.342H1010.6V134.06H1016.6V150.342H1023.05V134.06H1029.04V150.342H1046.5V155.203ZM1040.91 116.254C1040.91 128.203 1040.15 137.554 1038.64 144.309L1032.94 143.431C1034.22 138.628 1034.86 131.19 1034.86 121.116H1005.08V116.254H1040.91Z" fill="#3D3D3D"/>
<path d="M1058.36 145.598H1065.05V139.214H1052.89V134.411H1099.72V139.214H1087.39V145.598H1093.67V162.876H1087.74V150.342H1058.36V145.598ZM1094.25 120.999C1094.25 123.966 1092.67 126.358 1089.51 128.174C1086.35 129.989 1081.96 130.897 1076.34 130.897C1070.71 130.897 1066.32 129.989 1063.16 128.174C1060 126.358 1058.42 123.966 1058.42 120.999C1058.42 118.031 1060 115.64 1063.16 113.824C1066.32 112.008 1070.69 111.1 1076.28 111.1C1081.86 111.1 1086.35 111.999 1089.51 113.795C1092.67 115.591 1094.25 117.992 1094.25 120.999ZM1088.15 120.999C1088.15 119.359 1087.1 118.07 1085.01 117.133C1082.91 116.196 1080 115.728 1076.28 115.728C1072.56 115.728 1069.71 116.196 1067.61 117.133C1065.52 118.07 1064.47 119.359 1064.47 120.999C1064.47 122.639 1065.52 123.879 1067.61 124.835C1069.71 125.792 1072.6 126.27 1076.28 126.27C1079.96 126.27 1082.81 125.792 1084.95 124.835C1087.08 123.879 1088.15 122.6 1088.15 120.999ZM1070.99 139.214V145.598H1081.46V139.214H1070.99Z" fill="#3D3D3D"/>
<path d="M1152.95 138.394H1106.12V133.65H1124.33V124.337H1130.32V133.65H1152.95V138.394ZM1142.42 145.569C1145.56 147.345 1147.13 149.756 1147.13 152.802C1147.13 155.848 1145.56 158.249 1142.42 160.006C1139.28 161.763 1134.86 162.642 1129.16 162.642C1123.46 162.642 1119.02 161.754 1115.84 159.977C1112.66 158.2 1111.07 155.809 1111.07 152.802C1111.07 149.795 1112.66 147.345 1115.84 145.569C1119.02 143.792 1123.46 142.904 1129.16 142.904C1134.86 142.904 1139.28 143.792 1142.42 145.569ZM1146.9 112.564C1147.09 119.398 1146.57 125.508 1145.33 130.897L1139.57 130.077C1140.58 126.016 1141.02 121.779 1140.91 117.367H1111.65V112.564H1146.9ZM1129.16 147.765C1125.43 147.765 1122.52 148.204 1120.4 149.083C1118.29 149.961 1117.23 151.201 1117.23 152.802C1117.23 154.403 1118.29 155.692 1120.4 156.551C1122.52 157.41 1125.43 157.839 1129.16 157.839C1132.88 157.839 1135.79 157.41 1137.88 156.551C1139.98 155.692 1141.02 154.442 1141.02 152.802C1141.02 151.162 1139.97 149.961 1137.85 149.083C1135.74 148.204 1132.84 147.765 1129.16 147.765Z" fill="#3D3D3D"/>
<path d="M1188.96 123.576H1158.94V118.89H1188.96V123.576ZM1186.16 134.294C1186.16 136.832 1185.01 138.911 1182.7 140.532C1180.4 142.152 1177.5 142.963 1174.01 142.963C1170.52 142.963 1167.6 142.152 1165.25 140.532C1162.91 138.911 1161.73 136.832 1161.73 134.294C1161.73 131.756 1162.9 129.56 1165.22 127.939C1167.55 126.319 1170.48 125.509 1174.01 125.509C1177.54 125.509 1180.4 126.319 1182.7 127.939C1185.01 129.56 1186.16 131.678 1186.16 134.294ZM1165.8 145.598H1199.66V162.759H1193.67V150.401H1165.8V145.598ZM1166.44 115.903V111.1H1181.63V115.903H1166.44ZM1180.23 134.294C1180.23 133.084 1179.62 132.088 1178.4 131.307C1177.18 130.526 1175.71 130.136 1174.01 130.136C1172.3 130.136 1170.77 130.526 1169.53 131.307C1168.29 132.088 1167.67 133.084 1167.67 134.294C1167.67 135.505 1168.3 136.442 1169.56 137.223C1170.82 138.004 1172.3 138.394 1174.01 138.394C1175.71 138.394 1177.18 138.004 1178.4 137.223C1179.62 136.442 1180.23 135.466 1180.23 134.294ZM1207.22 129.257H1199.6V142.845H1193.61V110.515H1199.6V124.337H1207.22V129.257Z" fill="#3D3D3D"/>
<path d="M1238.64 136.461L1235.61 140.913C1233.71 140.015 1231.78 138.56 1229.82 136.549C1227.86 134.538 1226.54 132.615 1225.84 130.78C1225.14 132.967 1223.84 135.173 1221.94 137.398C1220.04 139.624 1217.95 141.342 1215.66 142.553C1215.27 142.006 1214.68 141.264 1213.88 140.327C1213.09 139.39 1212.54 138.726 1212.23 138.336C1215.44 136.578 1218.01 134.187 1219.93 131.161C1221.85 128.135 1222.81 124.806 1222.81 121.174V114.615H1228.57V120.999C1228.57 124.474 1229.54 127.578 1231.48 130.311C1233.42 133.045 1235.8 135.095 1238.64 136.461ZM1257.77 161.236H1221.88V144.661H1227.82V156.434H1257.77V161.236ZM1246.37 147.765H1240.73V128.437H1234.21V123.517H1240.73V111.452H1246.37V147.765ZM1256.26 149.288H1250.56V110.515H1256.26V149.288Z" fill="#3D3D3D"/>
<path d="M1289.13 129.491V134.353H1273.83V145.832C1282.67 145.832 1289.71 145.305 1294.94 144.251L1295.82 148.995C1290.7 150.089 1283.21 150.674 1273.36 150.752H1267.95V115.2H1291.69V119.944H1273.83V129.491H1289.13ZM1308.44 162.701H1302.51V134.587H1293.14V129.609H1302.51V110.515H1308.44V162.701Z" fill="#3D3D3D"/>
<path d="M1300.53 96.7V91.4L1296.09 83H1298.28L1301.64 89.46H1301.7L1305.01 83H1307L1302.58 91.4V96.7H1300.53Z" fill="#868686"/>
<path d="M1282.42 96.7V84.72H1278.41V83H1288.43V84.72H1284.47V96.7H1282.42Z" fill="#868686"/>
<path d="M1267.28 96.7V83H1269.35V96.7H1267.28Z" fill="#868686"/>
<path d="M1256.71 95.8603C1255.93 96.5803 1254.74 96.9403 1253.17 96.9403C1251.59 96.9403 1250.26 96.6403 1249.18 96.0403V94.3603C1250.39 94.9336 1251.67 95.2203 1253.03 95.2203C1254.86 95.2203 1255.77 94.4803 1255.77 93.0003C1255.77 92.4136 1255.62 91.9603 1255.32 91.6403C1255.01 91.3203 1254.47 91.0336 1253.68 90.7803L1252.35 90.3403C1251.35 90.0336 1250.6 89.5869 1250.08 89.0003C1249.57 88.4136 1249.32 87.5936 1249.32 86.5403C1249.32 85.3936 1249.7 84.4803 1250.46 83.8003C1251.21 83.1069 1252.3 82.7603 1253.72 82.7603C1255.01 82.7603 1256.16 83.0136 1257.17 83.5203V85.2003C1256.05 84.7203 1254.9 84.4803 1253.72 84.4803C1252.97 84.4803 1252.38 84.6403 1251.97 84.9603C1251.56 85.2803 1251.35 85.7469 1251.35 86.3603C1251.35 86.9603 1251.48 87.4136 1251.73 87.7203C1252 88.0269 1252.48 88.2869 1253.18 88.5003L1254.54 88.9203C1255.67 89.2803 1256.5 89.7469 1257.05 90.3203C1257.6 90.8936 1257.88 91.7336 1257.88 92.8403C1257.88 94.1336 1257.49 95.1403 1256.71 95.8603Z" fill="#868686"/>
<path d="M1231.33 96.7V83H1235.59C1238.68 83 1240.23 84.32 1240.23 86.96C1240.23 87.8933 1240.01 88.64 1239.57 89.2C1239.15 89.76 1238.52 90.2 1237.68 90.52V90.62L1241.16 96.7H1238.88L1235.69 91H1233.38V96.7H1231.33ZM1233.38 89.48H1235.39C1236.33 89.48 1237.02 89.28 1237.44 88.88C1237.87 88.48 1238.08 87.86 1238.08 87.02C1238.08 86.1933 1237.87 85.6 1237.44 85.24C1237.02 84.8667 1236.33 84.68 1235.37 84.68H1233.38V89.48Z" fill="#868686"/>
<path d="M1213.28 96.7V83H1221.56V84.72H1215.33V88.8H1220.17V90.5H1215.33V94.98H1221.64V96.7H1213.28Z" fill="#868686"/>
<path d="M1197.59 96.7L1192.71 83H1194.84L1198.64 94H1198.7L1202.49 83H1204.44L1199.56 96.7H1197.59Z" fill="#868686"/>
<path d="M1181.77 96.7V83H1183.84V96.7H1181.77Z" fill="#868686"/>
<path d="M1161.27 96.7V83H1163.64L1169.65 93.26H1169.71V83H1171.56V96.7H1169.49L1163.2 85.84H1163.12V96.7H1161.27Z" fill="#868686"/>
<path d="M1149.94 95.72C1149.12 96.5333 1147.86 96.94 1146.16 96.94C1144.46 96.94 1143.17 96.5267 1142.28 95.7C1141.39 94.86 1140.94 93.6 1140.94 91.92V83H1143.05V91.8C1143.05 93.1067 1143.31 94.0267 1143.83 94.56C1144.35 95.0933 1145.15 95.36 1146.24 95.36C1147.31 95.36 1148.09 95.1 1148.57 94.58C1149.06 94.0467 1149.3 93.1133 1149.3 91.78V83H1151.18V91.86C1151.18 93.6067 1150.76 94.8933 1149.94 95.72Z" fill="#868686"/>
<path d="M1118.36 95.8603C1117.57 96.5803 1116.39 96.9403 1114.81 96.9403C1113.23 96.9403 1111.91 96.6403 1110.83 96.0403V94.3603C1112.04 94.9336 1113.32 95.2203 1114.67 95.2203C1116.51 95.2203 1117.42 94.4803 1117.42 93.0003C1117.42 92.4136 1117.27 91.9603 1116.96 91.6403C1116.66 91.3203 1116.11 91.0336 1115.33 90.7803L1114 90.3403C1113 90.0336 1112.24 89.5869 1111.73 89.0003C1111.22 88.4136 1110.97 87.5936 1110.97 86.5403C1110.97 85.3936 1111.35 84.4803 1112.11 83.8003C1112.86 83.1069 1113.95 82.7603 1115.37 82.7603C1116.66 82.7603 1117.81 83.0136 1118.81 83.5203V85.2003C1117.7 84.7203 1116.55 84.4803 1115.37 84.4803C1114.61 84.4803 1114.03 84.6403 1113.62 84.9603C1113.21 85.2803 1113 85.7469 1113 86.3603C1113 86.9603 1113.13 87.4136 1113.38 87.7203C1113.65 88.0269 1114.13 88.2869 1114.83 88.5003L1116.19 88.9203C1117.31 89.2803 1118.15 89.7469 1118.7 90.3203C1119.25 90.8936 1119.53 91.7336 1119.53 92.8403C1119.53 94.1336 1119.14 95.1403 1118.36 95.8603Z" fill="#868686"/>
<path d="M1102.13 82V84.26C1102.13 84.98 1101.91 85.62 1101.47 86.18C1101.05 86.74 1100.5 87.0933 1099.82 87.24V86.18C1100.63 85.94 1101.05 85.34 1101.08 84.38H1099.78V82H1102.13Z" fill="#868686"/>
<path d="M1080.22 96.7V83H1082.59L1088.6 93.26H1088.66V83H1090.51V96.7H1088.44L1082.15 85.84H1082.07V96.7H1080.22Z" fill="#868686"/>
<path d="M1062.17 96.7V83H1070.45V84.72H1064.22V88.8H1069.06V90.5H1064.22V94.98H1070.53V96.7H1062.17Z" fill="#868686"/>
<path d="M1038.91 96.7V83H1041.87L1045.44 93.92H1045.5L1049.06 83H1051.99V96.7H1049.94V85.64H1049.9L1046.23 96.7H1044.42L1040.82 85.64H1040.74V96.7H1038.91Z" fill="#868686"/>
<path d="M1027.83 95.1003C1026.74 96.3136 1025.26 96.9203 1023.37 96.9203C1021.49 96.9203 1020.01 96.3269 1018.93 95.1403C1017.86 93.9536 1017.32 92.2536 1017.32 90.0403V89.6403C1017.32 87.4936 1017.87 85.8136 1018.97 84.6003C1020.07 83.3736 1021.57 82.7603 1023.45 82.7603C1025.34 82.7603 1026.81 83.3536 1027.87 84.5403C1028.95 85.7269 1029.48 87.4336 1029.48 89.6603V90.0603C1029.48 92.2069 1028.93 93.8869 1027.83 95.1003ZM1023.43 95.2803C1024.69 95.2803 1025.65 94.8336 1026.3 93.9403C1026.95 93.0336 1027.27 91.8336 1027.27 90.3403V89.6803C1027.27 86.1869 1025.97 84.4336 1023.35 84.4203C1022.09 84.4203 1021.14 84.8669 1020.49 85.7603C1019.85 86.6536 1019.53 87.8403 1019.53 89.3203V90.0203C1019.53 93.5269 1020.83 95.2803 1023.43 95.2803Z" fill="#868686"/>
<path d="M995.938 96.7L992.514 83H994.604L997.053 93.58H997.113L1000.08 83H1001.79L1004.7 93.58H1004.74L1007.23 83H1009.1L1005.71 96.7H1003.72L1000.9 86.32H1000.84L997.929 96.7H995.938Z" fill="#868686"/>
<path d="M967.424 96.9203C965.393 96.9203 963.814 96.3669 962.686 95.2603C961.557 94.1536 960.993 92.4469 960.993 90.1403V89.7403C960.993 88.4736 961.166 87.3803 961.511 86.4603C961.869 85.5269 962.36 84.8003 962.984 84.2803C963.621 83.7603 964.318 83.3803 965.075 83.1403C965.831 82.8869 966.661 82.7603 967.563 82.7603C968.943 82.7603 970.164 83.0336 971.226 83.5803V85.3003C969.952 84.7536 968.718 84.4803 967.523 84.4803C965.997 84.4803 964.889 84.9469 964.199 85.8803C963.522 86.8136 963.183 88.0136 963.183 89.4803V90.1203C963.183 91.7603 963.495 93.0203 964.119 93.9003C964.743 94.7803 965.851 95.2203 967.444 95.2203C968.412 95.2203 969.176 95.1069 969.733 94.8803V91.5203H967.026V89.8803H971.784V96.1003C970.47 96.6469 969.016 96.9203 967.424 96.9203Z" fill="#868686"/>
<path d="M941.309 96.7V83H943.678L949.69 93.26H949.75V83H951.601V96.7H949.531L943.24 85.84H943.16V96.7H941.309Z" fill="#868686"/>
<path d="M929.98 95.72C929.157 96.5333 927.896 96.94 926.197 96.94C924.498 96.94 923.204 96.5267 922.315 95.7C921.426 94.86 920.981 93.6 920.981 91.92V83H923.092V91.8C923.092 93.1067 923.35 94.0267 923.868 94.56C924.386 95.0933 925.189 95.36 926.277 95.36C927.352 95.36 928.128 95.1 928.606 94.58C929.097 94.0467 929.343 93.1133 929.343 91.78V83H931.214V91.86C931.214 93.6067 930.803 94.8933 929.98 95.72Z" fill="#868686"/>
<path d="M910.594 95.8603C909.811 96.5803 908.629 96.9403 907.05 96.9403C905.471 96.9403 904.143 96.6403 903.068 96.0403V94.3603C904.276 94.9336 905.557 95.2203 906.911 95.2203C908.742 95.2203 909.658 94.4803 909.658 93.0003C909.658 92.4136 909.505 91.9603 909.2 91.6403C908.895 91.3203 908.351 91.0336 907.568 90.7803L906.234 90.3403C905.238 90.0336 904.482 89.5869 903.964 89.0003C903.46 88.4136 903.208 87.5936 903.208 86.5403C903.208 85.3936 903.586 84.4803 904.342 83.8003C905.099 83.1069 906.187 82.7603 907.607 82.7603C908.895 82.7603 910.043 83.0136 911.052 83.5203V85.2003C909.937 84.7203 908.789 84.4803 907.607 84.4803C906.851 84.4803 906.267 84.6403 905.856 84.9603C905.444 85.2803 905.238 85.7469 905.238 86.3603C905.238 86.9603 905.364 87.4136 905.617 87.7203C905.882 88.0269 906.367 88.2869 907.07 88.5003L908.424 88.9203C909.552 89.2803 910.388 89.7469 910.932 90.3203C911.49 90.8936 911.768 91.7336 911.768 92.8403C911.768 94.1336 911.377 95.1403 910.594 95.8603Z" fill="#868686"/>
<path d="M892.705 96.7L887.45 89.72L892.666 83H894.816L889.779 89.52L895.114 96.7H892.705ZM885.021 96.7V83H887.071V96.7H885.021Z" fill="#868686"/>
<path d="M873.692 95.72C872.869 96.5333 871.608 96.94 869.909 96.94C868.211 96.94 866.916 96.5267 866.027 95.7C865.138 94.86 864.693 93.6 864.693 91.92V83H866.804V91.8C866.804 93.1067 867.062 94.0267 867.58 94.56C868.098 95.0933 868.901 95.36 869.989 95.36C871.064 95.36 871.84 95.1 872.318 94.58C872.809 94.0467 873.055 93.1133 873.055 91.78V83H874.926V91.86C874.926 93.6067 874.515 94.8933 873.692 95.72Z" fill="#868686"/>
<path d="M844.663 96.7V83H848.924C851.021 83 852.62 83.54 853.722 84.62C854.837 85.6867 855.394 87.3 855.394 89.46V89.88C855.394 92.08 854.856 93.7667 853.781 94.94C852.72 96.1133 851.114 96.7 848.964 96.7H844.663ZM846.714 94.98H849.003C850.45 94.98 851.505 94.6 852.169 93.84C852.846 93.08 853.184 91.8467 853.184 90.14V89.46C853.184 87.7267 852.819 86.5067 852.089 85.8C851.359 85.08 850.251 84.72 848.764 84.72H846.714V94.98Z" fill="#868686"/>
</g>
<defs>
<linearGradient id="paint0_linear_828_70460" x1="0" y1="0" x2="1786.7" y2="628.774" gradientUnits="userSpaceOnUse">
<stop stop-color="#122066" stop-opacity="0.1"/>
<stop offset="1" stop-color="#122066" stop-opacity="0.25"/>
</linearGradient>
<clipPath id="clip0_828_70460">
<rect width="1920" height="250" fill="white"/>
</clipPath>
<clipPath id="clip1_828_70460">
<rect width="427" height="427" fill="white" transform="translate(1152 -66)"/>
</clipPath>
</defs>
</svg>
