<svg width="1920" height="308" viewBox="0 0 1920 308" fill="none" xmlns="http://www.w3.org/2000/svg">
<g clip-path="url(#clip0_248_1749)">
<rect width="1920" height="308" fill="url(#paint0_linear_248_1749)"/>
<g opacity="0.2" clip-path="url(#clip1_248_1749)">
<path d="M1772.66 191.165C1757.62 142.419 1731.16 100.944 1697.42 68.6268H1698.03C1679.95 51.559 1654.67 44.8262 1630 52.7709C1627.61 53.3769 1625.18 54.5888 1623.36 55.1948L1621.55 57.0126C1622.15 54.5888 1622.15 52.1313 1622.15 50.3134C1622.15 24.089 1607.71 1.53394 1587.24 -10.0466L1586.03 -10.6525C1546.37 -32.568 1500.02 -46 1450.06 -46C1400.1 -46 1352.57 -32.568 1312.81 -10.0129H1311.6C1291.13 1.5676 1276.69 24.1227 1276.69 50.3471L1276.08 53.3769H1275.48C1250.83 45.4658 1225.55 52.165 1208.08 68.6268L1207.48 69.2328C1173.78 100.944 1147.92 141.779 1132.24 189.347C1116.62 238.126 1114.19 287.512 1123.25 333.228V333.834C1127.46 357.601 1144.32 377.732 1169 386.283C1171.39 386.889 1173.81 387.495 1176.2 388.134L1171.99 392.376C1156.95 413.113 1156.37 439.944 1166.57 461.859L1167.18 462.465C1187.04 503.939 1218.35 541.744 1258.68 570.393C1300.19 599.647 1345.94 616.748 1391.69 621.596C1415.76 624.053 1439.86 613.685 1454.91 592.948C1455.51 591.736 1455.51 591.13 1456.73 589.884L1457.9 593.554C1472.95 614.291 1497.63 623.414 1521.09 620.384H1522.3C1567.45 614.257 1612.59 596.617 1652.31 566.723C1693.22 536.223 1723.31 497.206 1742 454.52L1742.6 455.126C1752.2 433.211 1750.41 406.448 1735.43 385.71C1759.4 377.463 1775.8 357.163 1780.51 334.406V333.161C1789.56 288.05 1787.75 238.665 1772.7 191.097L1772.66 191.165ZM1302 43.6143C1313.45 1.53394 1383.88 13.7541 1383.88 13.7541C1429.02 19.8473 1450.09 19.2413 1450.09 19.2413C1450.09 19.2413 1471.77 19.8473 1516.92 13.7541C1516.92 13.7541 1586.74 1.5676 1598.18 43.6143C1598.18 43.6143 1603.84 61.5237 1590.78 70.3437C1590.84 70.3437 1590.91 70.411 1590.94 70.4447L1589.73 71.0506C1590.14 70.8486 1590.44 70.5793 1590.78 70.3437C1550.48 44.7925 1503.01 30.1822 1451.91 30.1822C1400.81 30.1822 1352 45.4321 1311.67 71.6566L1310.45 71.0506C1296.01 62.5336 1302.04 43.6143 1302.04 43.6143H1302ZM1170.78 360.058C1134.66 335.652 1167.79 272.262 1167.79 272.262C1187.65 230.182 1193.07 209.444 1193.07 209.444C1193.07 209.444 1200.88 189.347 1208.69 143.597C1208.69 143.597 1218.92 72.2625 1262.28 74.0804C1262.28 74.0804 1281.54 74.6864 1285.14 91.1482V91.7542C1227.98 139.928 1192.46 211.868 1192.46 292.965C1192.46 316.766 1194.25 337.47 1200.27 358.813L1199.67 360.025C1187.65 370.999 1170.78 360.025 1170.78 360.025V360.058ZM1430.8 583.858C1397.11 611.295 1346.54 560.697 1346.54 560.697C1313.45 528.986 1295.37 517.405 1295.37 517.405C1295.37 517.405 1278.51 504.007 1237.6 483.269C1237.6 483.269 1173.21 452.164 1187.65 411.329C1187.65 411.329 1193.67 392.41 1210.51 393.622L1212.93 395.473C1250.26 485.693 1336.31 550.362 1437.44 555.816H1438.65C1445.89 571.066 1430.84 583.858 1430.84 583.858H1430.8ZM1451.64 547.333C1313.15 547.333 1200.88 433.581 1200.88 293.268C1200.88 152.956 1313.15 39.2042 1451.64 39.2042C1590.14 39.2042 1702.44 152.956 1702.44 293.268C1702.44 433.581 1590.17 547.333 1451.64 547.333ZM1670.96 478.96C1630.64 500.91 1613.8 514.948 1613.8 514.948C1613.8 514.948 1596.33 527.134 1563.85 558.846C1563.85 558.846 1514.49 611.261 1480.8 584.464C1480.8 584.464 1465.14 572.884 1471.77 557.634L1472.38 555.816C1573.51 547.265 1658.37 480.812 1693.89 389.952C1710.72 387.528 1719.17 405.808 1719.17 405.808C1734.19 446.07 1671 478.994 1671 478.994L1670.96 478.96ZM1732.94 361.304C1732.94 361.304 1715.5 372.884 1702.84 361.304C1708.87 339.355 1711.87 316.8 1711.87 292.999C1711.87 213.147 1676.35 142.385 1620.97 93.6057C1624.61 77.1439 1643.83 74.72 1643.83 74.72C1687.16 73.5081 1696.82 144.809 1696.82 144.809C1704.63 189.953 1711.87 210.656 1711.87 210.656C1711.87 210.656 1717.29 231.393 1736.54 273.44C1736.54 273.44 1769.03 337.47 1732.94 361.27V361.304Z" fill="#981A45"/>
<path d="M1436.03 154.37V161.271H1451.98H1467.97V154.37H1451.98H1436.03Z" fill="#981A45"/>
<path d="M1301.67 303.805H1290.5V333.127H1301.67V303.805Z" fill="#981A45"/>
<path d="M1347.09 303.805H1335.91V333.127H1347.09V303.805Z" fill="#981A45"/>
<path d="M1323.76 157.837H1313.82V164.772H1323.76V157.837Z" fill="#981A45"/>
<path d="M1613.5 303.805H1602.33V333.127H1613.5V303.805Z" fill="#981A45"/>
<path d="M1568.09 303.805H1556.91V333.127H1568.09V303.805Z" fill="#981A45"/>
<path d="M1590.17 157.837H1580.24V164.772H1590.17V157.837Z" fill="#981A45"/>
<path d="M1599.5 142.251V127.943H1589V111.044H1581.39V127.943H1571.09V142.082C1558.83 153.865 1542.67 169.418 1540.18 171.808C1536.85 167.095 1491.17 102.56 1491.17 102.56V93.976H1480.43V87.5125H1464.41V93.976H1455.75V73.2051H1448.28V93.976H1439.63V87.5125H1423.6V93.976H1412.87V102.56C1412.87 102.56 1367.18 167.095 1363.85 171.808C1361.39 169.418 1345.23 153.898 1332.95 142.082V127.943H1322.65V111.044H1315.04V127.943H1304.57V142.251L1270.77 174.737V426.209H1633.33V174.737L1599.57 142.251H1599.5ZM1574.99 145.853H1595.39C1604.55 154.673 1617.38 166.994 1623.84 173.222H1546.51C1554.12 165.917 1566.27 154.235 1574.96 145.853H1574.99ZM1542.51 178.642H1627.91V193.353H1542.51V178.642ZM1627.91 198.908V228.7C1624.01 225.334 1617.61 221.833 1607.92 221.833C1595.46 221.833 1588.49 227.589 1585.23 231.394C1581.96 227.589 1575.03 221.833 1562.54 221.833C1552.84 221.833 1546.45 225.368 1542.54 228.7V198.874H1627.95L1627.91 198.908ZM1624.85 233.211H1590.95C1594.01 230.451 1599.4 227.286 1607.92 227.286C1616.43 227.286 1621.79 230.451 1624.85 233.211ZM1579.47 233.211H1545.57C1548.63 230.451 1553.99 227.286 1562.5 227.286C1571.02 227.286 1576.37 230.451 1579.47 233.211ZM1510.96 178.642V222.607H1479.99V178.642H1510.96ZM1479.99 173.188V135.955C1487.2 145.482 1502.04 165.041 1508.2 173.188H1479.99ZM1451.98 280.611H1439.39V245.263H1464.57V280.611H1451.98ZM1474.64 173.188H1429.36V130.67H1474.64V173.188ZM1451.98 178.642H1474.61V222.607H1464.54V203.688C1464.54 196.652 1458.92 190.929 1451.95 190.929C1444.98 190.929 1439.36 196.652 1439.36 203.688V222.607H1429.33V178.642H1451.95H1451.98ZM1423.97 173.188H1395.76C1401.92 165.041 1416.77 145.482 1423.97 135.955V173.188ZM1423.97 178.642V222.607H1393V178.642H1423.97ZM1414.14 245.297V280.644H1393V245.297H1414.14ZM1489.86 280.611V245.263H1511V280.611H1489.86ZM1537.12 227.354C1534.8 224.459 1531.3 222.641 1527.36 222.641H1516.35V178.675H1537.15V227.387L1537.12 227.354ZM1415.56 107.98H1488.41C1489.65 109.765 1522.07 155.548 1534.56 173.188H1514.97L1478.61 125.216H1425.32L1389 173.188H1369.4C1381.89 155.548 1414.31 109.731 1415.56 107.98ZM1387.65 178.642V222.607H1376.64C1372.7 222.607 1369.17 224.459 1366.88 227.32V178.608H1387.68L1387.65 178.642ZM1308.57 145.853H1328.97C1337.66 154.201 1349.81 165.883 1357.42 173.222H1280.09C1286.56 166.994 1299.38 154.673 1308.54 145.853H1308.57ZM1276.09 178.642H1361.49V193.353H1276.09V178.642ZM1361.46 198.908V228.734C1357.55 225.368 1351.16 221.867 1341.46 221.867C1329.01 221.867 1322.04 227.623 1318.77 231.427C1315.51 227.623 1308.54 221.867 1296.08 221.867C1286.39 221.867 1279.99 225.368 1276.09 228.734V198.941H1361.49L1361.46 198.908ZM1358.43 233.211H1324.53C1327.59 230.451 1332.98 227.286 1341.46 227.286C1349.95 227.286 1355.33 230.451 1358.43 233.211ZM1313.05 233.211H1279.15C1282.21 230.451 1287.57 227.286 1296.08 227.286C1304.6 227.286 1309.95 230.451 1313.02 233.211H1313.05ZM1293.49 420.789H1276.05V357.433H1293.49V420.789ZM1279.15 351.979C1282.21 349.218 1287.57 346.054 1296.08 346.054C1304.6 346.054 1309.95 349.218 1313.02 351.979H1279.12H1279.15ZM1316.08 420.789H1298.88V357.433H1316.08V420.789ZM1338.7 420.789H1321.47V357.433H1338.7V420.789ZM1324.53 351.979C1327.59 349.218 1332.98 346.054 1341.46 346.054C1349.95 346.054 1355.33 349.218 1358.43 351.979H1324.53ZM1361.46 420.789H1344.06V357.433H1361.46V420.789ZM1361.46 347.502C1357.55 344.135 1351.16 340.634 1341.46 340.634C1329.01 340.634 1322.04 346.391 1318.77 350.195C1315.51 346.391 1308.54 340.634 1296.08 340.634C1286.39 340.634 1279.99 344.135 1276.09 347.502V286.3H1361.49V347.502H1361.46ZM1361.46 281.553L1276.05 280.846V268.694H1361.46V281.52V281.553ZM1361.46 263.274H1347.05V251.558H1335.88V263.274H1301.64V251.558H1290.46V263.274H1276.05V238.665H1361.46V263.274ZM1366.85 323.162C1369.17 326.057 1372.67 327.875 1376.61 327.875C1383.44 327.875 1389 322.388 1389.2 315.487V286.266H1398.09V335.214H1388.56V420.755H1366.81V323.129L1366.85 323.162ZM1500.49 420.789H1403.51V286.3H1414.14V314.208C1414.11 314.645 1414.08 315.083 1414.08 315.554C1414.08 322.59 1419.73 328.313 1426.67 328.313C1433.6 328.313 1439.26 322.59 1439.26 315.554H1439.39V286.334H1464.57V315.554H1464.71C1464.71 322.59 1470.33 328.313 1477.3 328.313C1484.27 328.313 1489.89 322.59 1489.89 315.554C1489.89 315.117 1489.89 314.645 1489.82 314.208V286.3H1500.46V420.789H1500.49ZM1515.41 420.789V335.248H1505.88V286.3H1514.77V315.521C1514.97 322.388 1520.52 327.909 1527.36 327.909C1531.3 327.909 1534.83 326.057 1537.12 323.196V420.822H1515.37L1515.41 420.789ZM1559.91 420.789H1542.51V357.433H1559.91V420.789ZM1545.57 351.979C1548.63 349.218 1554.02 346.054 1562.54 346.054C1571.05 346.054 1576.41 349.218 1579.5 351.979H1545.6H1545.57ZM1582.53 420.789H1565.3V357.433H1582.53V420.789ZM1605.12 420.789H1587.92V357.433H1605.12V420.789ZM1590.95 351.979C1594.01 349.218 1599.4 346.054 1607.92 346.054C1616.43 346.054 1621.79 349.218 1624.85 351.979H1590.95ZM1627.91 420.789H1610.51V357.433H1627.91V420.789ZM1627.91 347.502C1624.01 344.135 1617.61 340.634 1607.92 340.634C1595.46 340.634 1588.49 346.391 1585.23 350.195C1581.96 346.391 1575.03 340.634 1562.54 340.634C1552.84 340.634 1546.45 344.135 1542.54 347.502V286.3H1627.95V347.502H1627.91ZM1627.91 280.88H1542.51V268.694H1627.91V280.88ZM1627.91 263.274H1613.5V251.558H1602.33V263.274H1568.09V251.558H1556.91V263.274H1542.51V238.665H1627.91V263.274Z" fill="#981A45"/>
</g>
<path d="M645.769 104.26H419.189L428.06 121.913H465.342C468.617 121.913 471.548 123.513 473.812 126.542C477.997 132.14 479.087 141.433 476.591 150.213C472.463 164.722 458.537 178.958 448.468 178.958H429.76L442.003 135.915H423.277L405.692 197.749H443.776C454.07 197.749 465.765 192.101 475.868 182.249C484.959 173.378 491.984 161.932 495.141 150.84C497.976 140.875 497.857 130.443 494.859 121.907H515.696L494.13 197.749H559.551L564.893 178.958H518.198L523.613 159.922H552.413L557.755 141.131H528.955L534.422 121.913H601.74L580.174 197.755H598.899L620.465 121.913H654.646L645.775 104.26H645.769Z" fill="#122066"/>
<path d="M714.889 175.161L715.837 180.969C710.01 182.245 701.133 182.928 689.206 183.019H682.43V142.772H709.806V148.444H689.274V177.006C700.974 177.006 709.513 176.391 714.889 175.161ZM728.035 197.984H721.055V137.1H728.035V197.984Z" fill="#3D3D3D"/>
<path d="M778.451 178.168L774.386 183.293C771.449 181.653 768.467 179.125 765.441 175.708C762.414 172.291 760.426 169.08 759.477 166.073C758.664 169.444 756.869 172.895 754.09 176.425C751.312 179.956 748.161 182.655 744.637 184.523L740.232 179.398C745.157 176.619 748.997 172.872 751.752 168.157C754.508 163.442 755.886 158.056 755.886 151.997V148.99H743.282V143.455H775.334V148.99H763.069V151.928C763.069 157.851 764.469 163.067 767.27 167.576C770.071 172.086 773.798 175.617 778.451 178.168ZM790.446 197.984H783.534V137.1H790.446V197.984Z" fill="#3D3D3D"/>
<path d="M829.884 150.903V156.37H811.927V162.11C821.73 162.11 829.455 161.586 835.102 160.538L836.051 165.936C831.172 167.03 824.012 167.622 814.57 167.713H805.015V140.107H831.985V145.642H811.927V150.903H829.884ZM854.415 197.437H813.011V182.131H845.47V177.485H812.876V171.813H852.382V187.256H819.991V191.903H854.415V197.437ZM852.382 168.67H845.47V156.575H833.95V150.698H845.47V137.1H852.382V168.67Z" fill="#3D3D3D"/>
<path d="M919.259 189.237H864.709V183.566H877.449V164.57H884.429V183.566H891.95V164.57H898.93V183.566H919.259V189.237ZM912.754 143.797C912.754 157.736 911.873 168.647 910.111 176.528L903.47 175.503C904.961 169.899 905.706 161.221 905.706 149.468H871.011V143.797H912.754Z" fill="#3D3D3D"/>
<path d="M933.083 178.031H940.876V170.583H926.714V164.98H981.264V170.583H966.898V178.031H974.216V198.189H967.304V183.566H933.083V178.031ZM974.894 149.332C974.894 152.794 973.053 155.584 969.371 157.703C965.689 159.821 960.573 160.88 954.022 160.88C947.472 160.88 942.356 159.821 938.674 157.703C934.992 155.584 933.151 152.794 933.151 149.332C933.151 145.87 934.992 143.08 938.674 140.961C942.356 138.843 947.449 137.784 953.955 137.784C960.46 137.784 965.689 138.832 969.371 140.927C973.053 143.023 974.894 145.824 974.894 149.332ZM967.779 149.332C967.779 147.419 966.559 145.915 964.119 144.822C961.68 143.729 958.292 143.182 953.955 143.182C949.618 143.182 946.297 143.729 943.858 144.822C941.418 145.915 940.199 147.419 940.199 149.332C940.199 151.245 941.418 152.692 943.858 153.808C946.297 154.924 949.663 155.482 953.955 155.482C958.246 155.482 961.567 154.924 964.052 153.808C966.536 152.692 967.779 151.2 967.779 149.332ZM947.788 170.583V178.031H959.986V170.583H947.788Z" fill="#3D3D3D"/>
<path d="M1043.27 169.626H988.718V164.091H1009.93V153.226H1016.91V164.091H1043.27V169.626ZM1031 177.997C1034.66 180.069 1036.49 182.882 1036.49 186.436C1036.49 189.989 1034.66 192.791 1031 194.841C1027.34 196.89 1022.19 197.915 1015.55 197.915C1008.91 197.915 1003.74 196.879 1000.03 194.806C996.33 192.734 994.478 189.943 994.478 186.436C994.478 182.928 996.33 180.069 1000.03 177.997C1003.74 175.924 1008.91 174.888 1015.55 174.888C1022.19 174.888 1027.34 175.924 1031 177.997ZM1036.22 139.492C1036.45 147.464 1035.84 154.593 1034.39 160.88L1027.68 159.923C1028.86 155.185 1029.38 150.243 1029.24 145.095H995.155V139.492H1036.22ZM1015.55 180.559C1011.22 180.559 1007.82 181.072 1005.35 182.097C1002.89 183.122 1001.66 184.568 1001.66 186.436C1001.66 188.303 1002.89 189.807 1005.35 190.809C1007.82 191.811 1011.22 192.312 1015.55 192.312C1019.89 192.312 1023.28 191.811 1025.72 190.809C1028.16 189.807 1029.38 188.349 1029.38 186.436C1029.38 184.522 1028.15 183.122 1025.68 182.097C1023.22 181.072 1019.84 180.559 1015.55 180.559Z" fill="#3D3D3D"/>
<path d="M1085.21 152.338H1050.25V146.872H1085.21V152.338ZM1081.96 164.843C1081.96 167.804 1080.62 170.23 1077.93 172.121C1075.24 174.011 1071.86 174.956 1067.8 174.956C1063.73 174.956 1060.33 174.011 1057.6 172.121C1054.87 170.23 1053.5 167.804 1053.5 164.843C1053.5 161.882 1054.86 159.32 1057.57 157.429C1060.28 155.539 1063.69 154.593 1067.8 154.593C1071.91 154.593 1075.24 155.539 1077.93 157.429C1080.62 159.32 1081.96 161.791 1081.96 164.843ZM1058.24 178.031H1097.68V198.052H1090.7V183.634H1058.24V178.031ZM1058.99 143.387V137.784H1076.68V143.387H1058.99ZM1075.05 164.843C1075.05 163.431 1074.34 162.269 1072.91 161.358C1071.49 160.447 1069.79 159.992 1067.8 159.992C1065.81 159.992 1064.03 160.447 1062.58 161.358C1061.13 162.269 1060.41 163.431 1060.41 164.843C1060.41 166.255 1061.15 167.349 1062.61 168.26C1064.08 169.171 1065.81 169.626 1067.8 169.626C1069.79 169.626 1071.49 169.171 1072.91 168.26C1074.34 167.349 1075.05 166.21 1075.05 164.843ZM1106.49 158.967H1097.61V174.82H1090.63V137.1H1097.61V153.227H1106.49V158.967Z" fill="#3D3D3D"/>
<path d="M1143.08 167.371L1139.56 172.565C1137.35 171.517 1135.1 169.82 1132.82 167.474C1130.54 165.128 1128.99 162.884 1128.18 160.743C1127.36 163.294 1125.85 165.868 1123.64 168.465C1121.42 171.061 1118.98 173.066 1116.32 174.478C1115.87 173.84 1115.18 172.975 1114.25 171.881C1113.32 170.788 1112.68 170.014 1112.32 169.558C1116.07 167.508 1119.06 164.718 1121.3 161.187C1123.53 157.657 1124.65 153.773 1124.65 149.537V141.884H1131.36V149.332C1131.36 153.386 1132.49 157.008 1134.75 160.197C1137.01 163.385 1139.79 165.777 1143.08 167.371ZM1165.38 196.276H1123.57V176.938H1130.48V190.673H1165.38V196.276ZM1152.1 180.559H1145.52V158.01H1137.93V152.27H1145.52V138.194H1152.1V180.559ZM1163.62 182.336H1156.98V137.1H1163.62V182.336Z" fill="#3D3D3D"/>
<path d="M1201.9 159.24V164.912H1184.08V178.305C1194.38 178.305 1202.58 177.69 1208.68 176.46L1209.7 181.994C1203.73 183.27 1195.01 183.953 1183.54 184.044H1177.24V142.567H1204.89V148.102H1184.08V159.24H1201.9ZM1224.4 197.984H1217.49V165.185H1206.58V159.377H1217.49V137.1H1224.4V197.984Z" fill="#3D3D3D"/>
<path d="M1215.19 120.983V114.8L1210.01 105H1212.56L1216.48 112.537H1216.55L1220.4 105H1222.72L1217.57 114.8V120.983H1215.19Z" fill="#868686"/>
<path d="M1194.09 120.983V107.007H1189.42V105H1201.09V107.007H1196.47V120.983H1194.09Z" fill="#868686"/>
<path d="M1176.45 120.983V105H1178.86V120.983H1176.45Z" fill="#868686"/>
<path d="M1164.14 120.004C1163.23 120.844 1161.85 121.264 1160.01 121.264C1158.17 121.264 1156.62 120.914 1155.37 120.214V118.254C1156.78 118.922 1158.27 119.257 1159.85 119.257C1161.98 119.257 1163.05 118.394 1163.05 116.667C1163.05 115.982 1162.87 115.454 1162.51 115.08C1162.16 114.707 1161.53 114.372 1160.61 114.077L1159.06 113.564C1157.9 113.206 1157.02 112.685 1156.42 112C1155.83 111.316 1155.53 110.359 1155.53 109.13C1155.53 107.792 1155.97 106.727 1156.86 105.934C1157.74 105.125 1159.01 104.72 1160.66 104.72C1162.16 104.72 1163.5 105.016 1164.67 105.607V107.567C1163.37 107.007 1162.04 106.727 1160.66 106.727C1159.78 106.727 1159.1 106.914 1158.62 107.287C1158.14 107.66 1157.9 108.205 1157.9 108.92C1157.9 109.62 1158.05 110.149 1158.34 110.507C1158.65 110.865 1159.21 111.168 1160.03 111.417L1161.61 111.907C1162.92 112.327 1163.9 112.871 1164.53 113.54C1165.18 114.209 1165.51 115.189 1165.51 116.48C1165.51 117.989 1165.05 119.164 1164.14 120.004Z" fill="#868686"/>
<path d="M1134.57 120.983V105H1139.54C1143.14 105 1144.94 106.54 1144.94 109.62C1144.94 110.709 1144.69 111.58 1144.18 112.233C1143.68 112.887 1142.95 113.4 1141.97 113.773V113.89L1146.03 120.983H1143.36L1139.65 114.333H1136.96V120.983H1134.57ZM1136.96 112.56H1139.31C1140.4 112.56 1141.2 112.327 1141.69 111.86C1142.19 111.393 1142.44 110.67 1142.44 109.69C1142.44 108.726 1142.19 108.033 1141.69 107.613C1141.2 107.178 1140.4 106.96 1139.28 106.96H1136.96V112.56Z" fill="#868686"/>
<path d="M1113.55 120.983V105H1123.2V107.007H1115.94V111.767H1121.57V113.75H1115.94V118.977H1123.29V120.983H1113.55Z" fill="#868686"/>
<path d="M1095.27 120.983L1089.59 105H1092.07L1096.5 117.833H1096.57L1100.97 105H1103.25L1097.56 120.983H1095.27Z" fill="#868686"/>
<path d="M1076.84 120.983V105H1079.25V120.983H1076.84Z" fill="#868686"/>
<path d="M1052.96 120.983V105H1055.72L1062.72 116.97H1062.79V105H1064.95V120.983H1062.54L1055.21 108.313H1055.12V120.983H1052.96Z" fill="#868686"/>
<path d="M1039.76 119.84C1038.8 120.789 1037.34 121.263 1035.36 121.263C1033.38 121.263 1031.87 120.781 1030.83 119.817C1029.8 118.837 1029.28 117.367 1029.28 115.407V105H1031.74V115.267C1031.74 116.791 1032.04 117.864 1032.64 118.487C1033.25 119.109 1034.18 119.42 1035.45 119.42C1036.7 119.42 1037.61 119.117 1038.16 118.51C1038.74 117.888 1039.02 116.799 1039.02 115.243V105H1041.2V115.337C1041.2 117.374 1040.72 118.876 1039.76 119.84Z" fill="#868686"/>
<path d="M1002.97 120.004C1002.06 120.844 1000.68 121.264 998.843 121.264C997.003 121.264 995.457 120.914 994.205 120.214V118.254C995.612 118.922 997.104 119.257 998.681 119.257C1000.81 119.257 1001.88 118.394 1001.88 116.667C1001.88 115.982 1001.7 115.454 1001.35 115.08C1000.99 114.707 1000.36 114.372 999.446 114.077L997.892 113.564C996.733 113.206 995.851 112.685 995.248 112C994.661 111.316 994.367 110.359 994.367 109.13C994.367 107.792 994.808 106.727 995.689 105.934C996.57 105.125 997.838 104.72 999.492 104.72C1000.99 104.72 1002.33 105.016 1003.5 105.607V107.567C1002.21 107.007 1000.87 106.727 999.492 106.727C998.611 106.727 997.931 106.914 997.452 107.287C996.972 107.66 996.733 108.205 996.733 108.92C996.733 109.62 996.879 110.149 997.173 110.507C997.482 110.865 998.047 111.168 998.866 111.417L1000.44 111.907C1001.76 112.327 1002.73 112.871 1003.37 113.54C1004.01 114.209 1004.34 115.189 1004.34 116.48C1004.34 117.989 1003.88 119.164 1002.97 120.004Z" fill="#868686"/>
<path d="M984.069 103.833V106.47C984.069 107.31 983.814 108.057 983.304 108.71C982.809 109.363 982.168 109.776 981.379 109.947V108.71C982.322 108.43 982.809 107.73 982.84 106.61H981.333V103.833H984.069Z" fill="#868686"/>
<path d="M958.541 120.983V105H961.301L968.305 116.97H968.374V105H970.531V120.983H968.119L960.791 108.313H960.698V120.983H958.541Z" fill="#868686"/>
<path d="M937.515 120.983V105H947.163V107.007H939.904V111.767H945.539V113.75H939.904V118.977H947.255V120.983H937.515Z" fill="#868686"/>
<path d="M910.419 120.983V105H913.874L918.026 117.74H918.095L922.247 105H925.656V120.983H923.267V108.08H923.221L918.953 120.983H916.843L912.645 108.08H912.553V120.983H910.419Z" fill="#868686"/>
<path d="M897.518 119.117C896.25 120.532 894.518 121.24 892.323 121.24C890.127 121.24 888.404 120.548 887.151 119.164C885.899 117.779 885.273 115.796 885.273 113.214V112.747C885.273 110.242 885.914 108.282 887.198 106.867C888.481 105.436 890.22 104.72 892.416 104.72C894.611 104.72 896.327 105.412 897.564 106.797C898.817 108.181 899.443 110.172 899.443 112.77V113.237C899.443 115.741 898.801 117.701 897.518 119.117ZM892.392 119.327C893.861 119.327 894.974 118.806 895.732 117.764C896.49 116.706 896.868 115.306 896.868 113.564V112.794C896.868 108.718 895.346 106.672 892.3 106.657C890.831 106.657 889.718 107.178 888.96 108.22C888.218 109.262 887.847 110.647 887.847 112.374V113.19C887.847 117.281 889.362 119.327 892.392 119.327Z" fill="#868686"/>
<path d="M860.365 120.983L856.376 105H858.811L861.664 117.343H861.733L865.189 105H867.183L870.569 117.343H870.615L873.514 105H875.694L871.752 120.983H869.433L866.139 108.873H866.07L862.684 120.983H860.365Z" fill="#868686"/>
<path d="M827.148 121.24C824.782 121.24 822.943 120.595 821.628 119.304C820.314 118.012 819.657 116.021 819.657 113.33V112.864C819.657 111.386 819.858 110.11 820.26 109.037C820.678 107.948 821.25 107.1 821.976 106.494C822.718 105.887 823.53 105.444 824.411 105.164C825.293 104.868 826.259 104.72 827.31 104.72C828.918 104.72 830.341 105.039 831.578 105.677V107.684C830.093 107.046 828.655 106.727 827.264 106.727C825.486 106.727 824.195 107.271 823.391 108.36C822.602 109.449 822.208 110.849 822.208 112.56V113.307C822.208 115.22 822.572 116.69 823.298 117.717C824.025 118.744 825.316 119.257 827.171 119.257C828.3 119.257 829.189 119.125 829.838 118.86V114.94H826.684V113.027H832.227V120.284C830.696 120.921 829.003 121.24 827.148 121.24Z" fill="#868686"/>
<path d="M796.726 120.983V105H799.486L806.49 116.97H806.56V105H808.716V120.983H806.304L798.976 108.313H798.883V120.983H796.726Z" fill="#868686"/>
<path d="M783.529 119.84C782.571 120.789 781.102 121.263 779.123 121.263C777.144 121.263 775.637 120.781 774.601 119.817C773.565 118.837 773.047 117.367 773.047 115.407V105H775.505V115.267C775.505 116.791 775.807 117.864 776.41 118.487C777.013 119.109 777.948 119.42 779.216 119.42C780.468 119.42 781.373 119.117 781.929 118.51C782.501 117.888 782.787 116.799 782.787 115.243V105H784.967V115.337C784.967 117.374 784.488 118.876 783.529 119.84Z" fill="#868686"/>
<path d="M760.946 120.004C760.034 120.844 758.658 121.264 756.818 121.264C754.978 121.264 753.432 120.914 752.18 120.214V118.254C753.587 118.922 755.079 119.257 756.656 119.257C758.789 119.257 759.856 118.394 759.856 116.667C759.856 115.982 759.678 115.454 759.323 115.08C758.967 114.707 758.333 114.372 757.421 114.077L755.867 113.564C754.708 113.206 753.826 112.685 753.223 112C752.636 111.316 752.342 110.359 752.342 109.13C752.342 107.792 752.783 106.727 753.664 105.934C754.545 105.125 755.813 104.72 757.467 104.72C758.967 104.72 760.305 105.016 761.48 105.607V107.567C760.181 107.007 758.843 106.727 757.467 106.727C756.586 106.727 755.906 106.914 755.427 107.287C754.947 107.66 754.708 108.205 754.708 108.92C754.708 109.62 754.855 110.149 755.148 110.507C755.458 110.865 756.022 111.168 756.841 111.417L758.418 111.907C759.732 112.327 760.707 112.871 761.34 113.54C761.99 114.209 762.314 115.189 762.314 116.48C762.314 117.989 761.858 119.164 760.946 120.004Z" fill="#868686"/>
<path d="M740.108 120.983L733.985 112.84L740.062 105H742.566L736.699 112.607L742.914 120.983H740.108ZM731.156 120.983V105H733.545V120.983H731.156Z" fill="#868686"/>
<path d="M717.959 119.84C717.001 120.789 715.532 121.263 713.553 121.263C711.574 121.263 710.066 120.781 709.03 119.817C707.995 118.837 707.477 117.367 707.477 115.407V105H709.935V115.267C709.935 116.791 710.236 117.864 710.839 118.487C711.442 119.109 712.378 119.42 713.645 119.42C714.898 119.42 715.802 119.117 716.359 118.51C716.931 117.888 717.217 116.799 717.217 115.243V105H719.397V115.337C719.397 117.374 718.918 118.876 717.959 119.84Z" fill="#868686"/>
<path d="M684.144 120.983V105H689.107C691.549 105 693.412 105.63 694.696 106.89C695.994 108.134 696.644 110.017 696.644 112.537V113.027C696.644 115.593 696.018 117.561 694.765 118.93C693.528 120.299 691.658 120.983 689.153 120.983H684.144ZM686.532 118.977H689.199C690.885 118.977 692.114 118.533 692.887 117.647C693.675 116.76 694.07 115.321 694.07 113.33V112.537C694.07 110.514 693.644 109.091 692.794 108.267C691.944 107.427 690.653 107.007 688.921 107.007H686.532V118.977Z" fill="#868686"/>
<path d="M1294.24 100.062H1291.5V206.968H1294.24V100.062Z" fill="#122066"/>
<path d="M1313.19 128.86V108.927H1320.01C1326.45 108.927 1329.67 112.084 1329.67 118.4V118.981C1329.67 122.215 1328.86 124.671 1327.23 126.349C1325.61 128.026 1323.21 128.86 1320.04 128.86H1313.19H1313.19ZM1317.31 125.691H1320.04C1321.87 125.691 1323.21 125.203 1324.05 124.222C1324.9 123.246 1325.32 121.612 1325.32 119.326V118.34C1325.32 116.015 1324.86 114.381 1323.95 113.444C1323.05 112.507 1321.66 112.035 1319.81 112.035H1317.31V125.691Z" fill="#122066"/>
<path d="M1333.93 111.542V108.285H1337.82V111.542H1333.93ZM1333.96 128.86V113.811H1337.79V128.86H1333.96Z" fill="#122066"/>
<path d="M1348.32 133.163C1343.6 133.163 1341.24 132.012 1341.24 129.704C1341.24 128.328 1342.18 127.341 1344.05 126.738V126.595C1343.01 126.168 1342.49 125.482 1342.49 124.534C1342.49 124.013 1342.62 123.597 1342.87 123.284C1343.12 122.972 1343.58 122.555 1344.26 122.034C1342.98 121.278 1342.34 120.088 1342.34 118.46V118.257C1342.34 116.706 1342.89 115.538 1343.98 114.743C1345.07 113.948 1346.57 113.553 1348.46 113.553C1349.35 113.553 1350.17 113.641 1350.93 113.817H1356.06V116.168H1353.8C1354.28 116.733 1354.53 117.391 1354.53 118.142V118.372C1354.53 119.924 1353.98 121.075 1352.89 121.831C1351.8 122.588 1350.33 122.966 1348.47 122.966C1347.52 122.966 1346.75 122.878 1346.15 122.703C1345.86 122.955 1345.72 123.185 1345.72 123.399C1345.72 123.75 1345.8 123.964 1345.96 124.041C1346.13 124.117 1346.46 124.156 1346.97 124.156H1351.14C1354.45 124.156 1356.1 125.471 1356.1 128.108C1356.1 129.676 1355.45 130.91 1354.16 131.814C1352.86 132.713 1350.92 133.163 1348.33 133.163H1348.32ZM1348.26 130.603C1349.69 130.603 1350.7 130.455 1351.3 130.153C1351.9 129.852 1352.2 129.386 1352.2 128.744C1352.2 128.202 1352.05 127.851 1351.75 127.686C1351.45 127.522 1350.86 127.44 1349.99 127.44H1346.31C1345.4 127.752 1344.95 128.311 1344.95 129.122C1344.95 129.665 1345.19 130.049 1345.69 130.268C1346.18 130.493 1347.03 130.603 1348.25 130.603H1348.26ZM1348.46 120.636C1350.06 120.636 1350.87 119.902 1350.87 118.427V118.109C1350.87 117.298 1350.67 116.728 1350.26 116.41C1349.86 116.092 1349.25 115.933 1348.46 115.933C1346.82 115.933 1346 116.64 1346 118.054V118.405C1346 119.896 1346.82 120.642 1348.46 120.642V120.636Z" fill="#122066"/>
<path d="M1359.63 111.542V108.285H1363.52V111.542H1359.63ZM1359.66 128.86V113.811H1363.49V128.86H1359.66Z" fill="#122066"/>
<path d="M1373.67 129.035C1372.23 129.035 1371.14 128.728 1370.39 128.103C1369.63 127.484 1369.26 126.458 1369.26 125.022V116.624H1367.25V113.806H1369.26V110.259H1373V113.806H1376.45V116.624H1373V124.408C1373 125.05 1373.15 125.494 1373.45 125.746C1373.75 125.998 1374.26 126.124 1374.97 126.124C1375.59 126.124 1376.13 126.047 1376.59 125.894V128.421C1375.82 128.827 1374.84 129.03 1373.67 129.03V129.035Z" fill="#122066"/>
<path d="M1384.43 129.123C1382.99 129.123 1381.85 128.766 1381.01 128.048C1380.15 127.33 1379.73 126.267 1379.73 124.852C1379.73 122.298 1381.41 120.774 1384.75 120.291L1388.05 119.886V118.866C1388.05 117.956 1387.82 117.347 1387.36 117.035C1386.89 116.728 1386.03 116.569 1384.78 116.569C1383.29 116.569 1382.02 116.722 1380.98 117.035V114.36C1382.51 113.817 1384.26 113.548 1386.23 113.548C1389.96 113.548 1391.82 115.061 1391.82 118.082V128.86H1388.72L1388.43 127.637H1388.26C1387.5 128.624 1386.23 129.117 1384.43 129.117V129.123ZM1385.61 126.535C1386.7 126.535 1387.51 126.267 1388.05 125.724V122.237L1385.59 122.5C1384.85 122.577 1384.32 122.775 1383.98 123.082C1383.64 123.389 1383.47 123.887 1383.47 124.562C1383.47 125.877 1384.19 126.535 1385.61 126.535Z" fill="#122066"/>
<path d="M1396.67 128.86V107.622H1400.5V128.86H1396.67Z" fill="#122066"/>
<path d="M1313.19 162.426V142.493H1325.95V145.602H1317.31V150.656H1324.07V153.737H1317.31V159.258H1326.16V162.426H1313.19H1313.19Z" fill="#122066"/>
<path d="M1336.05 162.689C1335.25 162.689 1334.52 162.552 1333.83 162.284C1333.15 162.015 1332.51 161.598 1331.92 161.05C1331.33 160.496 1330.86 159.734 1330.53 158.753C1330.19 157.777 1330.02 156.637 1330.02 155.338V154.96C1330.02 152.284 1330.62 150.305 1331.85 149.017C1333.07 147.729 1334.7 147.087 1336.75 147.087C1338.08 147.087 1339.23 147.361 1340.2 147.899V141.189H1344V162.426H1340.75L1340.43 161.237H1340.28C1339.26 162.207 1337.85 162.689 1336.05 162.689ZM1337.44 159.784C1338.5 159.784 1339.42 159.466 1340.19 158.824V150.601C1339.63 150.174 1338.71 149.96 1337.44 149.96C1336.28 149.96 1335.4 150.316 1334.81 151.018C1334.22 151.725 1333.92 152.931 1333.92 154.636V155.157C1333.92 156.884 1334.23 158.084 1334.82 158.759C1335.42 159.438 1336.29 159.773 1337.43 159.773L1337.44 159.784Z" fill="#122066"/>
<path d="M1353.25 162.689C1350.21 162.689 1348.7 161.236 1348.7 158.331V147.378H1352.49V157.547C1352.49 158.32 1352.66 158.873 1353 159.202C1353.34 159.531 1353.93 159.696 1354.79 159.696C1355.64 159.696 1356.68 159.405 1357.8 158.824V147.378H1361.6V162.426H1358.32L1357.97 161.088H1357.82C1356.43 162.152 1354.9 162.689 1353.24 162.689H1353.25Z" fill="#122066"/>
<path d="M1372.91 162.689C1370.59 162.689 1368.8 162.053 1367.54 160.787C1366.28 159.521 1365.66 157.662 1365.66 155.223V154.79C1365.66 152.273 1366.34 150.36 1367.69 149.05C1369.04 147.74 1370.87 147.087 1373.17 147.087C1374.85 147.087 1376.22 147.389 1377.26 147.986V150.864C1376 150.36 1374.76 150.108 1373.52 150.108C1372.28 150.108 1371.32 150.47 1370.64 151.199C1369.95 151.928 1369.61 153.002 1369.61 154.439V155.02C1369.61 156.664 1369.93 157.86 1370.58 158.594C1371.23 159.329 1372.25 159.696 1373.64 159.696C1374.95 159.696 1376.21 159.394 1377.41 158.797V161.56C1376.17 162.316 1374.67 162.695 1372.92 162.695L1372.91 162.689Z" fill="#122066"/>
<path d="M1385.18 162.689C1383.75 162.689 1382.61 162.333 1381.76 161.615C1380.91 160.897 1380.49 159.833 1380.49 158.419C1380.49 155.864 1382.16 154.34 1385.5 153.858L1388.81 153.452V152.432C1388.81 151.522 1388.58 150.914 1388.11 150.601C1387.65 150.294 1386.79 150.135 1385.53 150.135C1384.04 150.135 1382.78 150.289 1381.73 150.601V147.926C1383.26 147.383 1385.01 147.115 1386.98 147.115C1390.71 147.115 1392.58 148.628 1392.58 151.649V162.426H1389.48L1389.19 161.204H1389.01C1388.26 162.191 1386.98 162.684 1385.18 162.684V162.689ZM1386.37 160.102C1387.45 160.102 1388.26 159.833 1388.8 159.29V155.804L1386.34 156.067C1385.61 156.144 1385.07 156.341 1384.73 156.648C1384.39 156.955 1384.22 157.454 1384.22 158.128C1384.22 159.444 1384.94 160.102 1386.37 160.102Z" fill="#122066"/>
<path d="M1402.64 162.602C1401.21 162.602 1400.12 162.295 1399.37 161.67C1398.61 161.05 1398.23 160.025 1398.23 158.589V150.19H1396.23V147.372H1398.23V143.826H1401.98V147.372H1405.43V150.19H1401.98V157.975C1401.98 158.616 1402.12 159.06 1402.43 159.312C1402.73 159.565 1403.24 159.691 1403.95 159.691C1404.56 159.691 1405.11 159.614 1405.57 159.46V161.988C1404.8 162.393 1403.82 162.596 1402.64 162.596V162.602Z" fill="#122066"/>
<path d="M1409.6 145.108V141.852H1413.49V145.108H1409.6ZM1409.63 162.426V147.378H1413.46V162.426H1409.63Z" fill="#122066"/>
<path d="M1424.8 162.689C1422.46 162.689 1420.67 162.037 1419.42 160.727C1418.18 159.416 1417.55 157.563 1417.55 155.162V154.757C1417.55 152.356 1418.22 150.475 1419.55 149.121C1420.89 147.767 1422.65 147.087 1424.84 147.087C1427.16 147.087 1428.95 147.74 1430.2 149.05C1431.46 150.355 1432.09 152.224 1432.09 154.642V155.047C1432.09 157.47 1431.42 159.345 1430.08 160.683C1428.75 162.02 1426.99 162.689 1424.8 162.689ZM1424.86 159.899C1427.06 159.899 1428.16 158.38 1428.16 155.338V154.642C1428.16 152.882 1427.86 151.648 1427.27 150.952C1426.66 150.256 1425.83 149.905 1424.77 149.905C1422.56 149.905 1421.46 151.446 1421.46 154.526V155.168C1421.46 156.911 1421.77 158.139 1422.36 158.841C1422.96 159.548 1423.79 159.899 1424.86 159.899Z" fill="#122066"/>
<path d="M1436.14 162.426V147.378H1439.8V148.715H1439.95C1441.4 147.63 1443.03 147.087 1444.85 147.087C1446.32 147.087 1447.42 147.416 1448.14 148.074C1448.87 148.732 1449.23 149.801 1449.23 151.27V162.426H1445.4V152.169C1445.4 151.435 1445.23 150.914 1444.89 150.612C1444.55 150.311 1443.93 150.163 1443.02 150.163C1442.19 150.163 1441.17 150.415 1439.95 150.919V162.426H1436.15H1436.14Z" fill="#122066"/>
<path d="M1457.78 162.689C1456.35 162.689 1455.21 162.333 1454.36 161.615C1453.51 160.897 1453.09 159.833 1453.09 158.419C1453.09 155.864 1454.76 154.34 1458.1 153.858L1461.41 153.452V152.432C1461.41 151.522 1461.18 150.914 1460.71 150.601C1460.25 150.294 1459.39 150.135 1458.13 150.135C1456.64 150.135 1455.38 150.289 1454.33 150.601V147.926C1455.86 147.383 1457.61 147.115 1459.58 147.115C1463.31 147.115 1465.18 148.628 1465.18 151.649V162.426H1462.08L1461.79 161.204H1461.61C1460.86 162.191 1459.58 162.684 1457.78 162.684V162.689ZM1458.97 160.102C1460.05 160.102 1460.86 159.833 1461.4 159.29V155.804L1458.94 156.067C1458.21 156.144 1457.67 156.341 1457.33 156.648C1456.99 156.955 1456.82 157.454 1456.82 158.128C1456.82 159.444 1457.54 160.102 1458.97 160.102Z" fill="#122066"/>
<path d="M1470.02 162.426V141.189H1473.85V162.426H1470.02Z" fill="#122066"/>
<path d="M1317.31 194.896V178.072H1311.77V174.963H1327V178.072H1321.4V194.896H1317.32H1317.31Z" fill="#122066"/>
<path d="M1337.53 195.159C1335.03 195.159 1333.15 194.502 1331.87 193.186C1330.6 191.87 1329.96 189.99 1329.96 187.55V187.172C1329.96 184.749 1330.6 182.88 1331.9 181.564C1333.2 180.248 1334.9 179.59 1337.01 179.59C1339.25 179.59 1340.89 180.21 1341.92 181.449C1342.95 182.688 1343.47 184.541 1343.47 186.997V188.389H1333.84C1333.98 189.782 1334.41 190.779 1335.15 191.366C1335.88 191.958 1336.96 192.254 1338.4 192.254C1339.91 192.254 1341.42 191.925 1342.95 191.267V193.767C1341.56 194.699 1339.75 195.159 1337.53 195.159ZM1336.92 182.288C1336.12 182.288 1335.44 182.567 1334.86 183.132C1334.28 183.696 1333.94 184.623 1333.85 185.922H1339.74C1339.74 184.623 1339.51 183.696 1339.04 183.132C1338.58 182.573 1337.87 182.288 1336.92 182.288H1336.92Z" fill="#122066"/>
<path d="M1354 195.16C1351.68 195.16 1349.89 194.524 1348.64 193.257C1347.38 191.991 1346.75 190.132 1346.75 187.693V187.26C1346.75 184.744 1347.43 182.83 1348.78 181.52C1350.13 180.21 1351.96 179.558 1354.26 179.558C1355.94 179.558 1357.3 179.859 1358.35 180.457V183.335C1357.09 182.83 1355.84 182.578 1354.61 182.578C1353.37 182.578 1352.41 182.94 1351.72 183.669C1351.04 184.398 1350.69 185.473 1350.69 186.909V187.49C1350.69 189.135 1351.02 190.33 1351.67 191.064C1352.32 191.799 1353.34 192.166 1354.73 192.166C1356.04 192.166 1357.3 191.865 1358.5 191.267V194.03C1357.26 194.787 1355.76 195.165 1354 195.165L1354 195.16Z" fill="#122066"/>
<path d="M1362.41 194.896V173.659H1366.21V181.098H1366.38C1367.7 180.073 1369.27 179.558 1371.11 179.558C1372.58 179.558 1373.68 179.887 1374.4 180.544C1375.13 181.202 1375.49 182.271 1375.49 183.74V194.896H1371.66V184.64C1371.66 183.905 1371.49 183.384 1371.15 183.083C1370.81 182.781 1370.19 182.633 1369.28 182.633C1368.45 182.633 1367.42 182.885 1366.2 183.39V194.896H1362.4H1362.41Z" fill="#122066"/>
<path d="M1380.19 194.896V179.848H1383.85V181.186H1383.99C1385.44 180.1 1387.07 179.558 1388.9 179.558C1390.36 179.558 1391.46 179.887 1392.19 180.544C1392.91 181.202 1393.28 182.271 1393.28 183.74V194.896H1389.44V184.639C1389.44 183.905 1389.27 183.384 1388.94 183.083C1388.6 182.781 1387.97 182.633 1387.06 182.633C1386.23 182.633 1385.21 182.885 1383.99 183.39V194.896H1380.19Z" fill="#122066"/>
<path d="M1404.44 195.16C1402.1 195.16 1400.31 194.507 1399.06 193.197C1397.81 191.892 1397.19 190.034 1397.19 187.633V187.227C1397.19 184.826 1397.86 182.946 1399.19 181.591C1400.53 180.237 1402.28 179.558 1404.47 179.558C1406.79 179.558 1408.58 180.21 1409.84 181.52C1411.09 182.825 1411.72 184.694 1411.72 187.112V187.518C1411.72 189.941 1411.06 191.815 1409.72 193.153C1408.39 194.491 1406.63 195.16 1404.44 195.16ZM1404.5 192.369C1406.7 192.369 1407.8 190.851 1407.8 187.808V187.112C1407.8 185.352 1407.5 184.119 1406.91 183.422C1406.31 182.726 1405.47 182.375 1404.41 182.375C1402.21 182.375 1401.11 183.916 1401.11 186.997V187.638C1401.11 189.381 1401.41 190.609 1402 191.311C1402.6 192.018 1403.43 192.369 1404.5 192.369Z" fill="#122066"/>
<path d="M1415.87 194.896V173.659H1419.7V194.896H1415.87Z" fill="#122066"/>
<path d="M1431.04 195.16C1428.69 195.16 1426.9 194.507 1425.66 193.197C1424.41 191.892 1423.79 190.034 1423.79 187.633V187.227C1423.79 184.826 1424.45 182.946 1425.79 181.591C1427.12 180.237 1428.88 179.558 1431.07 179.558C1433.39 179.558 1435.18 180.21 1436.43 181.52C1437.69 182.825 1438.32 184.694 1438.32 187.112V187.518C1438.32 189.941 1437.65 191.815 1436.32 193.153C1434.98 194.491 1433.23 195.16 1431.04 195.16ZM1431.1 192.369C1433.3 192.369 1434.4 190.851 1434.4 187.808V187.112C1434.4 185.352 1434.1 184.119 1433.5 183.422C1432.9 182.726 1432.07 182.375 1431.01 182.375C1428.8 182.375 1427.7 183.916 1427.7 186.997V187.638C1427.7 189.381 1428 190.609 1428.6 191.311C1429.2 192.018 1430.03 192.369 1431.1 192.369Z" fill="#122066"/>
<path d="M1448.03 199.194C1443.32 199.194 1440.96 198.043 1440.96 195.735C1440.96 194.359 1441.89 193.372 1443.77 192.769V192.626C1442.73 192.199 1442.21 191.514 1442.21 190.565C1442.21 190.044 1442.33 189.628 1442.58 189.315C1442.83 189.003 1443.3 188.586 1443.97 188.065C1442.7 187.309 1442.06 186.119 1442.06 184.491V184.288C1442.06 182.737 1442.61 181.569 1443.69 180.774C1444.79 179.979 1446.28 179.585 1448.18 179.585C1449.06 179.585 1449.89 179.672 1450.64 179.848H1455.77V182.2H1453.51C1453.99 182.764 1454.24 183.422 1454.24 184.173V184.403C1454.24 185.955 1453.69 187.106 1452.6 187.863C1451.5 188.619 1450.03 188.997 1448.18 188.997C1447.23 188.997 1446.45 188.91 1445.86 188.734C1445.57 188.986 1445.42 189.217 1445.42 189.43C1445.42 189.781 1445.51 189.995 1445.67 190.072C1445.83 190.149 1446.17 190.187 1446.67 190.187H1450.85C1454.15 190.187 1455.8 191.503 1455.8 194.139C1455.8 195.707 1455.16 196.941 1453.86 197.845C1452.57 198.744 1450.62 199.194 1448.03 199.194ZM1447.97 196.639C1449.4 196.639 1450.42 196.491 1451.02 196.19C1451.62 195.888 1451.92 195.422 1451.92 194.781C1451.92 194.238 1451.77 193.887 1451.47 193.723C1451.17 193.558 1450.58 193.476 1449.71 193.476H1446.03C1445.12 193.789 1444.67 194.348 1444.67 195.159C1444.67 195.702 1444.91 196.086 1445.41 196.305C1445.9 196.53 1446.75 196.639 1447.97 196.639ZM1448.18 186.673C1449.78 186.673 1450.58 185.938 1450.58 184.464V184.146C1450.58 183.334 1450.38 182.764 1449.98 182.446C1449.57 182.128 1448.97 181.969 1448.18 181.969C1446.53 181.969 1445.71 182.677 1445.71 184.091V184.442C1445.71 185.933 1446.53 186.678 1448.18 186.678V186.673Z" fill="#122066"/>
<path d="M1461.46 199.139C1460.42 199.139 1459.61 198.986 1459.06 198.673V196.086C1459.42 196.201 1459.94 196.261 1460.59 196.261C1461.29 196.261 1461.81 196.152 1462.14 195.943C1462.48 195.729 1462.78 195.313 1463.06 194.693L1463.58 193.356L1457.92 179.848H1461.92L1465.43 188.68H1465.55L1468.88 179.848H1472.54L1467.09 194.403C1466.01 197.56 1464.13 199.139 1461.46 199.139Z" fill="#122066"/>
<path d="M1485.45 194.896V174.963H1489.57V191.728H1497.75V194.896H1485.46H1485.45Z" fill="#122066"/>
<path d="M1505.52 195.159C1504.08 195.159 1502.95 194.803 1502.1 194.085C1501.24 193.367 1500.82 192.303 1500.82 190.889C1500.82 188.334 1502.5 186.81 1505.84 186.328L1509.15 185.922V184.902C1509.15 183.992 1508.92 183.384 1508.45 183.071C1507.99 182.764 1507.13 182.605 1505.87 182.605C1504.38 182.605 1503.11 182.759 1502.07 183.071V180.396C1503.6 179.853 1505.35 179.585 1507.32 179.585C1511.05 179.585 1512.92 181.098 1512.92 184.118V194.896H1509.81L1509.52 193.674H1509.35C1508.59 194.66 1507.32 195.154 1505.52 195.154V195.159ZM1506.71 192.572C1507.79 192.572 1508.6 192.303 1509.15 191.76V188.274L1506.68 188.537C1505.95 188.614 1505.41 188.811 1505.07 189.118C1504.74 189.425 1504.57 189.924 1504.57 190.598C1504.57 191.914 1505.28 192.572 1506.71 192.572Z" fill="#122066"/>
<path d="M1523.74 195.214C1521.36 195.214 1519.34 194.907 1517.67 194.282V173.653H1521.47V180.829H1521.65C1522.87 179.98 1524.32 179.552 1526 179.552C1527.68 179.552 1528.95 180.122 1530.03 181.268C1531.11 182.414 1531.66 184.25 1531.66 186.788V187.167C1531.66 192.533 1529.02 195.214 1523.74 195.214ZM1523.94 192.369C1526.47 192.369 1527.74 190.812 1527.74 187.693V187.172C1527.74 185.451 1527.46 184.256 1526.93 183.598C1526.39 182.94 1525.49 182.611 1524.23 182.611C1523.5 182.611 1522.58 182.836 1521.47 183.28V191.969C1522.17 192.243 1522.99 192.374 1523.93 192.374L1523.94 192.369Z" fill="#122066"/>
</g>
<defs>
<linearGradient id="paint0_linear_248_1749" x1="0" y1="0" x2="1856.5" y2="530.306" gradientUnits="userSpaceOnUse">
<stop stop-color="#122066" stop-opacity="0.1"/>
<stop offset="1" stop-color="#122066" stop-opacity="0.25"/>
</linearGradient>
<clipPath id="clip0_248_1749">
<rect width="1920" height="308" fill="white"/>
</clipPath>
<clipPath id="clip1_248_1749">
<rect width="668" height="668" fill="white" transform="translate(1118 -46)"/>
</clipPath>
</defs>
</svg>
