<svg width="360" height="102" viewBox="0 0 360 102" fill="none" xmlns="http://www.w3.org/2000/svg">
<g clip-path="url(#clip0_404_5827)">
<rect width="360" height="102" fill="url(#paint0_linear_404_5827)"/>
<g opacity="0.2" clip-path="url(#clip1_404_5827)">
<path d="M350.846 40.0958C347.286 28.5661 341.028 18.7563 333.049 11.1123H333.193C328.917 7.07534 322.937 5.48284 317.101 7.36199C316.535 7.50532 315.962 7.79197 315.532 7.93529L315.102 8.36527C315.245 7.79197 315.245 7.2107 315.245 6.78073C315.245 0.577936 311.829 -4.75694 306.988 -7.49604L306.702 -7.63937C297.322 -12.823 286.357 -16 274.541 -16C262.725 -16 251.482 -12.823 242.078 -7.48808H241.791C236.95 -4.74898 233.534 0.585899 233.534 6.78869L233.391 7.50532H233.247C227.419 5.63413 221.439 7.21866 217.307 11.1123L217.163 11.2557C209.193 18.7563 203.078 28.4149 199.367 39.6659C195.672 51.2035 195.099 62.8845 197.241 73.6976V73.841C198.236 79.4625 202.226 84.2241 208.062 86.2465C208.627 86.3899 209.201 86.5332 209.766 86.6845L208.771 87.6877C205.211 92.5926 205.076 98.9388 207.489 104.122L207.632 104.266C212.33 114.075 219.735 123.017 229.274 129.793C239.092 136.713 249.913 140.758 260.734 141.904C266.427 142.486 272.128 140.033 275.688 135.128C275.831 134.842 275.831 134.698 276.118 134.404L276.396 135.272C279.955 140.177 285.792 142.334 291.342 141.618H291.629C302.306 140.169 312.984 135.996 322.38 128.926C332.054 121.712 339.173 112.483 343.592 102.387L343.735 102.53C346.004 97.3463 345.582 91.0161 342.039 86.1112C347.708 84.1604 351.586 79.359 352.701 73.9763V73.6817C354.843 63.0119 354.413 51.3309 350.854 40.0799L350.846 40.0958ZM239.522 5.19619C242.229 -4.75694 258.887 -1.86655 258.887 -1.86655C269.564 -0.42534 274.549 -0.568666 274.549 -0.568666C274.549 -0.568666 279.677 -0.42534 290.355 -1.86655C290.355 -1.86655 306.869 -4.74898 309.576 5.19619C309.576 5.19619 310.914 9.43224 307.824 11.5184C307.84 11.5184 307.856 11.5343 307.864 11.5423L307.577 11.6856C307.673 11.6379 307.745 11.5742 307.824 11.5184C298.293 5.47488 287.066 2.01915 274.979 2.01915C262.892 2.01915 251.346 5.62617 241.807 11.829L241.52 11.6856C238.105 9.67112 239.53 5.19619 239.53 5.19619H239.522ZM208.484 80.0437C199.94 74.2709 207.775 59.2775 207.775 59.2775C212.473 49.3244 213.755 44.4195 213.755 44.4195C213.755 44.4195 215.603 39.6659 217.45 28.8448C217.45 28.8448 219.87 11.9723 230.126 12.4023C230.126 12.4023 234.681 12.5456 235.533 16.4392V16.5826C222.012 27.9769 213.612 44.9928 213.612 64.1745C213.612 69.804 214.034 74.7009 215.459 79.7491L215.316 80.0358C212.473 82.6316 208.484 80.0358 208.484 80.0358V80.0437ZM269.986 132.978C262.016 139.468 250.056 127.5 250.056 127.5C242.229 120 237.953 117.26 237.953 117.26C237.953 117.26 233.964 114.091 224.29 109.187C224.29 109.187 209.057 101.829 212.473 92.1706C212.473 92.1706 213.899 87.6957 217.88 87.9824L218.453 88.4203C227.284 109.76 247.636 125.056 271.555 126.346H271.842C273.554 129.953 269.994 132.978 269.994 132.978H269.986ZM274.915 124.339C242.157 124.339 215.603 97.4338 215.603 64.2461C215.603 31.0584 242.157 4.1531 274.915 4.1531C307.673 4.1531 334.236 31.0584 334.236 64.2461C334.236 97.4338 307.681 124.339 274.915 124.339ZM326.791 108.167C317.252 113.359 313.271 116.679 313.271 116.679C313.271 116.679 309.138 119.562 301.454 127.062C301.454 127.062 289.781 139.46 281.811 133.122C281.811 133.122 278.108 130.383 279.677 126.776L279.82 126.346C303.739 124.323 323.813 108.605 332.213 87.1144C336.195 86.5411 338.193 90.8648 338.193 90.8648C341.745 100.388 326.799 108.175 326.799 108.175L326.791 108.167ZM341.45 80.3383C341.45 80.3383 337.325 83.0775 334.331 80.3383C335.757 75.1468 336.465 69.8119 336.465 64.1824C336.465 45.2954 328.065 28.5582 314.967 17.0205C315.827 13.1268 320.373 12.5535 320.373 12.5535C330.621 12.2669 332.906 29.1315 332.906 29.1315C334.753 39.8092 336.465 44.7061 336.465 44.7061C336.465 44.7061 337.747 49.611 342.302 59.5562C342.302 59.5562 349.986 74.7009 341.45 80.3304V80.3383Z" fill="#981A45"/>
<path d="M271.222 31.3928V33.0251H274.996H278.778V31.3928H274.996H271.222Z" fill="#981A45"/>
<path d="M239.443 66.7384H236.8V73.6737H239.443V66.7384Z" fill="#981A45"/>
<path d="M250.185 66.7384H247.541V73.6737H250.185V66.7384Z" fill="#981A45"/>
<path d="M244.667 32.213H242.318V33.8532H244.667V32.213Z" fill="#981A45"/>
<path d="M313.2 66.7384H310.557V73.6737H313.2V66.7384Z" fill="#981A45"/>
<path d="M302.459 66.7384H299.815V73.6737H302.459V66.7384Z" fill="#981A45"/>
<path d="M307.682 32.213H305.333V33.8532H307.682V32.213Z" fill="#981A45"/>
<path d="M309.888 28.5263V25.1423H307.403V21.1451H305.604V25.1423H303.167V28.4865C300.269 31.2734 296.447 34.9521 295.858 35.5174C295.069 34.4026 284.264 19.1385 284.264 19.1385V17.1081H281.724V15.5793H277.934V17.1081H275.888V12.1952H274.12V17.1081H272.074V15.5793H268.284V17.1081H265.744V19.1385C265.744 19.1385 254.938 34.4026 254.15 35.5174C253.569 34.9521 249.747 31.2813 246.841 28.4865V25.1423H244.404V21.1451H242.605V25.1423H240.128V28.5263L232.134 36.2101V95.6901H317.89V36.2101L309.904 28.5263H309.888ZM304.091 29.3783H308.916C311.082 31.4645 314.116 34.3788 315.645 35.8518H297.355C299.154 34.124 302.029 31.361 304.083 29.3783H304.091ZM296.407 37.1338H316.608V40.6134H296.407V37.1338ZM316.608 41.9272V48.974C315.684 48.1778 314.172 47.3497 311.878 47.3497C308.932 47.3497 307.284 48.7113 306.512 49.611C305.739 48.7113 304.099 47.3497 301.145 47.3497C298.852 47.3497 297.339 48.1857 296.415 48.974V41.9193H316.616L316.608 41.9272ZM315.883 50.041H307.865C308.59 49.3881 309.864 48.6396 311.878 48.6396C313.893 48.6396 315.159 49.3881 315.883 50.041ZM305.15 50.041H297.132C297.856 49.3881 299.122 48.6396 301.137 48.6396C303.151 48.6396 304.417 49.3881 305.15 50.041ZM288.946 37.1338V47.5328H281.621V37.1338H288.946ZM281.621 35.8439V27.0373C283.325 29.2907 286.836 33.9169 288.293 35.8439H281.621ZM274.996 61.2522H272.018V52.8916H277.974V61.2522H274.996ZM280.355 35.8439H269.645V25.7872H280.355V35.8439ZM274.996 37.1338H280.347V47.5328H277.966V43.0579C277.966 41.3937 276.636 40.0401 274.988 40.0401C273.34 40.0401 272.01 41.3937 272.01 43.0579V47.5328H269.637V37.1338H274.988H274.996ZM268.371 35.8439H261.699C263.156 33.9169 266.667 29.2907 268.371 27.0373V35.8439ZM268.371 37.1338V47.5328H261.046V37.1338H268.371ZM266.046 52.8996V61.2602H261.046V52.8996H266.046ZM283.954 61.2522V52.8916H288.954V61.2522H283.954ZM295.133 48.6555C294.584 47.9708 293.756 47.5408 292.824 47.5408H290.22V37.1418H295.141V48.6635L295.133 48.6555ZM266.381 20.4205H283.611C283.906 20.8425 291.574 31.6715 294.528 35.8439H289.894L281.294 24.4973H268.69L260.098 35.8439H255.464C258.418 31.6715 266.086 20.8345 266.381 20.4205ZM259.78 37.1338V47.5328H257.176C256.244 47.5328 255.408 47.9708 254.867 48.6476V37.1258H259.788L259.78 37.1338ZM241.076 29.3783H245.901C247.955 31.353 250.83 34.116 252.629 35.8518H234.339C235.868 34.3788 238.902 31.4645 241.068 29.3783H241.076ZM233.392 37.1338H253.593V40.6134H233.392V37.1338ZM253.585 41.9272V48.982C252.661 48.1857 251.148 47.3576 248.855 47.3576C245.909 47.3576 244.261 48.7192 243.488 49.619C242.716 48.7192 241.068 47.3576 238.122 47.3576C235.828 47.3576 234.316 48.1857 233.392 48.982V41.9352H253.593L253.585 41.9272ZM252.868 50.041H244.85C245.575 49.3881 246.849 48.6396 248.855 48.6396C250.862 48.6396 252.136 49.3881 252.868 50.041ZM242.135 50.041H234.117C234.841 49.3881 236.107 48.6396 238.122 48.6396C240.136 48.6396 241.402 49.3881 242.127 50.041H242.135ZM237.509 94.4081H233.384V79.4227H237.509V94.4081ZM234.117 78.1327C234.841 77.4798 236.107 76.7313 238.122 76.7313C240.136 76.7313 241.402 77.4798 242.127 78.1327H234.109H234.117ZM242.851 94.4081H238.783V79.4227H242.851V94.4081ZM248.202 94.4081H244.125V79.4227H248.202V94.4081ZM244.85 78.1327C245.575 77.4798 246.849 76.7313 248.855 76.7313C250.862 76.7313 252.136 77.4798 252.868 78.1327H244.85ZM253.585 94.4081H249.468V79.4227H253.585V94.4081ZM253.585 77.0737C252.661 76.2775 251.148 75.4494 248.855 75.4494C245.909 75.4494 244.261 76.811 243.488 77.7107C242.716 76.811 241.068 75.4494 238.122 75.4494C235.828 75.4494 234.316 76.2775 233.392 77.0737V62.5979H253.593V77.0737H253.585ZM253.585 61.4752L233.384 61.308V58.4335H253.585V61.4672V61.4752ZM253.585 57.1515H250.177V54.3806H247.533V57.1515H239.435V54.3806H236.792V57.1515H233.384V51.3309H253.585V57.1515ZM254.859 71.3168C255.408 72.0016 256.236 72.4316 257.168 72.4316C258.784 72.4316 260.098 71.1337 260.146 69.5014V62.5899H262.248V74.1674H259.995V94.4001H254.851V71.3089L254.859 71.3168ZM286.47 94.4081H263.53V62.5979H266.046V69.1988C266.038 69.3023 266.03 69.4058 266.03 69.5173C266.03 71.1815 267.368 72.5351 269.008 72.5351C270.648 72.5351 271.986 71.1815 271.986 69.5173H272.018V62.6058H277.974V69.5173H278.006C278.006 71.1815 279.336 72.5351 280.984 72.5351C282.632 72.5351 283.962 71.1815 283.962 69.5173C283.962 69.4138 283.962 69.3023 283.946 69.1988V62.5979H286.462V94.4081H286.47ZM289.997 94.4081V74.1754H287.744V62.5979H289.846V69.5093C289.894 71.1337 291.208 72.4395 292.824 72.4395C293.756 72.4395 294.592 72.0016 295.133 71.3248V94.4161H289.989L289.997 94.4081ZM300.524 94.4081H296.407V79.4227H300.524V94.4081ZM297.132 78.1327C297.856 77.4798 299.13 76.7313 301.145 76.7313C303.159 76.7313 304.425 77.4798 305.158 78.1327H297.14H297.132ZM305.875 94.4081H301.798V79.4227H305.875V94.4081ZM311.217 94.4081H307.149V79.4227H311.217V94.4081ZM307.865 78.1327C308.59 77.4798 309.864 76.7313 311.878 76.7313C313.893 76.7313 315.159 77.4798 315.883 78.1327H307.865ZM316.608 94.4081H312.491V79.4227H316.608V94.4081ZM316.608 77.0737C315.684 76.2775 314.172 75.4494 311.878 75.4494C308.932 75.4494 307.284 76.811 306.512 77.7107C305.739 76.811 304.099 75.4494 301.145 75.4494C298.852 75.4494 297.339 76.2775 296.415 77.0737V62.5979H316.616V77.0737H316.608ZM316.608 61.3159H296.407V58.4335H316.608V61.3159ZM316.608 57.1515H313.2V54.3806H310.557V57.1515H302.459V54.3806H299.815V57.1515H296.407V51.3309H316.608V57.1515Z" fill="#981A45"/>
<path d="M274.996 72.559C274.518 72.551 268.769 72.5351 268.371 78.7379V92.1228H274.996H281.621V78.7777C281.223 72.5431 275.474 72.551 274.996 72.559ZM280.355 90.8329H269.645V78.7777C269.972 73.6737 274.765 73.8409 274.964 73.8489L274.996 73.2199L275.028 73.8489C275.235 73.8409 280.02 73.6737 280.355 78.8175V90.8329Z" fill="#981A45"/>
</g>
<path d="M120.532 34.124H42.5248L45.579 40.1132H58.4144C59.542 40.1132 60.551 40.6561 61.3306 41.6839C62.7712 43.5831 63.1464 46.7361 62.2871 49.7152C60.8659 54.638 56.0717 59.468 52.6052 59.468H46.1642L50.3792 44.864H43.9323L37.8782 65.8436H50.9896C54.5338 65.8436 58.5602 63.927 62.0383 60.5846C65.1684 57.5746 67.5869 53.6913 68.6737 49.9277C69.6496 46.5467 69.6088 43.0073 68.5765 40.1112H75.7504L68.3257 65.8436H90.8487L92.6879 59.468H76.6117L78.4761 53.0093H88.3913L90.2305 46.6337H80.3153L82.1972 40.1132H105.374L97.9488 65.8455H104.396L111.82 40.1132H123.588L120.534 34.124H120.532Z" fill="#122066"/>
<path d="M144.329 58.1797L144.655 60.1504C142.649 60.5831 139.593 60.815 135.487 60.8459H133.154V47.1905H142.579V49.1148H135.51V58.8057C139.538 58.8057 142.478 58.597 144.329 58.1797ZM148.855 65.9232H146.452V45.2662H148.855V65.9232Z" fill="#3D3D3D"/>
<path d="M166.212 59.1998L164.812 60.9386C163.801 60.3822 162.775 59.5244 161.733 58.3652C160.691 57.206 160.006 56.1163 159.68 55.0963C159.4 56.24 158.781 57.4108 157.825 58.6086C156.868 59.8065 155.784 60.7222 154.57 61.3559L153.054 59.6171C154.749 58.6743 156.071 57.4031 157.02 55.8034C157.969 54.2037 158.443 52.376 158.443 50.3203V49.3003H154.104V47.4223H165.139V49.3003H160.916V50.2972C160.916 52.3064 161.398 54.0762 162.363 55.6063C163.327 57.1364 164.61 58.3343 166.212 59.1998ZM170.341 65.9232H167.962V45.2662H170.341V65.9232Z" fill="#3D3D3D"/>
<path d="M183.919 49.9494V51.8041H177.737V53.7516C181.112 53.7516 183.772 53.5738 185.716 53.2183L186.042 55.0499C184.363 55.4208 181.897 55.6218 178.647 55.6527H175.357V46.2863H184.643V48.1642H177.737V49.9494H183.919ZM192.365 65.7377H178.11V60.5445H189.285V58.968H178.064V57.0437H191.665V62.2833H180.513V63.8598H192.365V65.7377ZM191.665 55.9772H189.285V51.8737H185.319V49.8799H189.285V45.2662H191.665V55.9772Z" fill="#3D3D3D"/>
<path d="M214.689 62.9555H195.909V61.0313H200.295V54.5861H202.698V61.0313H205.288V54.5861H207.691V61.0313H214.689V62.9555ZM212.45 47.5382C212.45 52.2677 212.147 55.9694 211.54 58.6433L209.254 58.2956C209.767 56.3945 210.024 53.4501 210.024 49.4625H198.079V47.5382H212.45Z" fill="#3D3D3D"/>
<path d="M219.449 59.1535H222.132V56.6264H217.256V54.7253H236.036V56.6264H231.09V59.1535H233.61V65.9928H231.23V61.0314H219.449V59.1535ZM233.843 49.4162C233.843 50.5909 233.21 51.5375 231.942 52.2562C230.674 52.9749 228.913 53.3343 226.658 53.3343C224.403 53.3343 222.641 52.9749 221.374 52.2562C220.106 51.5375 219.472 50.5909 219.472 49.4162C219.472 48.2415 220.106 47.2949 221.374 46.5762C222.641 45.8575 224.395 45.4981 226.634 45.4981C228.874 45.4981 230.674 45.8536 231.942 46.5646C233.21 47.2755 233.843 48.2261 233.843 49.4162ZM231.394 49.4162C231.394 48.7671 230.974 48.257 230.134 47.8861C229.294 47.5151 228.128 47.3296 226.634 47.3296C225.141 47.3296 223.998 47.5151 223.158 47.8861C222.318 48.257 221.898 48.7671 221.898 49.4162C221.898 50.0654 222.318 50.5561 223.158 50.9348C223.998 51.3134 225.157 51.5028 226.634 51.5028C228.112 51.5028 229.255 51.3134 230.111 50.9348C230.966 50.5561 231.394 50.0499 231.394 49.4162ZM224.511 56.6264V59.1535H228.711V56.6264H224.511Z" fill="#3D3D3D"/>
<path d="M257.383 56.3017H238.603V54.4238H245.905V50.7376H248.308V54.4238H257.383V56.3017ZM253.16 59.1418C254.42 59.845 255.05 60.7994 255.05 62.005C255.05 63.2106 254.42 64.1611 253.16 64.8566C251.901 65.5521 250.128 65.8999 247.841 65.8999C245.555 65.8999 243.774 65.5483 242.499 64.845C241.223 64.1418 240.586 63.1951 240.586 62.005C240.586 60.8149 241.223 59.845 242.499 59.1418C243.774 58.4385 245.555 58.0869 247.841 58.0869C250.128 58.0869 251.901 58.4385 253.16 59.1418ZM254.957 46.0776C255.035 48.7824 254.825 51.2012 254.327 53.3342L252.017 53.0096C252.422 51.4022 252.601 49.7252 252.554 47.9787H240.819V46.0776H254.957ZM247.841 60.0112C246.348 60.0112 245.178 60.185 244.33 60.5328C243.482 60.8806 243.059 61.3713 243.059 62.005C243.059 62.6387 243.482 63.1487 244.33 63.4888C245.178 63.8288 246.348 63.9988 247.841 63.9988C249.334 63.9988 250.501 63.8288 251.341 63.4888C252.181 63.1487 252.601 62.6541 252.601 62.005C252.601 61.3558 252.177 60.8806 251.329 60.5328C250.481 60.185 249.319 60.0112 247.841 60.0112Z" fill="#3D3D3D"/>
<path d="M271.824 50.4363H259.786V48.5815H271.824V50.4363ZM270.705 54.6789C270.705 55.6836 270.242 56.5066 269.316 57.148C268.391 57.7895 267.228 58.1102 265.829 58.1102C264.429 58.1102 263.258 57.7895 262.317 57.148C261.376 56.5066 260.906 55.6836 260.906 54.6789C260.906 53.6743 261.373 52.8049 262.306 52.1635C263.239 51.522 264.413 51.2013 265.829 51.2013C267.244 51.2013 268.391 51.522 269.316 52.1635C270.242 52.8049 270.705 53.6434 270.705 54.6789ZM262.539 59.1535H276.117V65.9464H273.714V61.0545H262.539V59.1535ZM262.796 47.3992V45.4981H268.885V47.3992H262.796ZM268.325 54.6789C268.325 54.1998 268.08 53.8057 267.59 53.4966C267.1 53.1874 266.513 53.0329 265.829 53.0329C265.144 53.0329 264.53 53.1874 264.032 53.4966C263.535 53.8057 263.286 54.1998 263.286 54.6789C263.286 55.1581 263.538 55.529 264.044 55.8381C264.549 56.1473 265.144 56.3018 265.829 56.3018C266.513 56.3018 267.1 56.1473 267.59 55.8381C268.08 55.529 268.325 55.1426 268.325 54.6789ZM279.15 52.6851H276.094V58.0638H273.691V45.2662H276.094V50.7377H279.15V52.6851Z" fill="#3D3D3D"/>
<path d="M291.748 55.5367L290.535 57.2987C289.773 56.9432 288.999 56.3675 288.214 55.5715C287.428 54.7755 286.896 54.0143 286.616 53.2879C286.336 54.1534 285.815 55.0267 285.052 55.9077C284.29 56.7887 283.45 57.4687 282.533 57.9479C282.377 57.7315 282.14 57.4378 281.821 57.0669C281.502 56.6959 281.281 56.4332 281.156 56.2786C282.447 55.5831 283.478 54.6364 284.248 53.4386C285.017 52.2408 285.402 50.9231 285.402 49.4857V46.8891H287.712V49.4162C287.712 50.7918 288.101 52.0205 288.879 53.1024C289.656 54.1843 290.613 54.9958 291.748 55.5367ZM299.424 65.3436H285.029V58.7825H287.409V63.4425H299.424V65.3436ZM294.851 60.0113H292.588V52.3605H289.975V50.4131H292.588V45.6372H294.851V60.0113ZM298.817 60.614H296.531V45.2662H298.817V60.614Z" fill="#3D3D3D"/>
<path d="M311.998 52.7779V54.7021H305.863V59.2462C309.409 59.2462 312.232 59.0375 314.331 58.6202L314.681 60.4981C312.628 60.9309 309.627 61.1627 305.676 61.1936H303.506V47.121H313.025V48.9989H305.863V52.7779H311.998ZM319.744 65.9232H317.364V54.7949H313.608V52.8242H317.364V45.2662H319.744V65.9232Z" fill="#3D3D3D"/>
<path d="M316.571 39.7979V37.7L314.791 34.375H315.669L317.018 36.9321H317.042L318.368 34.375H319.166L317.394 37.7V39.7979H316.571Z" fill="#868686"/>
<path d="M309.307 39.7979V35.0558H307.702V34.375H311.718V35.0558H310.129V39.7979H309.307Z" fill="#868686"/>
<path d="M303.235 39.7979V34.375H304.065V39.7979H303.235Z" fill="#868686"/>
<path d="M298.997 39.4655C298.683 39.7505 298.209 39.893 297.575 39.893C296.942 39.893 296.41 39.7743 295.979 39.5368V38.8718C296.463 39.0987 296.977 39.2122 297.52 39.2122C298.254 39.2122 298.621 38.9193 298.621 38.3334C298.621 38.1012 298.56 37.9218 298.438 37.7951C298.315 37.6684 298.097 37.555 297.783 37.4547L297.248 37.2805C296.849 37.1591 296.545 36.9823 296.338 36.7501C296.136 36.5179 296.034 36.1933 296.034 35.7764C296.034 35.3225 296.186 34.9609 296.49 34.6918C296.793 34.4173 297.229 34.2801 297.799 34.2801C298.315 34.2801 298.776 34.3804 299.18 34.5809V35.2459C298.733 35.0559 298.273 34.9609 297.799 34.9609C297.496 34.9609 297.261 35.0243 297.096 35.1509C296.931 35.2776 296.849 35.4623 296.849 35.7051C296.849 35.9426 296.899 36.1221 297.001 36.2434C297.107 36.3648 297.301 36.4677 297.583 36.5522L298.126 36.7184C298.579 36.8609 298.914 37.0457 299.132 37.2726C299.356 37.4996 299.468 37.8321 299.468 38.2701C299.468 38.7821 299.311 39.1805 298.997 39.4655Z" fill="#868686"/>
<path d="M288.818 39.7979V34.375H290.527C291.767 34.375 292.388 34.8975 292.388 35.9425C292.388 36.3119 292.3 36.6075 292.124 36.8292C291.954 37.0508 291.701 37.225 291.366 37.3517V37.3913L292.763 39.7979H291.845L290.567 37.5417H289.641V39.7979H288.818ZM289.641 36.94H290.447C290.825 36.94 291.099 36.8608 291.27 36.7025C291.44 36.5442 291.525 36.2988 291.525 35.9663C291.525 35.639 291.44 35.4042 291.27 35.2617C291.099 35.1139 290.823 35.04 290.439 35.04H289.641V36.94Z" fill="#868686"/>
<path d="M281.579 39.7979V34.375H284.901V35.0558H282.402V36.6708H284.342V37.3438H282.402V39.1171H284.933V39.7979H281.579Z" fill="#868686"/>
<path d="M275.286 39.7979L273.33 34.375H274.184L275.709 38.7292H275.733L277.25 34.375H278.033L276.077 39.7979H275.286Z" fill="#868686"/>
<path d="M268.942 39.7979V34.375H269.773V39.7979H268.942Z" fill="#868686"/>
<path d="M260.72 39.7979V34.375H261.67L264.082 38.4363H264.106V34.375H264.848V39.7979H264.018L261.495 35.4992H261.463V39.7979H260.72Z" fill="#868686"/>
<path d="M256.177 39.41C255.847 39.7319 255.341 39.8929 254.66 39.8929C253.978 39.8929 253.459 39.7293 253.103 39.4021C252.746 39.0696 252.568 38.5708 252.568 37.9058V34.375H253.414V37.8583C253.414 38.3756 253.518 38.7397 253.726 38.9508C253.933 39.1619 254.255 39.2675 254.692 39.2675C255.123 39.2675 255.434 39.1646 255.626 38.9588C255.823 38.7476 255.921 38.3782 255.921 37.8504V34.375H256.672V37.8821C256.672 38.5735 256.507 39.0828 256.177 39.41Z" fill="#868686"/>
<path d="M243.51 39.4655C243.196 39.7505 242.722 39.893 242.089 39.893C241.455 39.893 240.923 39.7743 240.492 39.5368V38.8718C240.976 39.0987 241.49 39.2122 242.033 39.2122C242.767 39.2122 243.135 38.9193 243.135 38.3334C243.135 38.1012 243.073 37.9218 242.951 37.7951C242.829 37.6684 242.61 37.555 242.296 37.4547L241.761 37.2805C241.362 37.1591 241.059 36.9823 240.851 36.7501C240.649 36.5179 240.548 36.1933 240.548 35.7764C240.548 35.3225 240.699 34.9609 241.003 34.6918C241.306 34.4173 241.743 34.2801 242.312 34.2801C242.829 34.2801 243.289 34.3804 243.694 34.5809V35.2459C243.246 35.0559 242.786 34.9609 242.312 34.9609C242.009 34.9609 241.775 35.0243 241.61 35.1509C241.445 35.2776 241.362 35.4623 241.362 35.7051C241.362 35.9426 241.413 36.1221 241.514 36.2434C241.62 36.3648 241.815 36.4677 242.097 36.5522L242.64 36.7184C243.092 36.8609 243.427 37.0457 243.646 37.2726C243.869 37.4996 243.981 37.8321 243.981 38.2701C243.981 38.7821 243.824 39.1805 243.51 39.4655Z" fill="#868686"/>
<path d="M237.002 33.9792V34.8738C237.002 35.1588 236.915 35.4121 236.739 35.6338C236.569 35.8554 236.348 35.9953 236.076 36.0533V35.6338C236.401 35.5388 236.569 35.3013 236.579 34.9213H236.06V33.9792H237.002Z" fill="#868686"/>
<path d="M228.214 39.7979V34.375H229.164L231.575 38.4363H231.599V34.375H232.341V39.7979H231.511L228.988 35.4992H228.956V39.7979H228.214Z" fill="#868686"/>
<path d="M220.975 39.7979V34.375H224.296V35.0558H221.797V36.6708H223.737V37.3438H221.797V39.1171H224.328V39.7979H220.975Z" fill="#868686"/>
<path d="M211.646 39.7979V34.375H212.836L214.265 38.6975H214.289L215.718 34.375H216.892V39.7979H216.069V35.42H216.053L214.584 39.7979H213.858L212.412 35.42H212.381V39.7979H211.646Z" fill="#868686"/>
<path d="M207.204 39.1647C206.768 39.645 206.172 39.8851 205.416 39.8851C204.66 39.8851 204.066 39.6502 203.635 39.1805C203.204 38.7108 202.989 38.0379 202.989 37.1618V37.0034C202.989 36.1537 203.209 35.4887 203.651 35.0084C204.093 34.5229 204.692 34.2801 205.448 34.2801C206.204 34.2801 206.794 34.515 207.22 34.9847C207.651 35.4544 207.867 36.13 207.867 37.0114V37.1697C207.867 38.0194 207.646 38.6844 207.204 39.1647ZM205.44 39.2359C205.945 39.2359 206.329 39.0591 206.59 38.7055C206.85 38.3466 206.981 37.8716 206.981 37.2805V37.0193C206.981 35.6365 206.456 34.9425 205.408 34.9372C204.902 34.9372 204.519 35.114 204.258 35.4676C204.003 35.8212 203.875 36.2909 203.875 36.8768V37.1539C203.875 38.5419 204.396 39.2359 205.44 39.2359Z" fill="#868686"/>
<path d="M194.413 39.7979L193.04 34.375H193.878L194.86 38.5629H194.884L196.074 34.375H196.761L197.926 38.5629H197.942L198.94 34.375H199.691L198.334 39.7979H197.535L196.401 35.6892H196.377L195.212 39.7979H194.413Z" fill="#868686"/>
<path d="M182.977 39.8851C182.163 39.8851 181.529 39.6661 181.077 39.228C180.625 38.79 180.398 38.1144 180.398 37.2014V37.043C180.398 36.5416 180.468 36.1089 180.606 35.7447C180.75 35.3752 180.947 35.0876 181.197 34.8818C181.452 34.6759 181.732 34.5255 182.035 34.4305C182.339 34.3302 182.671 34.2801 183.033 34.2801C183.587 34.2801 184.077 34.3883 184.502 34.6047V35.2855C183.991 35.0691 183.496 34.9609 183.017 34.9609C182.405 34.9609 181.961 35.1457 181.684 35.5151C181.412 35.8846 181.277 36.3595 181.277 36.9401V37.1934C181.277 37.8426 181.402 38.3414 181.652 38.6897C181.902 39.038 182.347 39.2122 182.985 39.2122C183.374 39.2122 183.68 39.1673 183.904 39.0776V37.7476H182.818V37.0984H184.726V39.5605C184.199 39.7769 183.616 39.8851 182.977 39.8851Z" fill="#868686"/>
<path d="M172.504 39.7979V34.375H173.454L175.865 38.4363H175.889V34.375H176.632V39.7979H175.801L173.278 35.4992H173.246V39.7979H172.504Z" fill="#868686"/>
<path d="M167.96 39.41C167.63 39.7319 167.125 39.8929 166.443 39.8929C165.762 39.8929 165.243 39.7293 164.886 39.4021C164.53 39.0696 164.351 38.5708 164.351 37.9058V34.375H165.198V37.8583C165.198 38.3756 165.302 38.7397 165.509 38.9508C165.717 39.1619 166.039 39.2675 166.475 39.2675C166.906 39.2675 167.218 39.1646 167.409 38.9588C167.606 38.7476 167.705 38.3782 167.705 37.8504V34.375H168.455V37.8821C168.455 38.5735 168.29 39.0828 167.96 39.41Z" fill="#868686"/>
<path d="M160.185 39.4655C159.871 39.7505 159.398 39.893 158.764 39.893C158.131 39.893 157.598 39.7743 157.167 39.5368V38.8718C157.652 39.0987 158.165 39.2122 158.708 39.2122C159.443 39.2122 159.81 38.9193 159.81 38.3334C159.81 38.1012 159.749 37.9218 159.626 37.7951C159.504 37.6684 159.286 37.555 158.972 37.4547L158.437 37.2805C158.038 37.1591 157.734 36.9823 157.527 36.7501C157.324 36.5179 157.223 36.1933 157.223 35.7764C157.223 35.3225 157.375 34.9609 157.678 34.6918C157.982 34.4173 158.418 34.2801 158.988 34.2801C159.504 34.2801 159.964 34.3804 160.369 34.5809V35.2459C159.922 35.0559 159.461 34.9609 158.988 34.9609C158.684 34.9609 158.45 35.0243 158.285 35.1509C158.12 35.2776 158.038 35.4623 158.038 35.7051C158.038 35.9426 158.088 36.1221 158.189 36.2434C158.296 36.3648 158.49 36.4677 158.772 36.5522L159.315 36.7184C159.768 36.8609 160.103 37.0457 160.321 37.2726C160.545 37.4996 160.656 37.8321 160.656 38.2701C160.656 38.7821 160.499 39.1805 160.185 39.4655Z" fill="#868686"/>
<path d="M153.011 39.7979L150.903 37.035L152.995 34.375H153.858L151.837 36.9558L153.977 39.7979H153.011ZM149.929 39.7979V34.375H150.752V39.7979H149.929Z" fill="#868686"/>
<path d="M145.386 39.41C145.056 39.7319 144.55 39.8929 143.869 39.8929C143.187 39.8929 142.668 39.7293 142.312 39.4021C141.955 39.0696 141.777 38.5708 141.777 37.9058V34.375H142.623V37.8583C142.623 38.3756 142.727 38.7397 142.935 38.9508C143.142 39.1619 143.464 39.2675 143.901 39.2675C144.332 39.2675 144.643 39.1646 144.835 38.9588C145.032 38.7476 145.13 38.3782 145.13 37.8504V34.375H145.881V37.8821C145.881 38.5735 145.716 39.0828 145.386 39.41Z" fill="#868686"/>
<path d="M133.744 39.7979V34.375H135.452C136.293 34.375 136.935 34.5888 137.377 35.0163C137.824 35.4385 138.047 36.0771 138.047 36.9321V37.0983C138.047 37.9692 137.832 38.6368 137.4 39.1013C136.975 39.5657 136.331 39.7979 135.468 39.7979H133.744ZM134.566 39.1171H135.484C136.064 39.1171 136.488 38.9667 136.754 38.6658C137.025 38.365 137.161 37.8768 137.161 37.2013V36.9321C137.161 36.246 137.015 35.7631 136.722 35.4833C136.429 35.1983 135.985 35.0558 135.388 35.0558H134.566V39.1171Z" fill="#868686"/>
</g>
<defs>
<linearGradient id="paint0_linear_404_5827" x1="0" y1="0" x2="366.9" y2="59.3377" gradientUnits="userSpaceOnUse">
<stop stop-color="#122066" stop-opacity="0.1"/>
<stop offset="1" stop-color="#122066" stop-opacity="0.25"/>
</linearGradient>
<clipPath id="clip0_404_5827">
<rect width="360" height="102" fill="white"/>
</clipPath>
<clipPath id="clip1_404_5827">
<rect width="158" height="158" fill="white" transform="translate(196 -16)"/>
</clipPath>
</defs>
</svg>
