<svg width="12" height="12" viewBox="0 0 12 12" fill="none" xmlns="http://www.w3.org/2000/svg">
<g clip-path="url(#clip0_436_2386)">
<path d="M11.4471 3.31966C11.3821 3.08339 11.255 2.86795 11.0782 2.69494C10.9015 2.52193 10.6815 2.3974 10.4401 2.33383C9.78049 2.0845 3.39135 1.96234 1.53795 2.34097C1.29659 2.40455 1.07652 2.52909 0.899788 2.70213C0.723056 2.87516 0.595858 3.09062 0.53093 3.32692C0.23322 4.60566 0.210619 7.3703 0.538226 8.67759C0.603169 8.91387 0.730374 9.12931 0.907106 9.30233C1.08384 9.47535 1.30389 9.59988 1.54524 9.66345C2.85136 9.95776 9.06101 9.9992 10.4474 9.66345C10.6888 9.59988 10.9088 9.47534 11.0855 9.30233C11.2623 9.12931 11.3894 8.91387 11.4544 8.67759C11.7718 7.28445 11.7944 4.69132 11.4471 3.31966Z" stroke="white" stroke-linecap="round" stroke-linejoin="round"/>
<path d="M7.80005 6.00003L4.80005 4.20001V7.80001L7.80005 6.00003Z" stroke="white" stroke-linecap="round" stroke-linejoin="round"/>
</g>
<defs>
<clipPath id="clip0_436_2386">
<rect width="12" height="12" fill="white"/>
</clipPath>
</defs>
</svg>
