<svg width="24" height="24" viewBox="0 0 24 24" fill="none" xmlns="http://www.w3.org/2000/svg">
<g clip-path="url(#clip0_266_1146)">
<path d="M22.8942 6.63939C22.7643 6.16683 22.5099 5.73597 22.1565 5.38994C21.803 5.04391 21.3629 4.79486 20.8802 4.66772C19.561 4.16906 6.7827 3.92475 3.07589 4.68201C2.59317 4.80916 2.15304 5.05825 1.79958 5.40432C1.44611 5.75039 1.19172 6.18129 1.06186 6.65389C0.466439 9.21139 0.421238 14.7407 1.07645 17.3552C1.20634 17.8278 1.46075 18.2587 1.81421 18.6047C2.16767 18.9508 2.60779 19.1998 3.09048 19.327C5.70273 19.9156 18.122 19.9985 20.8948 19.327C21.3775 19.1998 21.8176 18.9508 22.1711 18.6047C22.5245 18.2587 22.7789 17.8278 22.9088 17.3552C23.5436 14.569 23.5888 9.38271 22.8942 6.63939Z" stroke="white" stroke-width="2" stroke-linecap="round" stroke-linejoin="round"/>
<path d="M15.6001 12.0001L9.6001 8.40002V15.6L15.6001 12.0001Z" stroke="white" stroke-width="2" stroke-linecap="round" stroke-linejoin="round"/>
</g>
<defs>
<clipPath id="clip0_266_1146">
<rect width="24" height="24" fill="white"/>
</clipPath>
</defs>
</svg>
